<?xml version="1.0" encoding="UTF-8"?>
<!DOCTYPE svg PUBLIC "-//W3C//DTD SVG 1.1//EN" "http://www.w3.org/Graphics/SVG/1.1/DTD/svg11.dtd">
<svg xmlns="http://www.w3.org/2000/svg" version="1.1" width="199px" height="198px" style="shape-rendering:geometricPrecision; text-rendering:geometricPrecision; image-rendering:optimizeQuality; fill-rule:evenodd; clip-rule:evenodd" xmlns:xlink="http://www.w3.org/1999/xlink">
<g><path style="opacity:1" fill="#cbcec4" d="M -0.5,-0.5 C 26.1667,-0.5 52.8333,-0.5 79.5,-0.5C 81.9479,0.473067 84.6146,0.8064 87.5,0.5C 87.762,1.97782 87.4287,3.31116 86.5,4.5C 81.9824,5.84853 79.4824,8.84853 79,13.5C 78.0857,11.3359 76.919,9.3359 75.5,7.5C 74.081,9.3359 72.9143,11.3359 72,13.5C 71.5172,12.552 71.3505,11.552 71.5,10.5C 68.2719,10.2994 65.1052,10.6328 62,11.5C 58.7121,13.4039 58.8788,14.5706 62.5,15C 58.464,19.5214 54.964,19.3547 52,14.5C 50.9035,17.4742 48.7368,19.1408 45.5,19.5C 41.9578,22.931 37.6244,24.7643 32.5,25C 31.7734,26.3988 31.2734,27.8988 31,29.5C 29.9887,30.3366 28.8221,30.67 27.5,30.5C 27.5,33.1667 27.5,35.8333 27.5,38.5C 26.448,38.3505 25.448,38.5172 24.5,39C 26.6234,40.1937 28.9568,40.8603 31.5,41C 33.7458,42.2568 35.0791,44.0901 35.5,46.5C 38.2469,46.1866 40.9135,46.52 43.5,47.5C 42.3387,49.2237 42.5053,50.8904 44,52.5C 44.4828,51.552 44.6495,50.552 44.5,49.5C 46.998,48.9182 49.3313,48.9182 51.5,49.5C 49.8333,51.5 48.1667,53.5 46.5,55.5C 44.1985,54.1402 42.5318,54.8068 41.5,57.5C 39.6628,53.7874 38.1628,53.7874 37,57.5C 36.4107,53.9297 35.0774,53.5964 33,56.5C 27.3521,54.6487 21.5187,53.982 15.5,54.5C 15.5,56.1667 15.5,57.8333 15.5,59.5C 12.8333,59.5 10.1667,59.5 7.5,59.5C 6.13857,63.1876 3.4719,65.521 -0.5,66.5C -0.5,44.1667 -0.5,21.8333 -0.5,-0.5 Z"/></g>
<g><path style="opacity:1" fill="#cccec8" d="M 79.5,-0.5 C 119.167,-0.5 158.833,-0.5 198.5,-0.5C 198.5,53.5 198.5,107.5 198.5,161.5C 192.478,157.799 186.478,154.132 180.5,150.5C 180.414,149.504 180.748,148.671 181.5,148C 180.833,147.333 180.167,146.667 179.5,146C 181.577,145.808 183.577,145.308 185.5,144.5C 185.167,143.5 184.5,142.833 183.5,142.5C 183.167,143.167 182.833,143.833 182.5,144.5C 179.786,139.627 176.786,134.46 173.5,129C 173.905,128.055 174.572,127.388 175.5,127C 174.207,126.51 172.873,126.343 171.5,126.5C 171.22,123.273 169.887,120.607 167.5,118.5C 167.68,117.446 168.013,116.446 168.5,115.5C 167.833,115.167 167.167,114.833 166.5,114.5C 167.04,113.252 167.707,112.085 168.5,111C 167.552,110.517 166.552,110.351 165.5,110.5C 165.174,107.689 164.341,105.022 163,102.5C 162.781,103.938 162.281,105.271 161.5,106.5C 160.949,104.587 160.782,102.587 161,100.5C 159.926,99.3816 158.76,98.3816 157.5,97.5C 159.478,94.8294 159.478,92.4961 157.5,90.5C 157.66,88.8008 157.494,87.1341 157,85.5C 156.583,84.244 155.75,83.5774 154.5,83.5C 153.135,81.1402 151.135,79.4735 148.5,78.5C 146.215,74.9255 144.215,71.2588 142.5,67.5C 144.5,67.5 146.5,67.5 148.5,67.5C 150.958,67.0739 152.124,65.7406 152,63.5C 148.953,63.9288 145.786,63.9288 142.5,63.5C 142.69,59.9682 142.023,56.6348 140.5,53.5C 142.31,49.2656 141.31,45.7656 137.5,43C 138.28,41.927 138.113,40.7604 137,39.5C 136.667,40.1667 136.333,40.8333 136,41.5C 133.489,39.3207 131.322,36.8207 129.5,34C 126.411,34.0714 123.411,33.238 120.5,31.5C 119.448,31.6495 118.448,31.4828 117.5,31C 114.09,27.021 109.757,25.521 104.5,26.5C 104.5,26.1667 104.5,25.8333 104.5,25.5C 103.866,24.0532 102.699,23.3866 101,23.5C 97.5927,24.6924 94.0927,25.359 90.5,25.5C 90.1667,25.5 89.8333,25.5 89.5,25.5C 85.1313,23.7646 81.1313,24.4313 77.5,27.5C 76.1266,27.3433 74.7932,27.51 73.5,28C 73.8333,28.3333 74.1667,28.6667 74.5,29C 71.8333,30.3333 69.8333,32.3333 68.5,35C 64.7933,35.527 61.96,37.3604 60,40.5C 59.6667,40.1667 59.3333,39.8333 59,39.5C 56.4207,42.7867 53.9207,46.12 51.5,49.5C 49.3313,48.9182 46.998,48.9182 44.5,49.5C 44.6495,50.552 44.4828,51.552 44,52.5C 42.5053,50.8904 42.3387,49.2237 43.5,47.5C 40.9135,46.52 38.2469,46.1866 35.5,46.5C 35.0791,44.0901 33.7458,42.2568 31.5,41C 28.9568,40.8603 26.6234,40.1937 24.5,39C 25.448,38.5172 26.448,38.3505 27.5,38.5C 27.5,35.8333 27.5,33.1667 27.5,30.5C 28.8221,30.67 29.9887,30.3366 31,29.5C 31.2734,27.8988 31.7734,26.3988 32.5,25C 37.6244,24.7643 41.9578,22.931 45.5,19.5C 48.7368,19.1408 50.9035,17.4742 52,14.5C 54.964,19.3547 58.464,19.5214 62.5,15C 58.8788,14.5706 58.7121,13.4039 62,11.5C 65.1052,10.6328 68.2719,10.2994 71.5,10.5C 71.3505,11.552 71.5172,12.552 72,13.5C 72.9143,11.3359 74.081,9.3359 75.5,7.5C 76.919,9.3359 78.0857,11.3359 79,13.5C 79.4824,8.84853 81.9824,5.84853 86.5,4.5C 87.4287,3.31116 87.762,1.97782 87.5,0.5C 84.6146,0.8064 81.9479,0.473067 79.5,-0.5 Z"/></g>
<g><path style="opacity:1" fill="#383836" d="M 104.5,25.5 C 102.836,26.7432 101.669,28.4098 101,30.5C 98.8891,30.4227 96.8891,30.0894 95,29.5C 93.4117,31.9677 91.5784,32.1343 89.5,30C 90.3081,29.6924 90.9747,29.1924 91.5,28.5C 90.8728,27.5832 90.5394,26.5832 90.5,25.5C 94.0927,25.359 97.5927,24.6924 101,23.5C 102.699,23.3866 103.866,24.0532 104.5,25.5 Z"/></g>
<g><path style="opacity:1" fill="#2a2723" d="M 89.5,25.5 C 89.8333,25.5 90.1667,25.5 90.5,25.5C 90.5394,26.5832 90.8728,27.5832 91.5,28.5C 90.9747,29.1924 90.3081,29.6924 89.5,30C 91.5784,32.1343 93.4117,31.9677 95,29.5C 96.8891,30.0894 98.8891,30.4227 101,30.5C 101.669,28.4098 102.836,26.7432 104.5,25.5C 104.5,25.8333 104.5,26.1667 104.5,26.5C 107.31,29.934 110.643,32.934 114.5,35.5C 115.712,37.836 115.379,40.0027 113.5,42C 114.965,45.6996 114.632,49.1996 112.5,52.5C 111.883,52.6107 111.383,52.944 111,53.5C 110.691,52.2341 110.191,51.0674 109.5,50C 113.303,45.9441 112.303,44.7774 106.5,46.5C 104.441,49.6106 102.608,52.9439 101,56.5C 100.935,54.1167 100.102,53.45 98.5,54.5C 97.5748,53.6431 96.9081,52.6431 96.5,51.5C 97.3007,49.9582 97.634,48.2915 97.5,46.5C 94.7133,46.7796 92.5466,48.113 91,50.5C 90.2949,48.0144 89.4616,48.0144 88.5,50.5C 85.0432,50.9601 83.3765,52.9601 83.5,56.5C 81.2075,56.2436 79.0408,56.5769 77,57.5C 76.7411,60.5867 76.2411,63.5867 75.5,66.5C 74.2921,65.7659 72.9587,65.4326 71.5,65.5C 71.817,62.4655 70.817,61.4655 68.5,62.5C 67.7784,62.9175 67.2784,63.5842 67,64.5C 66.6667,67.8333 66.3333,71.1667 66,74.5C 64.1852,75.2444 62.3519,75.9111 60.5,76.5C 58.3678,74.0453 55.7012,72.3786 52.5,71.5C 53.5665,68.3681 54.8999,65.3681 56.5,62.5C 55.6689,60.5269 55.5022,58.5269 56,56.5C 56.3333,57.1667 56.6667,57.8333 57,58.5C 58,54.5 59,54.5 60,58.5C 60.3589,55.4557 61.0255,55.1224 62,57.5C 62.346,55.7818 62.846,54.1151 63.5,52.5C 62.0977,51.1575 62.4311,50.3242 64.5,50C 63.1417,48.1684 62.8084,46.3351 63.5,44.5C 66.4469,40.698 70.1136,37.8646 74.5,36C 77.3383,30.452 82.3383,26.952 89.5,25.5 Z"/></g>
<g><path style="opacity:1" fill="#989892" d="M 120.5,31.5 C 123.411,33.238 126.411,34.0714 129.5,34C 131.322,36.8207 133.489,39.3207 136,41.5C 136.333,40.8333 136.667,40.1667 137,39.5C 138.113,40.7604 138.28,41.927 137.5,43C 141.31,45.7656 142.31,49.2656 140.5,53.5C 138.833,50.1667 137.167,46.8333 135.5,43.5C 133.699,41.8622 132.033,40.0289 130.5,38C 126.931,36.0583 123.598,33.8916 120.5,31.5 Z"/></g>
<g><path style="opacity:1" fill="#332f2a" d="M 104.5,26.5 C 109.757,25.521 114.09,27.021 117.5,31C 118.448,31.4828 119.448,31.6495 120.5,31.5C 123.598,33.8916 126.931,36.0583 130.5,38C 132.033,40.0289 133.699,41.8622 135.5,43.5C 135.347,48.4158 135.347,53.0825 135.5,57.5C 135.189,58.4778 134.522,59.1445 133.5,59.5C 132.904,58.2839 132.737,56.9506 133,55.5C 128.715,61.2124 127.549,60.5457 129.5,53.5C 129.709,52.0055 130.376,50.8388 131.5,50C 129.939,49.6824 128.772,48.8491 128,47.5C 126.738,51.3125 126.071,55.3125 126,59.5C 123.496,61.8327 122.996,64.4993 124.5,67.5C 123.167,66.5 121.833,65.5 120.5,64.5C 121.218,62.8632 121.384,61.1966 121,59.5C 120.311,60.3567 119.478,61.0233 118.5,61.5C 117.024,59.5799 116.024,57.4133 115.5,55C 114.87,53.6898 113.87,52.8565 112.5,52.5C 114.632,49.1996 114.965,45.6996 113.5,42C 115.379,40.0027 115.712,37.836 114.5,35.5C 110.643,32.934 107.31,29.934 104.5,26.5 Z"/></g>
<g><path style="opacity:1" fill="#715d52" d="M 96.5,51.5 C 93.3479,52.4416 90.3479,53.775 87.5,55.5C 86.8333,55.3333 86.1667,55.1667 85.5,55C 86.3862,53.3853 87.3862,51.8853 88.5,50.5C 89.4616,48.0144 90.2949,48.0144 91,50.5C 92.5466,48.113 94.7133,46.7796 97.5,46.5C 97.634,48.2915 97.3007,49.9582 96.5,51.5 Z"/></g>
<g><path style="opacity:1" fill="#5a463b" d="M 112.5,52.5 C 113.87,52.8565 114.87,53.6898 115.5,55C 116.024,57.4133 117.024,59.5799 118.5,61.5C 119.478,61.0233 120.311,60.3567 121,59.5C 121.384,61.1966 121.218,62.8632 120.5,64.5C 119.259,62.0688 118.092,62.0688 117,64.5C 116.887,62.0261 115.887,60.0261 114,58.5C 113.667,58.8333 113.333,59.1667 113,59.5C 113.306,53.7348 112.139,53.4015 109.5,58.5C 110.485,60.0983 110.651,61.765 110,63.5C 109.167,61.5 108.333,59.5 107.5,57.5C 106.416,58.6651 105.583,59.9984 105,61.5C 104.329,62.2524 103.496,62.5858 102.5,62.5C 101.384,59.6631 101.884,56.9964 104,54.5C 104.359,57.5443 105.026,57.8776 106,55.5C 106.498,52.5184 106.665,49.5184 106.5,46.5C 112.303,44.7774 113.303,45.9441 109.5,50C 110.191,51.0674 110.691,52.2341 111,53.5C 111.383,52.944 111.883,52.6107 112.5,52.5 Z"/></g>
<g><path style="opacity:1" fill="#4b4842" d="M 135.5,43.5 C 137.167,46.8333 138.833,50.1667 140.5,53.5C 142.023,56.6348 142.69,59.9682 142.5,63.5C 141.132,61.5819 140.132,59.4152 139.5,57C 137.934,56.235 136.601,56.4017 135.5,57.5C 135.347,53.0825 135.347,48.4158 135.5,43.5 Z"/></g>
<g><path style="opacity:1" fill="#45342b" d="M 106.5,46.5 C 106.665,49.5184 106.498,52.5184 106,55.5C 105.026,57.8776 104.359,57.5443 104,54.5C 101.884,56.9964 101.384,59.6631 102.5,62.5C 102.953,63.4584 103.619,64.2917 104.5,65C 103.906,65.4643 103.239,65.631 102.5,65.5C 101.122,64.7656 99.6225,64.0989 98,63.5C 95.0635,64.8166 92.2301,64.8166 89.5,63.5C 91.3977,62.9107 93.3977,62.744 95.5,63C 96.9814,62.0197 98.3147,60.853 99.5,59.5C 98.8555,58.2679 98.6888,56.9346 99,55.5C 97.3149,57.0175 95.8149,58.6841 94.5,60.5C 92.6639,61.0276 90.9972,61.6942 89.5,62.5C 87.9582,63.3007 86.2915,63.634 84.5,63.5C 83.4583,64.7911 82.2917,64.7911 81,63.5C 80.8078,61.4233 80.3078,59.4233 79.5,57.5C 77.8173,60.6022 77.1506,63.9356 77.5,67.5C 79.5273,67.3379 81.5273,67.5045 83.5,68C 85.5766,69.705 87.91,70.8717 90.5,71.5C 89.4107,73.1171 87.744,73.9504 85.5,74C 87.9316,75.0875 87.5983,75.5875 84.5,75.5C 80.9359,74.5773 77.2693,74.244 73.5,74.5C 73.4069,71.8998 74.0736,69.2332 75.5,66.5C 76.2411,63.5867 76.7411,60.5867 77,57.5C 79.0408,56.5769 81.2075,56.2436 83.5,56.5C 83.3765,52.9601 85.0432,50.9601 88.5,50.5C 87.3862,51.8853 86.3862,53.3853 85.5,55C 86.1667,55.1667 86.8333,55.3333 87.5,55.5C 90.3479,53.775 93.3479,52.4416 96.5,51.5C 96.9081,52.6431 97.5748,53.6431 98.5,54.5C 100.102,53.45 100.935,54.1167 101,56.5C 102.608,52.9439 104.441,49.6106 106.5,46.5 Z"/></g>
<g><path style="opacity:1" fill="#8f7360" d="M 84.5,63.5 C 81.7564,62.9283 80.9231,61.2617 82,58.5C 83.586,59.376 85.086,60.376 86.5,61.5C 85.7573,62.1818 85.0906,62.8485 84.5,63.5 Z"/></g>
<g><path style="opacity:1" fill="#282420" d="M 135.5,57.5 C 136.601,56.4017 137.934,56.235 139.5,57C 140.132,59.4152 141.132,61.5819 142.5,63.5C 144.23,65.1214 146.23,66.4548 148.5,67.5C 146.5,67.5 144.5,67.5 142.5,67.5C 144.215,71.2588 146.215,74.9255 148.5,78.5C 147.472,78.9258 146.139,78.9258 144.5,78.5C 144.29,81.9704 143.123,81.9704 141,78.5C 140.764,80.764 140.264,82.9307 139.5,85C 141.905,86.9963 144.405,88.8296 147,90.5C 146.405,92.5479 146.905,94.5479 148.5,96.5C 147.747,98.7534 146.414,100.587 144.5,102C 148.272,103.83 147.939,105.33 143.5,106.5C 144.103,108.452 143.77,110.452 142.5,112.5C 142.957,113.298 143.624,113.631 144.5,113.5C 145.833,113.5 147.167,113.5 148.5,113.5C 148.047,114.458 147.381,115.292 146.5,116C 144.144,116.155 141.811,116.155 139.5,116C 137.312,121.067 133.645,124.567 128.5,126.5C 129.207,124.866 130.373,123.532 132,122.5C 133.119,119.943 133.285,117.443 132.5,115C 133.649,113.256 134.983,113.089 136.5,114.5C 137.731,113.349 137.731,112.183 136.5,111C 138.058,109.798 139.725,108.632 141.5,107.5C 141.286,105.856 141.62,104.356 142.5,103C 139.211,101.609 137.544,99.4423 137.5,96.5C 138.167,97.1667 138.833,97.8333 139.5,98.5C 142.642,94.4234 141.809,91.4234 137,89.5C 135.618,85.8896 134.118,82.5563 132.5,79.5C 133.483,78.1497 134.816,77.1497 136.5,76.5C 134.827,74.9137 132.827,74.2471 130.5,74.5C 130.663,72.1432 130.497,69.8098 130,67.5C 129.667,68.5 129.333,69.5 129,70.5C 128.578,68.5743 127.411,67.5743 125.5,67.5C 125.167,67.5 124.833,67.5 124.5,67.5C 122.996,64.4993 123.496,61.8327 126,59.5C 126.071,55.3125 126.738,51.3125 128,47.5C 128.772,48.8491 129.939,49.6824 131.5,50C 130.376,50.8388 129.709,52.0055 129.5,53.5C 127.549,60.5457 128.715,61.2124 133,55.5C 132.737,56.9506 132.904,58.2839 133.5,59.5C 134.522,59.1445 135.189,58.4778 135.5,57.5 Z"/></g>
<g><path style="opacity:1" fill="#c9cac0" d="M 46.5,55.5 C 45.772,59.7221 43.4387,62.5554 39.5,64C 43.2812,64.3665 43.9478,65.6999 41.5,68C 43.632,69.6204 43.9653,71.4537 42.5,73.5C 40.6693,72.9478 39.0026,72.9478 37.5,73.5C 36.5224,73.0233 35.6891,72.3567 35,71.5C 35.3661,74.8628 37.1995,77.1962 40.5,78.5C 39.8777,80.335 38.5444,81.5017 36.5,82C 39.1242,82.5764 39.7908,83.9098 38.5,86C 40.3839,86.2163 42.0506,86.883 43.5,88C 42.0577,88.3768 41.0577,89.2101 40.5,90.5C 38.6495,91.8664 38.3162,93.533 39.5,95.5C 37.9052,97.952 36.9052,100.619 36.5,103.5C 35.5272,102.209 34.5272,102.209 33.5,103.5C 30.8158,108.882 28.8158,114.548 27.5,120.5C 26.5,121.5 25.5,122.5 24.5,123.5C 23.8076,122.975 23.3076,122.308 23,121.5C 20.494,125.685 18.6607,130.185 17.5,135C 18.2309,140.445 19.3976,145.945 21,151.5C 22.3561,152.38 23.8561,152.714 25.5,152.5C 25.5,154.167 25.5,155.833 25.5,157.5C 27.1992,157.34 28.8659,157.506 30.5,158C 29.5,158.333 28.5,158.667 27.5,159C 28.756,159.417 29.4226,160.25 29.5,161.5C 25.2198,163.64 20.8864,165.807 16.5,168C 13.2492,171.922 9.41585,175.088 5,177.5C 2.83032,182.846 0.996986,188.179 -0.5,193.5C -0.5,151.167 -0.5,108.833 -0.5,66.5C 3.4719,65.521 6.13857,63.1876 7.5,59.5C 10.1667,59.5 12.8333,59.5 15.5,59.5C 15.5,57.8333 15.5,56.1667 15.5,54.5C 21.5187,53.982 27.3521,54.6487 33,56.5C 35.0774,53.5964 36.4107,53.9297 37,57.5C 38.1628,53.7874 39.6628,53.7874 41.5,57.5C 42.5318,54.8068 44.1985,54.1402 46.5,55.5 Z"/></g>
<g><path style="opacity:1" fill="#756055" d="M 89.5,63.5 C 89.5,63.1667 89.5,62.8333 89.5,62.5C 90.9972,61.6942 92.6639,61.0276 94.5,60.5C 95.8149,58.6841 97.3149,57.0175 99,55.5C 98.6888,56.9346 98.8555,58.2679 99.5,59.5C 98.3147,60.853 96.9814,62.0197 95.5,63C 93.3977,62.744 91.3977,62.9107 89.5,63.5 Z"/></g>
<g><path style="opacity:1" fill="#b4b4ab" d="M 77.5,27.5 C 76.5849,29.7541 75.2516,31.7541 73.5,33.5C 67.8282,38.0085 62.3282,42.6752 57,47.5C 54.5991,55.4705 50.7658,62.6371 45.5,69C 47.915,70.4653 48.915,72.632 48.5,75.5C 47.5,75.5 46.5,75.5 45.5,75.5C 44.8333,75.5 44.1667,75.5 43.5,75.5C 43.1667,74.8333 42.8333,74.1667 42.5,73.5C 43.9653,71.4537 43.632,69.6204 41.5,68C 43.9478,65.6999 43.2812,64.3665 39.5,64C 43.4387,62.5554 45.772,59.7221 46.5,55.5C 48.1667,53.5 49.8333,51.5 51.5,49.5C 53.9207,46.12 56.4207,42.7867 59,39.5C 59.3333,39.8333 59.6667,40.1667 60,40.5C 61.96,37.3604 64.7933,35.527 68.5,35C 69.8333,32.3333 71.8333,30.3333 74.5,29C 74.1667,28.6667 73.8333,28.3333 73.5,28C 74.7932,27.51 76.1266,27.3433 77.5,27.5 Z"/></g>
<g><path style="opacity:1" fill="#3b3833" d="M 89.5,25.5 C 82.3383,26.952 77.3383,30.452 74.5,36C 70.1136,37.8646 66.4469,40.698 63.5,44.5C 62.8084,46.3351 63.1417,48.1684 64.5,50C 62.4311,50.3242 62.0977,51.1575 63.5,52.5C 62.846,54.1151 62.346,55.7818 62,57.5C 61.0255,55.1224 60.3589,55.4557 60,58.5C 59,54.5 58,54.5 57,58.5C 56.6667,57.8333 56.3333,57.1667 56,56.5C 55.5022,58.5269 55.6689,60.5269 56.5,62.5C 54.8999,65.3681 53.5665,68.3681 52.5,71.5C 51.5987,72.2905 50.9321,73.2905 50.5,74.5C 49.0236,76.4318 47.3569,76.7652 45.5,75.5C 46.5,75.5 47.5,75.5 48.5,75.5C 48.915,72.632 47.915,70.4653 45.5,69C 50.7658,62.6371 54.5991,55.4705 57,47.5C 62.3282,42.6752 67.8282,38.0085 73.5,33.5C 75.2516,31.7541 76.5849,29.7541 77.5,27.5C 81.1313,24.4313 85.1313,23.7646 89.5,25.5 Z"/></g>
<g><path style="opacity:1" fill="#9d7e6f" d="M 120.5,64.5 C 121.833,65.5 123.167,66.5 124.5,67.5C 124.833,67.5 125.167,67.5 125.5,67.5C 126.11,68.391 126.443,69.391 126.5,70.5C 123.702,69.0468 120.702,68.0468 117.5,67.5C 115.856,67.7135 114.356,67.3802 113,66.5C 110.334,68.3827 107.834,70.3827 105.5,72.5C 106.729,73.2811 108.062,73.7811 109.5,74C 106.598,74.9186 106.265,75.7519 108.5,76.5C 105.73,79.03 105.897,81.3633 109,83.5C 110.03,83.1639 110.53,82.4972 110.5,81.5C 113.476,84.1583 116.476,84.1583 119.5,81.5C 119.389,82.1174 119.056,82.6174 118.5,83C 120.81,83.4966 123.143,83.6633 125.5,83.5C 125.719,82.325 125.386,81.325 124.5,80.5C 121.295,79.1347 117.961,78.1347 114.5,77.5C 112.565,76.787 112.232,75.787 113.5,74.5C 116.852,73.2926 120.186,73.2926 123.5,74.5C 125.991,74.8288 128.157,75.8288 130,77.5C 130.181,80.6946 130.681,83.6946 131.5,86.5C 130.833,87.8333 130.167,89.1667 129.5,90.5C 128.864,92.7946 127.531,94.4613 125.5,95.5C 126.815,93.8653 126.815,92.1986 125.5,90.5C 125.938,89.4937 126.604,89.4937 127.5,90.5C 128.631,88.9255 128.798,87.2588 128,85.5C 125.619,84.565 123.119,84.2317 120.5,84.5C 120.5,85.5 120.5,86.5 120.5,87.5C 115.205,87.5258 110.039,86.8591 105,85.5C 104.536,86.0944 104.369,86.7611 104.5,87.5C 103.62,85.8632 102.954,84.0299 102.5,82C 103.414,80.5936 104.08,79.0936 104.5,77.5C 104.947,73.5101 104.28,69.5101 102.5,65.5C 103.239,65.631 103.906,65.4643 104.5,65C 103.619,64.2917 102.953,63.4584 102.5,62.5C 103.496,62.5858 104.329,62.2524 105,61.5C 105.583,59.9984 106.416,58.6651 107.5,57.5C 108.333,59.5 109.167,61.5 110,63.5C 110.651,61.765 110.485,60.0983 109.5,58.5C 112.139,53.4015 113.306,53.7348 113,59.5C 113.333,59.1667 113.667,58.8333 114,58.5C 115.887,60.0261 116.887,62.0261 117,64.5C 118.092,62.0688 119.259,62.0688 120.5,64.5 Z"/></g>
<g><path style="opacity:1" fill="#84857f" d="M 142.5,63.5 C 145.786,63.9288 148.953,63.9288 152,63.5C 152.124,65.7406 150.958,67.0739 148.5,67.5C 146.23,66.4548 144.23,65.1214 142.5,63.5 Z"/></g>
<g><path style="opacity:1" fill="#a58678" d="M 84.5,63.5 C 86.2915,63.634 87.9582,63.3007 89.5,62.5C 89.5,62.8333 89.5,63.1667 89.5,63.5C 92.2301,64.8166 95.0635,64.8166 98,63.5C 99.6225,64.0989 101.122,64.7656 102.5,65.5C 98.5845,66.2668 94.5845,66.7668 90.5,67C 90.0426,67.414 89.7093,67.914 89.5,68.5C 90.9935,69.1411 91.9935,70.1411 92.5,71.5C 91.8333,71.5 91.1667,71.5 90.5,71.5C 87.91,70.8717 85.5766,69.705 83.5,68C 81.5273,67.5045 79.5273,67.3379 77.5,67.5C 77.1506,63.9356 77.8173,60.6022 79.5,57.5C 80.3078,59.4233 80.8078,61.4233 81,63.5C 82.2917,64.7911 83.4583,64.7911 84.5,63.5 Z"/></g>
<g><path style="opacity:1" fill="#3c2f28" d="M 117.5,67.5 C 117.539,68.5832 117.873,69.5832 118.5,70.5C 116.228,71.4853 113.895,72.3187 111.5,73C 112.416,73.2784 113.082,73.7784 113.5,74.5C 111.597,74.7959 109.93,75.4625 108.5,76.5C 106.265,75.7519 106.598,74.9186 109.5,74C 108.062,73.7811 106.729,73.2811 105.5,72.5C 107.834,70.3827 110.334,68.3827 113,66.5C 114.356,67.3802 115.856,67.7135 117.5,67.5 Z"/></g>
<g><path style="opacity:1" fill="#6a5445" d="M 75.5,66.5 C 74.0736,69.2332 73.4069,71.8998 73.5,74.5C 73.5,75.1667 73.1667,75.5 72.5,75.5C 72.0825,74.7784 71.4158,74.2784 70.5,74C 71.1667,73.6667 71.8333,73.3333 72.5,73C 71.2068,72.51 69.8734,72.3433 68.5,72.5C 68.5,69.1667 68.5,65.8333 68.5,62.5C 70.817,61.4655 71.817,62.4655 71.5,65.5C 72.9587,65.4326 74.2921,65.7659 75.5,66.5 Z"/></g>
<g><path style="opacity:1" fill="#69574d" d="M 117.5,67.5 C 120.702,68.0468 123.702,69.0468 126.5,70.5C 128.703,71.0516 129.536,72.3849 129,74.5C 127.031,71.8761 125.198,71.8761 123.5,74.5C 120.186,73.2926 116.852,73.2926 113.5,74.5C 113.082,73.7784 112.416,73.2784 111.5,73C 113.895,72.3187 116.228,71.4853 118.5,70.5C 117.873,69.5832 117.539,68.5832 117.5,67.5 Z"/></g>
<g><path style="opacity:1" fill="#bf9b8b" d="M 102.5,65.5 C 104.28,69.5101 104.947,73.5101 104.5,77.5C 100.936,78.4227 97.2693,78.756 93.5,78.5C 91.8053,76.6102 91.4719,74.2769 92.5,71.5C 91.9935,70.1411 90.9935,69.1411 89.5,68.5C 89.7093,67.914 90.0426,67.414 90.5,67C 94.5845,66.7668 98.5845,66.2668 102.5,65.5 Z"/></g>
<g><path style="opacity:1" fill="#605d54" d="M 42.5,73.5 C 42.8333,74.1667 43.1667,74.8333 43.5,75.5C 44.0577,76.7899 45.0577,77.6232 46.5,78C 44.3208,77.716 42.3208,77.8826 40.5,78.5C 37.1995,77.1962 35.3661,74.8628 35,71.5C 35.6891,72.3567 36.5224,73.0233 37.5,73.5C 39.0026,72.9478 40.6693,72.9478 42.5,73.5 Z"/></g>
<g><path style="opacity:1" fill="#3e342d" d="M 68.5,62.5 C 68.5,65.8333 68.5,69.1667 68.5,72.5C 69.8734,72.3433 71.2068,72.51 72.5,73C 71.8333,73.3333 71.1667,73.6667 70.5,74C 71.4158,74.2784 72.0825,74.7784 72.5,75.5C 71.0413,75.4326 69.7079,75.7659 68.5,76.5C 66.7587,78.0128 65.7587,80.0128 65.5,82.5C 66.228,84.1547 66.3947,85.8214 66,87.5C 65.7216,86.5842 65.2216,85.9175 64.5,85.5C 64.6602,83.8008 64.4935,82.1341 64,80.5C 62.6125,79.2642 61.4458,77.9308 60.5,76.5C 62.3519,75.9111 64.1852,75.2444 66,74.5C 66.3333,71.1667 66.6667,67.8333 67,64.5C 67.2784,63.5842 67.7784,62.9175 68.5,62.5 Z"/></g>
<g><path style="opacity:1" fill="#a3816c" d="M 73.5,74.5 C 77.2693,74.244 80.9359,74.5773 84.5,75.5C 84.4431,76.609 84.1098,77.609 83.5,78.5C 83.1667,78.5 82.8333,78.5 82.5,78.5C 78.1606,77.8461 74.3273,78.8461 71,81.5C 71.0731,79.6443 70.2398,77.9777 68.5,76.5C 69.7079,75.7659 71.0413,75.4326 72.5,75.5C 73.1667,75.5 73.5,75.1667 73.5,74.5 Z"/></g>
<g><path style="opacity:1" fill="#463b34" d="M 125.5,67.5 C 127.411,67.5743 128.578,68.5743 129,70.5C 129.333,69.5 129.667,68.5 130,67.5C 130.497,69.8098 130.663,72.1432 130.5,74.5C 132.827,74.2471 134.827,74.9137 136.5,76.5C 134.816,77.1497 133.483,78.1497 132.5,79.5C 132.5,81.1667 132.5,82.8333 132.5,84.5C 131.662,84.8417 131.328,85.5084 131.5,86.5C 130.681,83.6946 130.181,80.6946 130,77.5C 128.157,75.8288 125.991,74.8288 123.5,74.5C 125.198,71.8761 127.031,71.8761 129,74.5C 129.536,72.3849 128.703,71.0516 126.5,70.5C 126.443,69.391 126.11,68.391 125.5,67.5 Z"/></g>
<g><path style="opacity:1" fill="#6f5140" d="M 113.5,74.5 C 112.232,75.787 112.565,76.787 114.5,77.5C 117.961,78.1347 121.295,79.1347 124.5,80.5C 125.386,81.325 125.719,82.325 125.5,83.5C 123.143,83.6633 120.81,83.4966 118.5,83C 119.056,82.6174 119.389,82.1174 119.5,81.5C 116.983,79.9469 114.15,78.9469 111,78.5C 106.676,79.3579 106.509,80.3579 110.5,81.5C 110.53,82.4972 110.03,83.1639 109,83.5C 105.897,81.3633 105.73,79.03 108.5,76.5C 109.93,75.4625 111.597,74.7959 113.5,74.5 Z"/></g>
<g><path style="opacity:1" fill="#2d2015" d="M 119.5,81.5 C 116.476,84.1583 113.476,84.1583 110.5,81.5C 106.509,80.3579 106.676,79.3579 111,78.5C 114.15,78.9469 116.983,79.9469 119.5,81.5 Z"/></g>
<g><path style="opacity:1" fill="#3a2417" d="M 104.5,77.5 C 104.08,79.0936 103.414,80.5936 102.5,82C 102.954,84.0299 103.62,85.8632 104.5,87.5C 105.287,90.4077 106.62,93.0744 108.5,95.5C 107.5,95.5 106.5,95.5 105.5,95.5C 104.161,92.4971 102.828,89.4971 101.5,86.5C 101.662,84.4727 101.495,82.4727 101,80.5C 99.3333,79.1667 97.6667,79.1667 96,80.5C 95.5045,82.4727 95.3379,84.4727 95.5,86.5C 94.1667,89.5 92.8333,92.5 91.5,95.5C 90.8333,95.5 90.1667,95.5 89.5,95.5C 92.9019,90.2323 93.9019,84.5656 92.5,78.5C 92.8333,78.5 93.1667,78.5 93.5,78.5C 97.2693,78.756 100.936,78.4227 104.5,77.5 Z"/></g>
<g><path style="opacity:1" fill="#9c7468" d="M 101.5,86.5 C 100.626,84.31 98.9589,83.31 96.5,83.5C 96.7373,84.791 96.404,85.791 95.5,86.5C 95.3379,84.4727 95.5045,82.4727 96,80.5C 97.6667,79.1667 99.3333,79.1667 101,80.5C 101.495,82.4727 101.662,84.4727 101.5,86.5 Z"/></g>
<g><path style="opacity:1" fill="#1e1a16" d="M 52.5,71.5 C 55.7012,72.3786 58.3678,74.0453 60.5,76.5C 61.4458,77.9308 62.6125,79.2642 64,80.5C 64.4935,82.1341 64.6602,83.8008 64.5,85.5C 64.4521,90.7339 64.7854,96.0672 65.5,101.5C 65.1667,104.833 64.8333,108.167 64.5,111.5C 63.5,111.5 62.5,111.5 61.5,111.5C 61.7863,109.723 62.4529,108.056 63.5,106.5C 63.1667,105.833 62.8333,105.167 62.5,104.5C 61.0663,105.936 59.8996,107.602 59,109.5C 58.3943,104.672 57.061,104.672 55,109.5C 53.5597,107.41 53.7264,105.244 55.5,103C 55.3917,99.7534 54.0583,96.7534 51.5,94C 52.717,92.3523 53.5503,90.519 54,88.5C 54.2492,89.624 54.7492,90.624 55.5,91.5C 56.9004,89.2183 56.2337,87.7183 53.5,87C 54.6405,86.2588 54.6405,85.4255 53.5,84.5C 54.7562,83.9698 56.2562,83.9698 58,84.5C 57.7727,82.4259 57.9394,80.4259 58.5,78.5C 57.5276,76.3635 55.8609,75.1968 53.5,75C 53.8333,74.6667 54.1667,74.3333 54.5,74C 53.1807,73.805 51.8474,73.9717 50.5,74.5C 50.9321,73.2905 51.5987,72.2905 52.5,71.5 Z"/></g>
<g><path style="opacity:1" fill="#765c4c" d="M 90.5,71.5 C 91.1667,71.5 91.8333,71.5 92.5,71.5C 91.4719,74.2769 91.8053,76.6102 93.5,78.5C 93.1667,78.5 92.8333,78.5 92.5,78.5C 89.5426,76.9749 88.8759,77.6416 90.5,80.5C 89.7177,82.4513 88.3844,83.9513 86.5,85C 81.1771,85.4994 75.8437,85.666 70.5,85.5C 70.6495,84.448 70.4828,83.448 70,82.5C 67.366,85.505 66.866,88.8383 68.5,92.5C 67.8826,92.3893 67.3826,92.056 67,91.5C 66.5017,94.8168 66.335,98.1501 66.5,101.5C 66.1667,101.5 65.8333,101.5 65.5,101.5C 64.7854,96.0672 64.4521,90.7339 64.5,85.5C 65.2216,85.9175 65.7216,86.5842 66,87.5C 66.3947,85.8214 66.228,84.1547 65.5,82.5C 65.7587,80.0128 66.7587,78.0128 68.5,76.5C 70.2398,77.9777 71.0731,79.6443 71,81.5C 74.3273,78.8461 78.1606,77.8461 82.5,78.5C 79.5919,79.9541 76.5919,81.4541 73.5,83C 74.8989,83.5946 76.2322,83.4279 77.5,82.5C 80.6042,85.3882 83.2709,85.0549 85.5,81.5C 86.451,82.3256 87.451,82.4922 88.5,82C 87.3595,81.2588 87.3595,80.4255 88.5,79.5C 86.9547,78.5481 85.288,78.2148 83.5,78.5C 84.1098,77.609 84.4431,76.609 84.5,75.5C 87.5983,75.5875 87.9316,75.0875 85.5,74C 87.744,73.9504 89.4107,73.1171 90.5,71.5 Z"/></g>
<g><path style="opacity:1" fill="#35251a" d="M 82.5,78.5 C 82.8333,78.5 83.1667,78.5 83.5,78.5C 85.288,78.2148 86.9547,78.5481 88.5,79.5C 87.3595,80.4255 87.3595,81.2588 88.5,82C 87.451,82.4922 86.451,82.3256 85.5,81.5C 83.2709,85.0549 80.6042,85.3882 77.5,82.5C 76.2322,83.4279 74.8989,83.5946 73.5,83C 76.5919,81.4541 79.5919,79.9541 82.5,78.5 Z"/></g>
<g><path style="opacity:1" fill="#484440" d="M 148.5,78.5 C 151.135,79.4735 153.135,81.1402 154.5,83.5C 153.637,82.537 152.97,82.537 152.5,83.5C 153.066,88.0048 153.399,92.5048 153.5,97C 152.003,101.171 149.67,104.837 146.5,108C 147.634,109.016 147.301,109.683 145.5,110C 146.167,110.333 146.833,110.667 147.5,111C 146.058,111.377 145.058,112.21 144.5,113.5C 143.624,113.631 142.957,113.298 142.5,112.5C 143.77,110.452 144.103,108.452 143.5,106.5C 147.939,105.33 148.272,103.83 144.5,102C 146.414,100.587 147.747,98.7534 148.5,96.5C 146.905,94.5479 146.405,92.5479 147,90.5C 144.405,88.8296 141.905,86.9963 139.5,85C 140.264,82.9307 140.764,80.764 141,78.5C 143.123,81.9704 144.29,81.9704 144.5,78.5C 146.139,78.9258 147.472,78.9258 148.5,78.5 Z"/></g>
<g><path style="opacity:1" fill="#9c755d" d="M 90.5,80.5 C 91.5983,81.6009 91.765,82.9343 91,84.5C 85.1472,90.3351 78.1472,92.6684 70,91.5C 70.0579,93.4354 70.8912,95.1021 72.5,96.5C 70.1667,96.1667 68.8333,94.8333 68.5,92.5C 66.866,88.8383 67.366,85.505 70,82.5C 70.4828,83.448 70.6495,84.448 70.5,85.5C 75.8437,85.666 81.1771,85.4994 86.5,85C 88.3844,83.9513 89.7177,82.4513 90.5,80.5 Z"/></g>
<g><path style="opacity:1" fill="#c19885" d="M 125.5,95.5 C 123.847,95.6596 122.514,96.3263 121.5,97.5C 121.158,98.3382 120.492,98.6716 119.5,98.5C 115.917,97.6137 112.25,96.6137 108.5,95.5C 106.62,93.0744 105.287,90.4077 104.5,87.5C 104.369,86.7611 104.536,86.0944 105,85.5C 110.039,86.8591 115.205,87.5258 120.5,87.5C 120.5,86.5 120.5,85.5 120.5,84.5C 123.119,84.2317 125.619,84.565 128,85.5C 128.798,87.2588 128.631,88.9255 127.5,90.5C 126.604,89.4937 125.938,89.4937 125.5,90.5C 126.815,92.1986 126.815,93.8653 125.5,95.5 Z"/></g>
<g><path style="opacity:1" fill="#918f87" d="M 40.5,78.5 C 41.7124,79.2299 42.7124,80.2299 43.5,81.5C 44.8123,80.5396 46.1456,80.7063 47.5,82C 45.8333,83 44.1667,84 42.5,85C 43.624,85.2492 44.624,85.7492 45.5,86.5C 44.2651,88.3163 44.2651,89.983 45.5,91.5C 44.9213,94.3311 43.588,96.6644 41.5,98.5C 40.9084,95.8728 40.5751,93.2062 40.5,90.5C 41.0577,89.2101 42.0577,88.3768 43.5,88C 42.0506,86.883 40.3839,86.2163 38.5,86C 39.7908,83.9098 39.1242,82.5764 36.5,82C 38.5444,81.5017 39.8777,80.335 40.5,78.5 Z"/></g>
<g><path style="opacity:1" fill="#be9584" d="M 92.5,78.5 C 93.9019,84.5656 92.9019,90.2323 89.5,95.5C 83.9796,97.7508 78.3129,98.0841 72.5,96.5C 70.8912,95.1021 70.0579,93.4354 70,91.5C 78.1472,92.6684 85.1472,90.3351 91,84.5C 91.765,82.9343 91.5983,81.6009 90.5,80.5C 88.8759,77.6416 89.5426,76.9749 92.5,78.5 Z"/></g>
<g><path style="opacity:1" fill="#4a453d" d="M 45.5,91.5 C 46.5,91.5 47.5,91.5 48.5,91.5C 47.5856,96.8626 46.5856,102.196 45.5,107.5C 43.4305,107.417 43.0972,106.417 44.5,104.5C 43.4957,100.647 42.6624,100.647 42,104.5C 40.3115,102.68 40.1448,100.68 41.5,98.5C 43.588,96.6644 44.9213,94.3311 45.5,91.5 Z"/></g>
<g><path style="opacity:1" fill="#1c1612" d="M 132.5,79.5 C 134.118,82.5563 135.618,85.8896 137,89.5C 141.809,91.4234 142.642,94.4234 139.5,98.5C 138.833,97.8333 138.167,97.1667 137.5,96.5C 137.544,99.4423 139.211,101.609 142.5,103C 141.62,104.356 141.286,105.856 141.5,107.5C 139.725,108.632 138.058,109.798 136.5,111C 137.731,112.183 137.731,113.349 136.5,114.5C 134.983,113.089 133.649,113.256 132.5,115C 133.285,117.443 133.119,119.943 132,122.5C 130.373,123.532 129.207,124.866 128.5,126.5C 127.833,126.5 127.5,126.833 127.5,127.5C 126.876,127.083 126.543,126.416 126.5,125.5C 129.682,119.927 131.348,113.927 131.5,107.5C 134.569,107.037 135.069,105.704 133,103.5C 132.501,99.8484 132.335,96.1817 132.5,92.5C 132.5,89.8333 132.5,87.1667 132.5,84.5C 132.5,82.8333 132.5,81.1667 132.5,79.5 Z"/></g>
<g><path style="opacity:1" fill="#2b2823" d="M 65.5,101.5 C 65.8333,101.5 66.1667,101.5 66.5,101.5C 66.4712,107.687 67.4712,113.687 69.5,119.5C 66.676,119.011 65.3426,117.344 65.5,114.5C 61.2281,115.413 57.2281,116.246 53.5,117C 54.8333,117.667 54.8333,118.333 53.5,119C 54.8721,119.402 56.2054,119.902 57.5,120.5C 56.9836,119.242 57.6503,118.242 59.5,117.5C 62.1667,118.5 62.1667,119.5 59.5,120.5C 60.6405,121.425 60.6405,122.259 59.5,123C 60.6667,123.5 61.5,124.333 62,125.5C 62.5354,123.729 63.3687,123.396 64.5,124.5C 63.3595,125.425 63.3595,126.259 64.5,127C 63.09,127.368 62.09,128.201 61.5,129.5C 61.9698,130.463 62.6365,130.463 63.5,129.5C 63.1788,131.048 62.1788,131.715 60.5,131.5C 57.9388,129.886 57.2722,127.719 58.5,125C 57.4939,123.662 56.4939,122.329 55.5,121C 53.0751,120.707 51.2418,119.541 50,117.5C 49.1477,113.736 47.6477,110.403 45.5,107.5C 46.5856,102.196 47.5856,96.8626 48.5,91.5C 47.5,91.5 46.5,91.5 45.5,91.5C 44.2651,89.983 44.2651,88.3163 45.5,86.5C 44.624,85.7492 43.624,85.2492 42.5,85C 44.1667,84 45.8333,83 47.5,82C 46.1456,80.7063 44.8123,80.5396 43.5,81.5C 42.7124,80.2299 41.7124,79.2299 40.5,78.5C 42.3208,77.8826 44.3208,77.716 46.5,78C 45.0577,77.6232 44.0577,76.7899 43.5,75.5C 44.1667,75.5 44.8333,75.5 45.5,75.5C 47.3569,76.7652 49.0236,76.4318 50.5,74.5C 51.8474,73.9717 53.1807,73.805 54.5,74C 54.1667,74.3333 53.8333,74.6667 53.5,75C 55.8609,75.1968 57.5276,76.3635 58.5,78.5C 57.9394,80.4259 57.7727,82.4259 58,84.5C 56.2562,83.9698 54.7562,83.9698 53.5,84.5C 54.6405,85.4255 54.6405,86.2588 53.5,87C 56.2337,87.7183 56.9004,89.2183 55.5,91.5C 54.7492,90.624 54.2492,89.624 54,88.5C 53.5503,90.519 52.717,92.3523 51.5,94C 54.0583,96.7534 55.3917,99.7534 55.5,103C 53.7264,105.244 53.5597,107.41 55,109.5C 57.061,104.672 58.3943,104.672 59,109.5C 59.8996,107.602 61.0663,105.936 62.5,104.5C 62.8333,105.167 63.1667,105.833 63.5,106.5C 62.4529,108.056 61.7863,109.723 61.5,111.5C 62.5,111.5 63.5,111.5 64.5,111.5C 64.8333,108.167 65.1667,104.833 65.5,101.5 Z"/></g>
<g><path style="opacity:1" fill="#704838" d="M 89.5,95.5 C 90.1667,95.5 90.8333,95.5 91.5,95.5C 90.8333,96.5 90.1667,97.5 89.5,98.5C 88.8423,99.3984 88.1757,100.398 87.5,101.5C 86.6143,100.675 86.281,99.675 86.5,98.5C 83.8333,98.5 81.1667,98.5 78.5,98.5C 76.1016,98.7406 74.1016,98.0739 72.5,96.5C 78.3129,98.0841 83.9796,97.7508 89.5,95.5 Z"/></g>
<g><path style="opacity:1" fill="#604d47" d="M 132.5,92.5 C 132.335,96.1817 132.501,99.8484 133,103.5C 135.069,105.704 134.569,107.037 131.5,107.5C 131.179,102.305 131.513,97.3054 132.5,92.5 Z"/></g>
<g><path style="opacity:1" fill="#926758" d="M 78.5,98.5 C 81.1667,98.5 83.8333,98.5 86.5,98.5C 86.281,99.675 86.6143,100.675 87.5,101.5C 88.1757,100.398 88.8423,99.3984 89.5,98.5C 89.1794,101.88 90.1794,102.713 92.5,101C 96.8333,100.333 101.167,100.333 105.5,101C 106.554,102.388 106.72,103.888 106,105.5C 103.846,106.23 101.679,106.897 99.5,107.5C 92.8422,104.758 85.8422,102.758 78.5,101.5C 75.9017,100.472 75.9017,99.4722 78.5,98.5 Z"/></g>
<g><path style="opacity:1" fill="#a1a19c" d="M 154.5,83.5 C 155.75,83.5774 156.583,84.244 157,85.5C 157.494,87.1341 157.66,88.8008 157.5,90.5C 156.655,94.5211 155.488,98.5211 154,102.5C 151.986,104.183 150.32,106.183 149,108.5C 148.838,110.454 148.671,112.121 148.5,113.5C 147.167,113.5 145.833,113.5 144.5,113.5C 145.058,112.21 146.058,111.377 147.5,111C 146.833,110.667 146.167,110.333 145.5,110C 147.301,109.683 147.634,109.016 146.5,108C 149.67,104.837 152.003,101.171 153.5,97C 153.399,92.5048 153.066,88.0048 152.5,83.5C 152.97,82.537 153.637,82.537 154.5,83.5 Z"/></g>
<g><path style="opacity:1" fill="#451a15" d="M 101.5,101.5 C 102.5,101.5 103.5,101.5 104.5,101.5C 104.5,102.5 104.5,103.5 104.5,104.5C 103.5,104.5 102.5,104.5 101.5,104.5C 101.5,103.5 101.5,102.5 101.5,101.5 Z"/></g>
<g><path style="opacity:1" fill="#bebfb7" d="M 36.5,103.5 C 34.8867,107.677 33.8867,112.011 33.5,116.5C 29.5443,117.053 29.5443,117.886 33.5,119C 30.9456,121.398 30.9456,123.731 33.5,126C 32.3333,126.5 31.5,127.333 31,128.5C 30.6667,126.167 30.3333,123.833 30,121.5C 27.1035,125.36 26.2702,129.526 27.5,134C 26.8333,134.333 26.1667,134.667 25.5,135C 26.8659,136.6 27.8659,138.433 28.5,140.5C 29.7989,139.91 30.6322,138.91 31,137.5C 31.3333,137.833 31.6667,138.167 32,138.5C 33.1628,136.715 33.8295,134.715 34,132.5C 34.3333,133.167 34.6667,133.833 35,134.5C 36.2895,131.832 37.4561,129.165 38.5,126.5C 40.5824,126.472 42.4157,127.139 44,128.5C 44.3114,129.742 43.8114,130.742 42.5,131.5C 43.751,134.489 45.751,135.489 48.5,134.5C 49.8196,136.27 51.3196,136.603 53,135.5C 52.3994,139.406 52.8994,143.239 54.5,147C 53.7476,147.671 53.4142,148.504 53.5,149.5C 45.5,153.5 37.5,157.5 29.5,161.5C 29.4226,160.25 28.756,159.417 27.5,159C 28.5,158.667 29.5,158.333 30.5,158C 28.8659,157.506 27.1992,157.34 25.5,157.5C 25.5,155.833 25.5,154.167 25.5,152.5C 23.8561,152.714 22.3561,152.38 21,151.5C 19.3976,145.945 18.2309,140.445 17.5,135C 18.6607,130.185 20.494,125.685 23,121.5C 23.3076,122.308 23.8076,122.975 24.5,123.5C 25.5,122.5 26.5,121.5 27.5,120.5C 28.8158,114.548 30.8158,108.882 33.5,103.5C 34.5272,102.209 35.5272,102.209 36.5,103.5 Z"/></g>
<g><path style="opacity:1" fill="#c6c6c2" d="M 157.5,90.5 C 159.478,92.4961 159.478,94.8294 157.5,97.5C 158.76,98.3816 159.926,99.3816 161,100.5C 160.782,102.587 160.949,104.587 161.5,106.5C 162.281,105.271 162.781,103.938 163,102.5C 164.341,105.022 165.174,107.689 165.5,110.5C 166.552,110.351 167.552,110.517 168.5,111C 167.707,112.085 167.04,113.252 166.5,114.5C 167.167,114.833 167.833,115.167 168.5,115.5C 168.013,116.446 167.68,117.446 167.5,118.5C 169.887,120.607 171.22,123.273 171.5,126.5C 172.873,126.343 174.207,126.51 175.5,127C 174.572,127.388 173.905,128.055 173.5,129C 176.786,134.46 179.786,139.627 182.5,144.5C 182.833,143.833 183.167,143.167 183.5,142.5C 184.5,142.833 185.167,143.5 185.5,144.5C 183.577,145.308 181.577,145.808 179.5,146C 180.167,146.667 180.833,147.333 181.5,148C 180.748,148.671 180.414,149.504 180.5,150.5C 172.908,147.97 165.242,145.637 157.5,143.5C 151.268,141.22 144.935,139.22 138.5,137.5C 134.963,135.902 131.296,134.569 127.5,133.5C 127.5,131.5 127.5,129.5 127.5,127.5C 127.5,126.833 127.833,126.5 128.5,126.5C 133.645,124.567 137.312,121.067 139.5,116C 141.811,116.155 144.144,116.155 146.5,116C 147.381,115.292 148.047,114.458 148.5,113.5C 148.671,112.121 148.838,110.454 149,108.5C 150.32,106.183 151.986,104.183 154,102.5C 155.488,98.5211 156.655,94.5211 157.5,90.5 Z"/></g>
<g><path style="opacity:1" fill="#bc8e7c" d="M 78.5,101.5 C 85.8422,102.758 92.8422,104.758 99.5,107.5C 96.1752,108.135 92.8419,109.135 89.5,110.5C 88.2949,111.577 87.6282,112.91 87.5,114.5C 85.6115,115.322 83.6115,116.155 81.5,117C 82.6667,117.167 83.8333,117.333 85,117.5C 92.4733,116.624 99.9733,116.291 107.5,116.5C 108.209,117.404 109.209,117.737 110.5,117.5C 108.26,118.264 105.927,119.098 103.5,120C 105.134,120.494 106.801,120.66 108.5,120.5C 107.781,123.073 106.781,125.573 105.5,128C 99.9435,128.521 94.6101,129.687 89.5,131.5C 86.9174,130.776 84.2507,129.943 81.5,129C 83.8912,127.691 83.8912,126.691 81.5,126C 82.9561,125.577 83.4561,124.744 83,123.5C 81.9887,124.337 80.8221,124.67 79.5,124.5C 80.0853,120.418 80.0853,116.418 79.5,112.5C 77.0217,111.278 76.0217,109.278 76.5,106.5C 78.433,106.271 80.0997,105.438 81.5,104C 80.4293,103.148 79.4293,102.315 78.5,101.5 Z"/></g>
<g><path style="opacity:1" fill="#b9b8b0" d="M 40.5,90.5 C 40.5751,93.2062 40.9084,95.8728 41.5,98.5C 40.1448,100.68 40.3115,102.68 42,104.5C 42.6624,100.647 43.4957,100.647 44.5,104.5C 43.0972,106.417 43.4305,107.417 45.5,107.5C 47.6477,110.403 49.1477,113.736 50,117.5C 51.2418,119.541 53.0751,120.707 55.5,121C 56.4939,122.329 57.4939,123.662 58.5,125C 57.2722,127.719 57.9388,129.886 60.5,131.5C 60.7869,133.121 61.7869,134.121 63.5,134.5C 64.5505,133.115 65.8839,132.115 67.5,131.5C 68.5896,132.391 68.5896,133.391 67.5,134.5C 68.5,135.833 69.5,137.167 70.5,138.5C 70.1373,139.183 69.8039,139.85 69.5,140.5C 64.4905,144.007 59.1572,147.007 53.5,149.5C 53.4142,148.504 53.7476,147.671 54.5,147C 52.8994,143.239 52.3994,139.406 53,135.5C 51.3196,136.603 49.8196,136.27 48.5,134.5C 45.751,135.489 43.751,134.489 42.5,131.5C 43.8114,130.742 44.3114,129.742 44,128.5C 42.4157,127.139 40.5824,126.472 38.5,126.5C 37.4561,129.165 36.2895,131.832 35,134.5C 34.6667,133.833 34.3333,133.167 34,132.5C 33.8295,134.715 33.1628,136.715 32,138.5C 31.6667,138.167 31.3333,137.833 31,137.5C 30.6322,138.91 29.7989,139.91 28.5,140.5C 27.8659,138.433 26.8659,136.6 25.5,135C 26.1667,134.667 26.8333,134.333 27.5,134C 26.2702,129.526 27.1035,125.36 30,121.5C 30.3333,123.833 30.6667,126.167 31,128.5C 31.5,127.333 32.3333,126.5 33.5,126C 30.9456,123.731 30.9456,121.398 33.5,119C 29.5443,117.886 29.5443,117.053 33.5,116.5C 33.8867,112.011 34.8867,107.677 36.5,103.5C 36.9052,100.619 37.9052,97.952 39.5,95.5C 38.3162,93.533 38.6495,91.8664 40.5,90.5 Z"/></g>
<g><path style="opacity:1" fill="#a27967" d="M 110.5,117.5 C 109.209,117.737 108.209,117.404 107.5,116.5C 109.857,116.663 112.19,116.497 114.5,116C 112.618,115.802 110.952,115.302 109.5,114.5C 112.498,114.751 114.998,113.751 117,111.5C 120.137,112.945 120.303,114.778 117.5,117C 115.19,117.497 112.857,117.663 110.5,117.5 Z"/></g>
<g><path style="opacity:1" fill="#b89482" d="M 68.5,92.5 C 68.8333,94.8333 70.1667,96.1667 72.5,96.5C 74.1016,98.0739 76.1016,98.7406 78.5,98.5C 75.9017,99.4722 75.9017,100.472 78.5,101.5C 79.4293,102.315 80.4293,103.148 81.5,104C 80.0997,105.438 78.433,106.271 76.5,106.5C 76.0217,109.278 77.0217,111.278 79.5,112.5C 80.0853,116.418 80.0853,120.418 79.5,124.5C 80.8221,124.67 81.9887,124.337 83,123.5C 83.4561,124.744 82.9561,125.577 81.5,126C 83.8912,126.691 83.8912,127.691 81.5,129C 84.2507,129.943 86.9174,130.776 89.5,131.5C 89.5,132.5 89.5,133.5 89.5,134.5C 93.1799,135.572 96.8466,135.572 100.5,134.5C 102,134.453 103,135.119 103.5,136.5C 106.086,137.48 108.753,137.813 111.5,137.5C 112.167,137.5 112.833,137.5 113.5,137.5C 112.833,138.167 112.167,138.833 111.5,139.5C 104.177,140.285 96.8439,140.452 89.5,140C 87.8043,138.824 86.1376,137.657 84.5,136.5C 83.5207,133.843 81.854,133.177 79.5,134.5C 81.0049,135.842 81.6715,137.508 81.5,139.5C 78.4457,138.109 76.279,135.775 75,132.5C 75.0159,136.764 74.1825,140.764 72.5,144.5C 73.2719,148.9 75.6052,152.067 79.5,154C 78.5842,154.278 77.9175,154.778 77.5,155.5C 70.657,151.244 69.3237,145.911 73.5,139.5C 73.5,136.5 73.5,133.5 73.5,130.5C 72.4784,126.777 71.1451,123.11 69.5,119.5C 67.4712,113.687 66.4712,107.687 66.5,101.5C 66.335,98.1501 66.5017,94.8168 67,91.5C 67.3826,92.056 67.8826,92.3893 68.5,92.5 Z"/></g>
<g><path style="opacity:1" fill="#8e554d" d="M 109.5,114.5 C 110.952,115.302 112.618,115.802 114.5,116C 112.19,116.497 109.857,116.663 107.5,116.5C 99.9733,116.291 92.4733,116.624 85,117.5C 83.8333,117.333 82.6667,117.167 81.5,117C 83.6115,116.155 85.6115,115.322 87.5,114.5C 94.7758,111.921 102.109,111.921 109.5,114.5 Z"/></g>
<g><path style="opacity:1" fill="#cca090" d="M 101.5,86.5 C 102.828,89.4971 104.161,92.4971 105.5,95.5C 107.18,97.5274 108.347,99.8608 109,102.5C 110.063,101.562 111.23,100.562 112.5,99.5C 114.743,98.5258 117.076,98.1924 119.5,98.5C 120.492,98.6716 121.158,98.3382 121.5,97.5C 123.38,97.7709 124.713,97.1042 125.5,95.5C 127.531,94.4613 128.864,92.7946 129.5,90.5C 130.655,97.3209 130.821,104.321 130,111.5C 128.54,113.972 127.54,116.639 127,119.5C 124.929,120.103 123.762,121.436 123.5,123.5C 122.5,123.5 121.5,123.5 120.5,123.5C 120.54,126.425 119.707,129.091 118,131.5C 115.637,133.366 113.47,135.366 111.5,137.5C 108.753,137.813 106.086,137.48 103.5,136.5C 103,135.119 102,134.453 100.5,134.5C 96.8466,135.572 93.1799,135.572 89.5,134.5C 89.5,133.5 89.5,132.5 89.5,131.5C 94.6101,129.687 99.9435,128.521 105.5,128C 106.781,125.573 107.781,123.073 108.5,120.5C 106.801,120.66 105.134,120.494 103.5,120C 105.927,119.098 108.26,118.264 110.5,117.5C 112.857,117.663 115.19,117.497 117.5,117C 120.303,114.778 120.137,112.945 117,111.5C 114.998,113.751 112.498,114.751 109.5,114.5C 102.109,111.921 94.7758,111.921 87.5,114.5C 87.6282,112.91 88.2949,111.577 89.5,110.5C 92.8419,109.135 96.1752,108.135 99.5,107.5C 101.679,106.897 103.846,106.23 106,105.5C 106.72,103.888 106.554,102.388 105.5,101C 101.167,100.333 96.8333,100.333 92.5,101C 90.1794,102.713 89.1794,101.88 89.5,98.5C 90.1667,97.5 90.8333,96.5 91.5,95.5C 92.8333,92.5 94.1667,89.5 95.5,86.5C 96.404,85.791 96.7373,84.791 96.5,83.5C 98.9589,83.31 100.626,84.31 101.5,86.5 Z"/></g>
<g><path style="opacity:1" fill="#885e4e" d="M 105.5,95.5 C 106.5,95.5 107.5,95.5 108.5,95.5C 112.25,96.6137 115.917,97.6137 119.5,98.5C 117.076,98.1924 114.743,98.5258 112.5,99.5C 111.23,100.562 110.063,101.562 109,102.5C 108.347,99.8608 107.18,97.5274 105.5,95.5 Z"/></g>
<g><path style="opacity:1" fill="#5c3628" d="M 125.5,95.5 C 124.713,97.1042 123.38,97.7709 121.5,97.5C 122.514,96.3263 123.847,95.6596 125.5,95.5 Z"/></g>
<g><path style="opacity:1" fill="#19150f" d="M 69.5,119.5 C 71.1451,123.11 72.4784,126.777 73.5,130.5C 70.1401,130.384 66.8067,130.051 63.5,129.5C 62.6365,130.463 61.9698,130.463 61.5,129.5C 62.09,128.201 63.09,127.368 64.5,127C 63.3595,126.259 63.3595,125.425 64.5,124.5C 63.3687,123.396 62.5354,123.729 62,125.5C 61.5,124.333 60.6667,123.5 59.5,123C 60.6405,122.259 60.6405,121.425 59.5,120.5C 62.1667,119.5 62.1667,118.5 59.5,117.5C 57.6503,118.242 56.9836,119.242 57.5,120.5C 56.2054,119.902 54.8721,119.402 53.5,119C 54.8333,118.333 54.8333,117.667 53.5,117C 57.2281,116.246 61.2281,115.413 65.5,114.5C 65.3426,117.344 66.676,119.011 69.5,119.5 Z"/></g>
<g><path style="opacity:1" fill="#9c9992" d="M 63.5,129.5 C 66.8067,130.051 70.1401,130.384 73.5,130.5C 73.5,133.5 73.5,136.5 73.5,139.5C 72.1667,139.833 70.8333,140.167 69.5,140.5C 69.8039,139.85 70.1373,139.183 70.5,138.5C 69.5,137.167 68.5,135.833 67.5,134.5C 68.5896,133.391 68.5896,132.391 67.5,131.5C 65.8839,132.115 64.5505,133.115 63.5,134.5C 61.7869,134.121 60.7869,133.121 60.5,131.5C 62.1788,131.715 63.1788,131.048 63.5,129.5 Z"/></g>
<g><path style="opacity:1" fill="#b79c8e" d="M 132.5,84.5 C 132.5,87.1667 132.5,89.8333 132.5,92.5C 131.513,97.3054 131.179,102.305 131.5,107.5C 131.348,113.927 129.682,119.927 126.5,125.5C 126.543,126.416 126.876,127.083 127.5,127.5C 127.5,129.5 127.5,131.5 127.5,133.5C 134.283,138.08 135.283,143.747 130.5,150.5C 130.22,147.728 130.887,145.228 132.5,143C 128.625,139.4 125.625,135.233 123.5,130.5C 122.54,129.717 121.873,128.55 121.5,127C 121.862,125.566 122.528,124.399 123.5,123.5C 123.762,121.436 124.929,120.103 127,119.5C 127.54,116.639 128.54,113.972 130,111.5C 130.821,104.321 130.655,97.3209 129.5,90.5C 130.167,89.1667 130.833,87.8333 131.5,86.5C 131.328,85.5084 131.662,84.8417 132.5,84.5 Z"/></g>
<g><path style="opacity:1" fill="#332821" d="M 127.5,133.5 C 131.296,134.569 134.963,135.902 138.5,137.5C 136.601,144.594 132.935,151.26 127.5,157.5C 125.978,158.562 124.312,159.229 122.5,159.5C 125.851,157.146 128.518,154.146 130.5,150.5C 135.283,143.747 134.283,138.08 127.5,133.5 Z"/></g>
<g><path style="opacity:1" fill="#272626" d="M 138.5,137.5 C 140.299,144.636 138.799,150.969 134,156.5C 131.035,159.459 127.869,162.125 124.5,164.5C 124.167,163.833 123.833,163.167 123.5,162.5C 121.062,164.804 118.229,166.47 115,167.5C 114.055,167.095 113.388,166.428 113,165.5C 112.02,167.059 111.187,168.726 110.5,170.5C 108.189,171.214 106.022,172.214 104,173.5C 102,172.833 100,172.167 98,171.5C 94.015,174.475 89.8484,174.975 85.5,173C 86.1667,172.667 86.8333,172.333 87.5,172C 81.8051,170.61 76.3051,168.777 71,166.5C 69.8869,167.711 68.7202,167.711 67.5,166.5C 66.8333,167.167 66.1667,167.833 65.5,168.5C 65.2333,166.7 64.5666,164.7 63.5,162.5C 66.28,162.055 68.9466,162.055 71.5,162.5C 72.4077,161.21 72.241,159.877 71,158.5C 69.7496,157.427 68.4162,157.427 67,158.5C 66.0497,157.978 65.2164,157.311 64.5,156.5C 61.0534,159.737 57.3868,160.07 53.5,157.5C 53.5442,154.789 53.5442,152.122 53.5,149.5C 59.1572,147.007 64.4905,144.007 69.5,140.5C 70.8333,140.167 72.1667,139.833 73.5,139.5C 69.3237,145.911 70.657,151.244 77.5,155.5C 82.2708,159.219 87.6042,161.885 93.5,163.5C 103.683,165.626 113.35,164.292 122.5,159.5C 124.312,159.229 125.978,158.562 127.5,157.5C 132.935,151.26 136.601,144.594 138.5,137.5 Z"/></g>
<g><path style="opacity:1" fill="#bd957f" d="M 123.5,123.5 C 122.528,124.399 121.862,125.566 121.5,127C 121.873,128.55 122.54,129.717 123.5,130.5C 122.743,134.189 121.743,138.189 120.5,142.5C 116.864,145.952 113.198,150.119 109.5,155C 108.993,157.14 109.493,158.974 111,160.5C 110.586,160.957 110.086,161.291 109.5,161.5C 103.134,158.443 96.8005,158.276 90.5,161C 92.1667,161.333 93.8333,161.667 95.5,162C 94.5842,162.278 93.9175,162.778 93.5,163.5C 87.6042,161.885 82.2708,159.219 77.5,155.5C 77.9175,154.778 78.5842,154.278 79.5,154C 75.6052,152.067 73.2719,148.9 72.5,144.5C 74.1825,140.764 75.0159,136.764 75,132.5C 76.279,135.775 78.4457,138.109 81.5,139.5C 83.6133,142.216 85.6133,145.05 87.5,148C 91.9009,149.739 96.0676,151.905 100,154.5C 103.829,154.172 106.329,152.172 107.5,148.5C 109.576,146.712 111.743,145.046 114,143.5C 113.947,140.387 115.114,137.887 117.5,136C 115.934,135.7 114.601,136.2 113.5,137.5C 112.833,137.5 112.167,137.5 111.5,137.5C 113.47,135.366 115.637,133.366 118,131.5C 119.707,129.091 120.54,126.425 120.5,123.5C 121.5,123.5 122.5,123.5 123.5,123.5 Z"/></g>
<g><path style="opacity:1" fill="#9c755f" d="M 84.5,136.5 C 83.7611,136.369 83.0944,136.536 82.5,137C 87.0684,143.429 93.0684,147.596 100.5,149.5C 106.225,148.475 110.225,145.309 112.5,140C 112.272,139.601 111.938,139.435 111.5,139.5C 112.167,138.833 112.833,138.167 113.5,137.5C 114.601,136.2 115.934,135.7 117.5,136C 115.114,137.887 113.947,140.387 114,143.5C 111.743,145.046 109.576,146.712 107.5,148.5C 106.329,152.172 103.829,154.172 100,154.5C 96.0676,151.905 91.9009,149.739 87.5,148C 85.6133,145.05 83.6133,142.216 81.5,139.5C 81.6715,137.508 81.0049,135.842 79.5,134.5C 81.854,133.177 83.5207,133.843 84.5,136.5 Z"/></g>
<g><path style="opacity:1" fill="#7c5946" d="M 84.5,136.5 C 86.1376,137.657 87.8043,138.824 89.5,140C 96.8439,140.452 104.177,140.285 111.5,139.5C 111.938,139.435 112.272,139.601 112.5,140C 110.225,145.309 106.225,148.475 100.5,149.5C 93.0684,147.596 87.0684,143.429 82.5,137C 83.0944,136.536 83.7611,136.369 84.5,136.5 Z"/></g>
<g><path style="opacity:1" fill="#313638" d="M 157.5,143.5 C 165.242,145.637 172.908,147.97 180.5,150.5C 186.478,154.132 192.478,157.799 198.5,161.5C 198.5,168.833 198.5,176.167 198.5,183.5C 197.674,179.018 197.174,174.351 197,169.5C 196.899,172.7 196.232,175.7 195,178.5C 194.53,176.226 193.53,174.226 192,172.5C 191.51,173.793 191.343,175.127 191.5,176.5C 189.876,176.64 188.71,175.973 188,174.5C 187.296,176.278 186.796,178.112 186.5,180C 187.332,185.82 187.999,191.653 188.5,197.5C 187.833,197.5 187.167,197.5 186.5,197.5C 186.872,188.598 185.705,179.931 183,171.5C 182.044,170.421 181.211,169.255 180.5,168C 175.602,166.991 173.936,164.158 175.5,159.5C 173.956,158.378 172.623,158.711 171.5,160.5C 169.833,159.167 168.167,157.833 166.5,156.5C 165.614,155.675 165.281,154.675 165.5,153.5C 162.104,153.367 161.771,152.367 164.5,150.5C 163.335,149.416 162.002,148.583 160.5,148C 159.778,146.249 158.778,144.749 157.5,143.5 Z"/></g>
<g><path style="opacity:1" fill="#c9a08b" d="M 123.5,130.5 C 125.625,135.233 128.625,139.4 132.5,143C 130.887,145.228 130.22,147.728 130.5,150.5C 128.518,154.146 125.851,157.146 122.5,159.5C 113.35,164.292 103.683,165.626 93.5,163.5C 93.9175,162.778 94.5842,162.278 95.5,162C 93.8333,161.667 92.1667,161.333 90.5,161C 96.8005,158.276 103.134,158.443 109.5,161.5C 110.086,161.291 110.586,160.957 111,160.5C 109.493,158.974 108.993,157.14 109.5,155C 113.198,150.119 116.864,145.952 120.5,142.5C 121.743,138.189 122.743,134.189 123.5,130.5 Z"/></g>
<g><path style="opacity:1" fill="#2d2e32" d="M 138.5,137.5 C 144.935,139.22 151.268,141.22 157.5,143.5C 158.778,144.749 159.778,146.249 160.5,148C 162.002,148.583 163.335,149.416 164.5,150.5C 161.771,152.367 162.104,153.367 165.5,153.5C 165.281,154.675 165.614,155.675 166.5,156.5C 168.167,157.833 169.833,159.167 171.5,160.5C 172.623,158.711 173.956,158.378 175.5,159.5C 173.936,164.158 175.602,166.991 180.5,168C 181.211,169.255 182.044,170.421 183,171.5C 185.705,179.931 186.872,188.598 186.5,197.5C 124.167,197.5 61.8333,197.5 -0.5,197.5C -0.5,196.167 -0.5,194.833 -0.5,193.5C 0.996986,188.179 2.83032,182.846 5,177.5C 9.41585,175.088 13.2492,171.922 16.5,168C 20.8864,165.807 25.2198,163.64 29.5,161.5C 37.5,157.5 45.5,153.5 53.5,149.5C 53.5442,152.122 53.5442,154.789 53.5,157.5C 57.3868,160.07 61.0534,159.737 64.5,156.5C 65.2164,157.311 66.0497,157.978 67,158.5C 68.4162,157.427 69.7496,157.427 71,158.5C 72.241,159.877 72.4077,161.21 71.5,162.5C 68.9466,162.055 66.28,162.055 63.5,162.5C 64.5666,164.7 65.2333,166.7 65.5,168.5C 66.1667,167.833 66.8333,167.167 67.5,166.5C 68.7202,167.711 69.8869,167.711 71,166.5C 76.3051,168.777 81.8051,170.61 87.5,172C 86.8333,172.333 86.1667,172.667 85.5,173C 89.8484,174.975 94.015,174.475 98,171.5C 100,172.167 102,172.833 104,173.5C 106.022,172.214 108.189,171.214 110.5,170.5C 111.187,168.726 112.02,167.059 113,165.5C 113.388,166.428 114.055,167.095 115,167.5C 118.229,166.47 121.062,164.804 123.5,162.5C 123.833,163.167 124.167,163.833 124.5,164.5C 127.869,162.125 131.035,159.459 134,156.5C 138.799,150.969 140.299,144.636 138.5,137.5 Z"/></g>
<g><path style="opacity:1" fill="#23272a" d="M 198.5,183.5 C 198.5,188.167 198.5,192.833 198.5,197.5C 195.167,197.5 191.833,197.5 188.5,197.5C 187.999,191.653 187.332,185.82 186.5,180C 186.796,178.112 187.296,176.278 188,174.5C 188.71,175.973 189.876,176.64 191.5,176.5C 191.343,175.127 191.51,173.793 192,172.5C 193.53,174.226 194.53,176.226 195,178.5C 196.232,175.7 196.899,172.7 197,169.5C 197.174,174.351 197.674,179.018 198.5,183.5 Z"/></g>
</svg>
