<?xml version="1.0" encoding="UTF-8"?>
<!DOCTYPE svg PUBLIC "-//W3C//DTD SVG 1.1//EN" "http://www.w3.org/Graphics/SVG/1.1/DTD/svg11.dtd">
<svg xmlns="http://www.w3.org/2000/svg" version="1.1" width="1024px" height="1024px" style="shape-rendering:geometricPrecision; text-rendering:geometricPrecision; image-rendering:optimizeQuality; fill-rule:evenodd; clip-rule:evenodd" xmlns:xlink="http://www.w3.org/1999/xlink">
<g><path style="opacity:1" fill="#000000" d="M -0.5,-0.5 C 340.833,-0.5 682.167,-0.5 1023.5,-0.5C 1023.5,340.833 1023.5,682.167 1023.5,1023.5C 682.167,1023.5 340.833,1023.5 -0.5,1023.5C -0.5,682.167 -0.5,340.833 -0.5,-0.5 Z"/></g>
<g><path style="opacity:1" fill="#fefefe" d="M 268.5,281.5 C 406.834,281.333 545.167,281.5 683.5,282C 716.288,286.455 739.788,303.621 754,333.5C 768.5,360.667 783,387.833 797.5,415C 658.833,415.667 520.167,415.667 381.5,415C 353.143,410.578 331.643,396.078 317,371.5C 300.554,341.605 284.387,311.605 268.5,281.5 Z"/></g>
<g><path style="opacity:1" fill="#fdfdfd" d="M 343.5,447.5 C 408.834,447.333 474.168,447.5 539.5,448C 564.993,450.825 585.493,462.325 601,482.5C 619.674,515.179 637.841,548.179 655.5,581.5C 566.169,582.667 476.835,582.833 387.5,582C 360.161,579.651 338.328,567.484 322,545.5C 303.738,513.981 286.238,481.981 269.5,449.5C 294.33,448.833 318.997,448.167 343.5,447.5 Z"/></g>
<g><path style="opacity:1" fill="#fefefe" d="M 560.5,747.5 C 542.341,748.497 524.008,748.83 505.5,748.5C 463.832,748.667 422.165,748.5 380.5,748C 353.839,744.263 333.339,731.096 319,708.5C 302.421,677.673 285.587,647.006 268.5,616.5C 329.164,615.333 389.831,615.167 450.5,616C 466.011,617.943 479.678,623.943 491.5,634C 498.739,640.569 505.239,647.735 511,655.5C 528.276,685.716 544.776,716.383 560.5,747.5 Z"/></g>
<g><path style="opacity:1" fill="#2d2c2c" d="M 560.5,747.5 C 561.043,747.56 561.376,747.893 561.5,748.5C 542.671,749.828 524.004,749.828 505.5,748.5C 524.008,748.83 542.341,748.497 560.5,747.5 Z"/></g>
</svg>
