<?xml version="1.0" encoding="UTF-8"?>
<!DOCTYPE svg PUBLIC "-//W3C//DTD SVG 1.1//EN" "http://www.w3.org/Graphics/SVG/1.1/DTD/svg11.dtd">
<svg xmlns="http://www.w3.org/2000/svg" version="1.1" width="853px" height="222px" style="shape-rendering:geometricPrecision; text-rendering:geometricPrecision; image-rendering:optimizeQuality; fill-rule:evenodd; clip-rule:evenodd" xmlns:xlink="http://www.w3.org/1999/xlink">
<g><path style="opacity:0.996" fill="#000000" d="M -0.5,-0.5 C 283.833,-0.5 568.167,-0.5 852.5,-0.5C 852.5,73.5 852.5,147.5 852.5,221.5C 568.167,221.5 283.833,221.5 -0.5,221.5C -0.5,147.5 -0.5,73.5 -0.5,-0.5 Z"/></g>
<g><path style="opacity:1" fill="#484848" d="M 162.5,13.5 C 111.997,13.1678 61.6639,13.5011 11.5,14.5C 10.9569,14.44 10.6236,14.1067 10.5,13.5C 61.3317,12.1688 111.998,12.1688 162.5,13.5 Z"/></g>
<g><path style="opacity:1" fill="#fefefe" d="M 162.5,13.5 C 174.15,14.2954 183.65,19.2954 191,28.5C 199.709,42.0855 208.542,55.5855 217.5,69C 164.122,69.9826 110.788,69.6493 57.5,68C 49.0233,65.5283 42.19,60.695 37,53.5C 28.6706,40.3473 20.1706,27.3473 11.5,14.5C 61.6639,13.5011 111.997,13.1678 162.5,13.5 Z"/></g>
<g><path style="opacity:1" fill="#fdfdfd" d="M 405.5,48.5 C 414.453,48.1584 423.119,49.4918 431.5,52.5C 430.273,59.0758 428.273,65.4091 425.5,71.5C 410.523,69.482 404.19,76.1487 406.5,91.5C 413.833,91.5 421.167,91.5 428.5,91.5C 428.5,99.1667 428.5,106.833 428.5,114.5C 421.167,114.5 413.833,114.5 406.5,114.5C 406.5,142.5 406.5,170.5 406.5,198.5C 397.5,198.5 388.5,198.5 379.5,198.5C 379.5,170.5 379.5,142.5 379.5,114.5C 374.5,114.5 369.5,114.5 364.5,114.5C 364.5,106.833 364.5,99.1667 364.5,91.5C 369.5,91.5 374.5,91.5 379.5,91.5C 375.279,68.8878 383.945,54.5545 405.5,48.5 Z"/></g>
<g><path style="opacity:1" fill="#fdfdfd" d="M 267.5,52.5 C 298.833,52.5 330.167,52.5 361.5,52.5C 361.5,61.1667 361.5,69.8333 361.5,78.5C 339.167,78.5 316.833,78.5 294.5,78.5C 294.5,91.8333 294.5,105.167 294.5,118.5C 313.5,118.5 332.5,118.5 351.5,118.5C 351.5,126.833 351.5,135.167 351.5,143.5C 332.5,143.5 313.5,143.5 294.5,143.5C 294.5,161.833 294.5,180.167 294.5,198.5C 285.5,198.5 276.5,198.5 267.5,198.5C 267.5,149.833 267.5,101.167 267.5,52.5 Z"/></g>
<g><path style="opacity:1" fill="#fefefe" d="M 10.5,83.5 C 45.6643,82.3357 80.9976,82.169 116.5,83C 127.091,84.7127 135.591,89.8794 142,98.5C 150.5,111.667 159,124.833 167.5,138C 130.128,138.968 92.7946,138.635 55.5,137C 48.1808,134.089 42.0141,129.589 37,123.5C 28.3037,109.99 19.4703,96.6571 10.5,83.5 Z"/></g>
<g><path style="opacity:1" fill="#fcfcfc" d="M 476.5,91.5 C 499.609,88.146 519.109,94.8127 535,111.5C 550.233,134.483 550.233,157.483 535,180.5C 519.358,196.881 500.191,203.381 477.5,200C 445.109,193.384 429.275,173.551 430,140.5C 434.778,113.891 450.278,97.5577 476.5,91.5 Z"/></g>
<g><path style="opacity:1" fill="#fcfcfc" d="M 783.5,91.5 C 811.976,88.1327 830.809,99.7994 840,126.5C 841.346,135.441 841.846,144.441 841.5,153.5C 816.5,153.5 791.5,153.5 766.5,153.5C 768.107,167.276 775.774,175.443 789.5,178C 806.742,179.983 822.242,175.816 836,165.5C 836.667,174.167 836.667,182.833 836,191.5C 810.659,204.789 785.492,204.622 760.5,191C 740.692,172.607 734.859,150.44 743,124.5C 750.756,106.226 764.256,95.2256 783.5,91.5 Z"/></g>
<g><path style="opacity:1" fill="#656565" d="M 659.5,93.5 C 649.652,93.1729 639.986,93.5062 630.5,94.5C 629.957,94.44 629.624,94.1067 629.5,93.5C 639.659,92.1771 649.659,92.1771 659.5,93.5 Z"/></g>
<g><path style="opacity:1" fill="#fcfcfc" d="M 560.5,93.5 C 569.5,93.5 578.5,93.5 587.5,93.5C 587.334,99.5092 587.501,105.509 588,111.5C 596.183,97.6587 608.35,91.6587 624.5,93.5C 624.5,102.5 624.5,111.5 624.5,120.5C 617.492,120.334 610.492,120.5 603.5,121C 596.819,123.013 591.986,127.18 589,133.5C 587.544,155.447 587.044,177.447 587.5,199.5C 578.5,199.5 569.5,199.5 560.5,199.5C 560.5,164.167 560.5,128.833 560.5,93.5 Z"/></g>
<g><path style="opacity:1" fill="#fbfbfb" d="M 659.5,93.5 C 668.226,118.843 677.059,144.176 686,169.5C 695.649,144.725 704.815,119.725 713.5,94.5C 723.483,93.3344 733.483,93.1678 743.5,94C 729.5,129 715.5,164 701.5,199C 691.483,199.832 681.483,199.666 671.5,198.5C 657.82,163.812 644.154,129.145 630.5,94.5C 639.986,93.5062 649.652,93.1729 659.5,93.5 Z"/></g>
<g><path style="opacity:1" fill="#020202" d="M 787.5,113.5 C 802.503,112.497 812.17,119.164 816.5,133.5C 800.167,134.833 783.833,134.833 767.5,133.5C 770.56,123.106 777.227,116.44 787.5,113.5 Z"/></g>
<g><path style="opacity:1" fill="#010101" d="M 481.5,115.5 C 507.51,114.344 520.01,126.677 519,152.5C 516.279,165.554 508.446,173.721 495.5,177C 469.03,179.197 456.197,167.03 457,140.5C 460.014,126.987 468.181,118.653 481.5,115.5 Z"/></g>
<g><path style="opacity:1" fill="#fdfdfd" d="M 9.5,153.5 C 35.9968,152.336 62.6635,152.17 89.5,153C 99.0553,154.527 106.889,159.027 113,166.5C 122.167,180.333 131.333,194.167 140.5,208C 113.5,208.667 86.5,208.667 59.5,208C 50.3676,206.185 42.8676,201.685 37,194.5C 27.9703,180.656 18.8037,166.99 9.5,153.5 Z"/></g>
</svg>
