<?xml version="1.0" encoding="UTF-8"?>
<!DOCTYPE svg PUBLIC "-//W3C//DTD SVG 1.1//EN" "http://www.w3.org/Graphics/SVG/1.1/DTD/svg11.dtd">
<svg xmlns="http://www.w3.org/2000/svg" version="1.1" width="1024px" height="1024px" style="shape-rendering:geometricPrecision; text-rendering:geometricPrecision; image-rendering:optimizeQuality; fill-rule:evenodd; clip-rule:evenodd" xmlns:xlink="http://www.w3.org/1999/xlink">
<g><path style="opacity:1" fill="#000000" d="M -0.5,-0.5 C 340.833,-0.5 682.167,-0.5 1023.5,-0.5C 1023.5,340.833 1023.5,682.167 1023.5,1023.5C 682.167,1023.5 340.833,1023.5 -0.5,1023.5C -0.5,682.167 -0.5,340.833 -0.5,-0.5 Z"/></g>
<g><path style="opacity:1" fill="#fefefe" d="M 501.5,159.5 C 562.37,155.28 612.536,176.28 652,222.5C 663.729,241.52 660.896,258.02 643.5,272C 631.317,278.277 619.317,277.943 607.5,271C 598.102,260.933 588.102,251.6 577.5,243C 545.995,222.839 512.995,220.173 478.5,235C 468.624,240.103 459.624,246.437 451.5,254C 385.387,321.446 318.554,388.279 251,454.5C 225.59,484.564 219.59,518.231 233,555.5C 253.867,599.524 288.7,619.691 337.5,616C 356.679,613.503 373.679,606.17 388.5,594C 401.833,580.667 415.167,567.333 428.5,554C 436.89,547.884 446.224,545.884 456.5,548C 472.17,553.148 480.837,563.982 482.5,580.5C 481.929,589.05 479.096,596.717 474,603.5C 459.529,616.971 445.362,630.804 431.5,645C 387.971,679.444 338.971,690.444 284.5,678C 228.413,661.58 189.913,626.08 169,571.5C 150.784,513.771 160.451,461.437 198,414.5C 270.194,342.639 342.027,270.473 413.5,198C 439.238,176.922 468.571,164.088 501.5,159.5 Z"/></g>
<g><path style="opacity:1" fill="#fefefe" d="M 513.5,283.5 C 532.976,280.98 546.476,288.647 554,306.5C 557.369,319.023 555.035,330.356 547,340.5C 527.613,359.887 508.279,379.221 489,398.5C 482.783,410.348 483.116,422.015 490,433.5C 524.861,468.028 559.361,502.861 593.5,538C 605.003,545.922 617.003,546.588 629.5,540C 650.5,519 671.5,498 692.5,477C 710.008,466.724 725.841,468.891 740,483.5C 749.946,498.49 749.946,513.49 740,528.5C 674.833,593.667 609.667,658.833 544.5,724C 526.945,734.354 511.111,732.187 497,717.5C 488.105,702.935 488.438,688.601 498,674.5C 516,656.5 534,638.5 552,620.5C 558.53,608.399 557.864,596.732 550,585.5C 514.833,550.333 479.667,515.167 444.5,480C 433.25,472.281 421.583,471.614 409.5,478C 385.861,500.638 362.528,523.638 339.5,547C 322.582,557.038 307.082,555.205 293,541.5C 283.107,526.808 283.107,512.141 293,497.5C 362.167,428.333 431.333,359.167 500.5,290C 504.647,287.26 508.98,285.093 513.5,283.5 Z"/></g>
<g><path style="opacity:1" fill="#fefefe" d="M 691.5,346.5 C 755.214,342.285 806.381,365.285 845,415.5C 873.966,458.636 881.299,505.303 867,555.5C 859.958,576.925 849.291,596.259 835,613.5C 768.167,680.333 701.333,747.167 634.5,814C 583.972,858.311 527.305,868.311 464.5,844C 451.327,837.586 438.994,829.919 427.5,821C 417.029,811.53 406.863,801.697 397,791.5C 386.674,774.238 388.841,758.738 403.5,745C 415.907,736.691 428.574,736.357 441.5,744C 451.935,755.44 463.268,765.774 475.5,775C 514.495,797.143 552.161,795.143 588.5,769C 652.333,705.167 716.167,641.333 780,577.5C 809.125,544.867 815.458,508.2 799,467.5C 775.161,424.165 738.661,406.332 689.5,414C 677.616,417.11 666.616,422.11 656.5,429C 641.533,441.633 627.533,455.3 614.5,470C 595.327,480.212 579.16,476.712 566,459.5C 559.683,447.308 560.016,435.308 567,423.5C 584.309,403.52 603.475,385.686 624.5,370C 645.362,357.659 667.696,349.825 691.5,346.5 Z"/></g>
</svg>
