<?xml version="1.0" encoding="UTF-8"?>
<!DOCTYPE svg PUBLIC "-//W3C//DTD SVG 1.1//EN" "http://www.w3.org/Graphics/SVG/1.1/DTD/svg11.dtd">
<svg xmlns="http://www.w3.org/2000/svg" version="1.1" width="762px" height="244px" style="shape-rendering:geometricPrecision; text-rendering:geometricPrecision; image-rendering:optimizeQuality; fill-rule:evenodd; clip-rule:evenodd" xmlns:xlink="http://www.w3.org/1999/xlink">
<g><path style="opacity:0.998" fill="#070707" d="M -0.5,-0.5 C 253.5,-0.5 507.5,-0.5 761.5,-0.5C 761.5,80.8333 761.5,162.167 761.5,243.5C 507.5,243.5 253.5,243.5 -0.5,243.5C -0.5,162.167 -0.5,80.8333 -0.5,-0.5 Z"/></g>
<g><path style="opacity:1" fill="#fbfbfb" d="M 117.5,14.5 C 136.836,12.4286 152.669,18.7619 165,33.5C 168.668,42.1656 166.001,47.499 157,49.5C 154.268,49.3852 151.768,48.5519 149.5,47C 138.812,35.1628 126.146,32.4962 111.5,39C 88.0281,61.4716 64.8614,84.3049 42,107.5C 31.7863,123.583 33.953,137.75 48.5,150C 59.1667,156 69.8333,156 80.5,150C 85.4675,146.034 90.1342,141.701 94.5,137C 103.519,132.561 109.186,135.228 111.5,145C 111.066,147.634 110.233,150.134 109,152.5C 87.2879,178.227 62.1212,182.393 33.5,165C 16.0854,149.177 10.9187,130.011 18,107.5C 20.5419,101.635 23.8752,96.3014 28,91.5C 49.8333,69.6667 71.6667,47.8333 93.5,26C 100.71,20.3293 108.71,16.496 117.5,14.5 Z"/></g>
<g><path style="opacity:1" fill="#fafafa" d="M 123.5,53.5 C 134.823,55.1446 137.99,61.1446 133,71.5C 126.592,77.2375 120.925,83.5709 116,90.5C 115.333,93.5 115.333,96.5 116,99.5C 125.446,108.946 134.946,118.446 144.5,128C 150.167,131.333 155.833,131.333 161.5,128C 167.167,122.333 172.833,116.667 178.5,111C 190.474,107.733 195.641,112.233 194,124.5C 193,126.167 192,127.833 191,129.5C 171.167,149.333 151.333,169.167 131.5,189C 125.209,194.01 119.376,193.51 114,187.5C 111.961,183.013 112.294,178.68 115,174.5C 121.792,168.714 127.459,162.048 132,154.5C 132.738,150.739 132.405,147.072 131,143.5C 121.863,135.364 113.03,126.864 104.5,118C 98.5,114.667 92.5,114.667 86.5,118C 80.8021,124.032 74.8021,129.699 68.5,135C 55.3394,135.536 51.5061,129.703 57,117.5C 77.5,97 98,76.5 118.5,56C 120.315,55.2432 121.981,54.4098 123.5,53.5 Z"/></g>
<g><path style="opacity:1" fill="#fcfcfc" d="M 430.5,110.5 C 426.167,110.5 421.833,110.5 417.5,110.5C 417.5,129.5 417.5,148.5 417.5,167.5C 411.833,167.5 406.167,167.5 400.5,167.5C 400.5,148.833 400.5,130.167 400.5,111.5C 396.5,111.5 392.5,111.5 388.5,111.5C 388.5,106.5 388.5,101.5 388.5,96.5C 392.5,96.5 396.5,96.5 400.5,96.5C 398.485,74.5184 408.485,65.1851 430.5,68.5C 430.5,73.1667 430.5,77.8333 430.5,82.5C 419.405,80.6335 415.071,85.3001 417.5,96.5C 421.833,96.5 426.167,96.5 430.5,96.5C 430.5,101.167 430.5,105.833 430.5,110.5 Z"/></g>
<g><path style="opacity:1" fill="#f7f7f7" d="M 668.5,68.5 C 678.492,67.3271 682.992,71.6604 682,81.5C 676.847,89.7882 670.847,90.4549 664,83.5C 661.392,77.1631 662.892,72.1631 668.5,68.5 Z"/></g>
<g><path style="opacity:1" fill="#fbfbfb" d="M 174.5,69.5 C 205.855,66.9116 226.022,80.5783 235,110.5C 237.246,125.281 233.913,138.614 225,150.5C 201.5,174 178,197.5 154.5,221C 133.833,235 113.167,235 92.5,221C 89.6667,218.167 86.8333,215.333 84,212.5C 78.8667,200.643 82.7,195.143 95.5,196C 99.8333,199.667 104.167,203.333 108.5,207C 118.167,211.667 127.833,211.667 137.5,207C 157.053,188.112 176.553,169.278 196,150.5C 201.709,144.46 207.043,138.126 212,131.5C 217.624,114.705 212.791,101.872 197.5,93C 179.009,87.5702 164.342,92.9035 153.5,109C 144.435,113.427 138.769,110.76 136.5,101C 136.615,98.2682 137.448,95.7682 139,93.5C 148.371,81.5901 160.205,73.5901 174.5,69.5 Z"/></g>
<g><path style="opacity:1" fill="#fbfbfb" d="M 289.5,71.5 C 295.5,71.5 301.5,71.5 307.5,71.5C 307.5,103.5 307.5,135.5 307.5,167.5C 301.5,167.5 295.5,167.5 289.5,167.5C 289.5,135.5 289.5,103.5 289.5,71.5 Z"/></g>
<g><path style="opacity:1" fill="#f8f8f8" d="M 350.5,95.5 C 364.979,93.322 375.479,98.6554 382,111.5C 383.448,130.112 383.948,148.778 383.5,167.5C 377.5,167.5 371.5,167.5 365.5,167.5C 365.667,151.163 365.5,134.83 365,118.5C 359.595,110.186 352.428,108.352 343.5,113C 341.383,114.731 339.883,116.898 339,119.5C 338.5,135.497 338.333,151.497 338.5,167.5C 332.5,167.5 326.5,167.5 320.5,167.5C 320.5,143.833 320.5,120.167 320.5,96.5C 326.167,96.5 331.833,96.5 337.5,96.5C 337.335,99.8499 337.502,103.183 338,106.5C 341.124,101.536 345.291,97.8696 350.5,95.5 Z"/></g>
<g><path style="opacity:1" fill="#fafafa" d="M 460.5,95.5 C 488.943,94.2751 502.943,107.942 502.5,136.5C 485.167,136.5 467.833,136.5 450.5,136.5C 454.133,151.488 463.466,156.988 478.5,153C 481.167,151.667 483.167,149.667 484.5,147C 490.196,146.17 495.863,146.337 501.5,147.5C 497.381,160.072 488.715,167.239 475.5,169C 452.142,170.916 438.308,160.416 434,137.5C 432.17,116.543 441.003,102.543 460.5,95.5 Z"/></g>
<g><path style="opacity:1" fill="#f8f8f8" d="M 540.5,95.5 C 544.167,95.5 547.833,95.5 551.5,95.5C 551.5,100.833 551.5,106.167 551.5,111.5C 537.463,109.578 529.963,115.578 529,129.5C 528.5,142.162 528.333,154.829 528.5,167.5C 522.833,167.5 517.167,167.5 511.5,167.5C 511.5,143.833 511.5,120.167 511.5,96.5C 517.167,96.5 522.833,96.5 528.5,96.5C 528.334,100.514 528.501,104.514 529,108.5C 531.3,102.706 535.133,98.373 540.5,95.5 Z"/></g>
<g><path style="opacity:1" fill="#fafafa" d="M 580.5,95.5 C 589.945,94.5594 598.945,96.0594 607.5,100C 612.252,103.414 615.419,107.914 617,113.5C 617.5,131.497 617.667,149.497 617.5,167.5C 612.786,167.827 608.12,167.493 603.5,166.5C 602.366,163.93 601.532,161.264 601,158.5C 590.025,170.814 577.525,172.647 563.5,164C 556.022,155.535 554.522,146.035 559,135.5C 561.264,132.567 564.098,130.4 567.5,129C 577.821,127.446 588.155,126.113 598.5,125C 601.64,119.084 600.307,114.418 594.5,111C 585.552,107.485 578.552,109.652 573.5,117.5C 568.544,118.494 563.544,118.827 558.5,118.5C 560.373,105.627 567.706,97.9604 580.5,95.5 Z"/></g>
<g><path style="opacity:1" fill="#fafafa" d="M 712.5,95.5 C 725.747,93.2611 736.913,96.9278 746,106.5C 748.631,110.089 749.797,114.089 749.5,118.5C 744.167,118.5 738.833,118.5 733.5,118.5C 733.683,116.064 733.016,113.897 731.5,112C 725.31,108.019 718.977,107.686 712.5,111C 708.607,114.588 708.607,118.254 712.5,122C 720.718,124.46 729.052,126.46 737.5,128C 751.146,134.603 754.646,144.769 748,158.5C 738.449,168.02 726.949,171.52 713.5,169C 700.049,166.721 692.716,158.888 691.5,145.5C 696.833,145.5 702.167,145.5 707.5,145.5C 707.253,148.505 708.253,151.005 710.5,153C 719.039,158.159 726.873,157.326 734,150.5C 735.538,145.88 734.038,142.713 729.5,141C 720.306,139.401 711.306,137.068 702.5,134C 693.768,127.461 691.268,118.961 695,108.5C 699.38,102.075 705.213,97.7414 712.5,95.5 Z"/></g>
<g><path style="opacity:1" fill="#fcfcfc" d="M 664.5,96.5 C 670.167,96.5 675.833,96.5 681.5,96.5C 681.957,124.542 681.457,152.542 680,180.5C 673.924,191.365 664.757,195.365 652.5,192.5C 652.5,187.833 652.5,183.167 652.5,178.5C 655.607,178.649 658.607,178.149 661.5,177C 662.893,175.829 663.727,174.329 664,172.5C 664.5,147.169 664.667,121.836 664.5,96.5 Z"/></g>
<g><path style="opacity:1" fill="#080808" d="M 464.5,110.5 C 476.239,109.262 483.572,114.262 486.5,125.5C 474.833,125.5 463.167,125.5 451.5,125.5C 453.363,118.307 457.697,113.307 464.5,110.5 Z"/></g>
<g><path style="opacity:1" fill="#626262" d="M 430.5,110.5 C 426.702,111.483 422.702,111.817 418.5,111.5C 418.83,130.341 418.497,149.007 417.5,167.5C 417.5,148.5 417.5,129.5 417.5,110.5C 421.833,110.5 426.167,110.5 430.5,110.5 Z"/></g>
<g><path style="opacity:1" fill="#0c0c0c" d="M 585.5,136.5 C 590.5,136.5 595.5,136.5 600.5,136.5C 599.8,153.519 591.466,159.019 575.5,153C 571.607,148.591 571.607,144.258 575.5,140C 578.776,138.308 582.109,137.141 585.5,136.5 Z"/></g>
<g><path style="opacity:1" fill="#f5f5f5" d="M 637.5,147.5 C 650.753,148.919 654.086,155.419 647.5,167C 639.171,171.415 633.337,169.249 630,160.5C 629.419,154.322 631.919,149.988 637.5,147.5 Z"/></g>
</svg>
