<?xml version="1.0" encoding="UTF-8"?>
<!DOCTYPE svg PUBLIC "-//W3C//DTD SVG 1.1//EN" "http://www.w3.org/Graphics/SVG/1.1/DTD/svg11.dtd">
<svg xmlns="http://www.w3.org/2000/svg" version="1.1" width="577px" height="169px" style="shape-rendering:geometricPrecision; text-rendering:geometricPrecision; image-rendering:optimizeQuality; fill-rule:evenodd; clip-rule:evenodd" xmlns:xlink="http://www.w3.org/1999/xlink">
<g><path style="opacity:0.994" fill="#050505" d="M -0.5,-0.5 C 191.833,-0.5 384.167,-0.5 576.5,-0.5C 576.5,55.8333 576.5,112.167 576.5,168.5C 384.167,168.5 191.833,168.5 -0.5,168.5C -0.5,112.167 -0.5,55.8333 -0.5,-0.5 Z"/></g>
<g><path style="opacity:1" fill="#007148" d="M 84.5,19.5 C 104.326,18.5029 124.326,18.1695 144.5,18.5C 144.813,22.0419 144.479,25.3752 143.5,28.5C 143.5,25.5 143.5,22.5 143.5,19.5C 123.833,19.5 104.167,19.5 84.5,19.5 Z"/></g>
<g><path style="opacity:1" fill="#00603d" d="M 15.5,77.5 C 14.5029,58.0071 14.1696,38.3404 14.5,18.5C 34.8333,18.5 55.1667,18.5 75.5,18.5C 75.5,38.5 75.5,58.5 75.5,78.5C 55.3264,78.8305 35.3264,78.4971 15.5,77.5 Z"/></g>
<g><path style="opacity:1" fill="#00a668" d="M 15.5,77.5 C 15.5,58.1667 15.5,38.8333 15.5,19.5C 35.1667,19.5 54.8333,19.5 74.5,19.5C 74.5,38.8333 74.5,58.1667 74.5,77.5C 54.8333,77.5 35.1667,77.5 15.5,77.5 Z"/></g>
<g><path style="opacity:1" fill="#00a568" d="M 84.5,19.5 C 104.167,19.5 123.833,19.5 143.5,19.5C 143.5,22.5 143.5,25.5 143.5,28.5C 137.989,62.0195 118.322,78.3528 84.5,77.5C 84.5,58.1667 84.5,38.8333 84.5,19.5 Z"/></g>
<g><path style="opacity:1" fill="#f7f7f7" d="M 281.5,32.5 C 284.85,32.335 288.183,32.5017 291.5,33C 298.698,37.3935 299.365,42.7268 293.5,49C 288.056,51.284 282.89,50.784 278,47.5C 274.018,41.2348 275.185,36.2348 281.5,32.5 Z"/></g>
<g><path style="opacity:1" fill="#f8f8f8" d="M 476.5,32.5 C 481.511,32.3341 486.511,32.5007 491.5,33C 494.624,33.4791 497.457,34.6457 500,36.5C 500.804,41.7513 500.637,46.918 499.5,52C 495.285,50.5793 490.952,49.0793 486.5,47.5C 483.164,47.9977 480.83,49.831 479.5,53C 480.154,54.987 481.487,56.3203 483.5,57C 489.196,57.1701 494.862,57.6701 500.5,58.5C 502.1,62.5883 501.766,66.4217 499.5,70C 492.93,69.7189 486.43,69.8856 480,70.5C 479.891,89.1827 480.224,107.849 481,126.5C 475.351,128.488 469.518,128.988 463.5,128C 461.939,127.682 460.772,126.849 460,125.5C 459.5,106.836 459.333,88.1696 459.5,69.5C 449.011,71.1951 446.011,67.3618 450.5,58C 453.817,57.5017 457.15,57.335 460.5,57.5C 459.063,44.6837 464.397,36.3504 476.5,32.5 Z"/></g>
<g><path style="opacity:1" fill="#f8f8f8" d="M 532.5,32.5 C 537.511,32.3341 542.511,32.5007 547.5,33C 550.624,33.4791 553.457,34.6457 556,36.5C 556.804,41.7513 556.637,46.918 555.5,52C 551.285,50.5793 546.952,49.0793 542.5,47.5C 539.164,47.9977 536.83,49.831 535.5,53C 536.154,54.987 537.487,56.3203 539.5,57C 545.196,57.1701 550.862,57.6701 556.5,58.5C 558.1,62.5883 557.766,66.4217 555.5,70C 548.93,69.7189 542.43,69.8856 536,70.5C 535.891,89.1827 536.224,107.849 537,126.5C 531.351,128.488 525.518,128.988 519.5,128C 517.939,127.682 516.772,126.849 516,125.5C 515.5,106.836 515.333,88.1696 515.5,69.5C 505.011,71.1951 502.011,67.3618 506.5,58C 509.817,57.5017 513.15,57.335 516.5,57.5C 515.063,44.6837 520.397,36.3504 532.5,32.5 Z"/></g>
<g><path style="opacity:1" fill="#f9f9f9" d="M 191.5,36.5 C 197.176,36.3339 202.843,36.5006 208.5,37C 209,37.5 209.5,38 210,38.5C 208.693,47.0714 208.36,55.738 209,64.5C 210.788,67.6281 213.455,68.9614 217,68.5C 225.3,67.8792 231.967,64.2125 237,57.5C 240.429,50.8698 243.263,44.0365 245.5,37C 251.5,36.3333 257.5,36.3333 263.5,37C 266.518,49.6959 262.851,60.3625 252.5,69C 246.258,72.1323 239.924,74.9656 233.5,77.5C 240.823,80.3424 248.157,83.5091 255.5,87C 267.713,97.969 272.047,111.302 268.5,127C 261.167,129 253.833,129 246.5,127C 246,126.5 245.5,126 245,125.5C 243.696,110.381 236.862,98.548 224.5,90C 220.62,88.3601 216.62,87.6934 212.5,88C 210.951,89.214 209.785,90.714 209,92.5C 209.407,103.829 209.74,115.162 210,126.5C 209.25,127.126 208.416,127.626 207.5,128C 204.833,128.167 202.167,128.333 199.5,128.5C 195.471,128.68 191.638,128.014 188,126.5C 187.636,98.4955 187.969,70.4955 189,42.5C 189.236,40.1887 190.069,38.1887 191.5,36.5 Z"/></g>
<g><path style="opacity:1" fill="#fafafa" d="M 403.5,56.5 C 416.432,54.4836 428.099,57.3169 438.5,65C 451.373,80.699 452.873,97.5324 443,115.5C 430.118,128.452 414.951,131.952 397.5,126C 383.184,119.711 376.517,108.711 377.5,93C 377.069,74.2758 385.736,62.1091 403.5,56.5 Z"/></g>
<g><path style="opacity:1" fill="#f8f8f8" d="M 280.5,56.5 C 284.514,56.3345 288.514,56.5012 292.5,57C 294.993,58.3246 296.16,60.4913 296,63.5C 296.667,84.5 296.667,105.5 296,126.5C 291.004,128.379 285.838,128.879 280.5,128C 279.069,127.535 277.903,126.701 277,125.5C 276.18,103.48 276.513,81.4802 278,59.5C 279.045,58.6266 279.878,57.6266 280.5,56.5 Z"/></g>
<g><path style="opacity:1" fill="#f9f9f9" d="M 305.5,56.5 C 310.844,56.334 316.177,56.5006 321.5,57C 322.333,57.8333 323.167,58.6667 324,59.5C 325.87,76.3133 330.537,92.3133 338,107.5C 339.333,108.833 340.667,108.833 342,107.5C 349.463,92.3133 354.13,76.3133 356,59.5C 356.833,58.6667 357.667,57.8333 358.5,57C 363.833,56.3333 369.167,56.3333 374.5,57C 377.2,57.9492 378.033,59.7825 377,62.5C 371.58,82.0934 364.58,101.093 356,119.5C 354.533,122.266 352.7,124.766 350.5,127C 344.277,128.581 337.944,128.915 331.5,128C 329.998,127.417 328.665,126.584 327.5,125.5C 316.225,105.015 307.892,83.348 302.5,60.5C 302.787,58.5567 303.787,57.2233 305.5,56.5 Z"/></g>
<g><path style="opacity:1" fill="#0c0c0c" d="M 408.5,71.5 C 425.54,71.7237 432.707,80.3903 430,97.5C 427.715,109.395 420.549,114.562 408.5,113C 396.724,106.472 392.89,96.6388 397,83.5C 399.045,77.6244 402.878,73.6244 408.5,71.5 Z"/></g>
<g><path style="opacity:1" fill="#00a467" d="M 84.5,87.5 C 118.403,88.561 138.236,105.894 144,139.5C 144.499,143.152 144.665,146.818 144.5,150.5C 124.5,150.5 104.5,150.5 84.5,150.5C 84.5,129.5 84.5,108.5 84.5,87.5 Z"/></g>
<g><path style="opacity:1" fill="#00a668" d="M 15.5,87.5 C 35.1667,87.5 54.8333,87.5 74.5,87.5C 74.5,108.5 74.5,129.5 74.5,150.5C 54.8333,150.5 35.1667,150.5 15.5,150.5C 15.5,129.5 15.5,108.5 15.5,87.5 Z"/></g>
<g><path style="opacity:1" fill="#00623d" d="M 15.5,87.5 C 35.3264,86.5029 55.3264,86.1695 75.5,86.5C 75.8306,108.007 75.4973,129.34 74.5,150.5C 74.5,129.5 74.5,108.5 74.5,87.5C 54.8333,87.5 35.1667,87.5 15.5,87.5 Z"/></g>
</svg>
