<svg width="800" height="200" version="1.1" xmlns="http://www.w3.org/2000/svg" desc="Created with imagetracer.js version 1.2.6" ><path fill="rgb(206,206,206)" stroke="rgb(206,206,206)" stroke-width="1" opacity="1" d="M 101 15 L 180.5 15 L 181 15.5 L 181 22.5 L 180 22.5 Q 180.8 16.3 179.5 16 L 102 16 L 102 93.5 L 103 94.5 L 101 93.5 L 101 15 Z " /><path fill="rgb(206,206,206)" stroke="rgb(206,206,206)" stroke-width="1" opacity="1" d="M 17.5 16 L 18 94 L 58 94.5 L 18.5 95 L 17 93.5 L 17.5 16 Z " /><path fill="rgb(206,206,206)" stroke="rgb(206,206,206)" stroke-width="1" opacity="1" d="M 179.5 27 L 180 29.5 L 179 29.5 L 179.5 27 Z " /><path fill="rgb(206,206,206)" stroke="rgb(206,206,206)" stroke-width="1" opacity="1" d="M 396.5 30 L 399 30.5 L 396.5 31 L 396.5 30 Z " /><path fill="rgb(206,206,206)" stroke="rgb(206,206,206)" stroke-width="1" opacity="1" d="M 672.5 30 L 676 30.5 L 672.5 31 L 672.5 30 Z " /><path fill="rgb(206,206,206)" stroke="rgb(206,206,206)" stroke-width="1" opacity="1" d="M 751.5 30 L 755 30.5 L 751.5 31 L 751.5 30 Z " /><path fill="rgb(206,206,206)" stroke="rgb(206,206,206)" stroke-width="1" opacity="1" d="M 681.5 31 L 684 31.5 L 681.5 32 L 681.5 31 Z " /><path fill="rgb(206,206,206)" stroke="rgb(206,206,206)" stroke-width="1" opacity="1" d="M 742.5 31 L 745 31.5 L 742.5 32 L 742.5 31 Z " /><path fill="rgb(206,206,206)" stroke="rgb(206,206,206)" stroke-width="1" opacity="1" d="M 760.5 31 L 763 31.5 L 760.5 32 L 760.5 31 Z " /><path fill="rgb(206,206,206)" stroke="rgb(206,206,206)" stroke-width="1" opacity="1" d="M 384.5 32 L 383.5 34 L 384.5 32 Z " /><path fill="rgb(206,206,206)" stroke="rgb(206,206,206)" stroke-width="1" opacity="1" d="M 404.5 33 L 406.5 36 L 404.5 33 Z " /><path fill="rgb(206,206,206)" stroke="rgb(206,206,206)" stroke-width="1" opacity="1" d="M 177.5 35 L 178 37.5 L 177 37.5 L 177.5 35 Z " /><path fill="rgb(206,206,206)" stroke="rgb(206,206,206)" stroke-width="1" opacity="1" d="M 731.5 35 L 730.5 37 L 731.5 35 Z " /><path fill="rgb(206,206,206)" stroke="rgb(206,206,206)" stroke-width="1" opacity="1" d="M 773.5 35 L 774.5 37 L 773.5 35 Z " /><path fill="rgb(206,206,206)" stroke="rgb(206,206,206)" stroke-width="1" opacity="1" d="M 264.5 36 L 278 36.5 L 264.5 37 L 264.5 36 Z " /><path fill="rgb(206,206,206)" stroke="rgb(206,206,206)" stroke-width="1" opacity="1" d="M 339.5 36 L 358 36.5 L 339.5 37 L 339.5 36 Z " /><path fill="rgb(206,206,206)" stroke="rgb(206,206,206)" stroke-width="1" opacity="1" d="M 259.5 37 L 261 37.5 L 257.5 40 L 259.5 37 Z " /><path fill="rgb(206,206,206)" stroke="rgb(206,206,206)" stroke-width="1" opacity="1" d="M 282.5 37 L 286 39.5 L 283.5 38 L 282.5 37 Z " /><path fill="rgb(206,206,206)" stroke="rgb(206,206,206)" stroke-width="1" opacity="1" d="M 361.5 37 L 364 40.5 L 363 40.5 L 361.5 37 Z " /><path fill="rgb(206,206,206)" stroke="rgb(206,206,206)" stroke-width="1" opacity="1" d="M 649.5 37 L 644.5 43 L 649.5 37 Z " /><path fill="rgb(206,206,206)" stroke="rgb(206,206,206)" stroke-width="1" opacity="1" d="M 728.5 37 L 724.5 42 L 728.5 37 Z " /><path fill="rgb(206,206,206)" stroke="rgb(206,206,206)" stroke-width="1" opacity="1" d="M 775.5 39 L 776 54.5 L 775 54.5 L 775.5 39 Z " /><path fill="rgb(206,206,206)" stroke="rgb(206,206,206)" stroke-width="1" opacity="1" d="M 333.5 41 L 334 43.5 L 333 43.5 L 333.5 41 Z " /><path fill="rgb(206,206,206)" stroke="rgb(206,206,206)" stroke-width="1" opacity="1" d="M 378.5 41 L 379 44.5 L 378 44.5 L 378.5 41 Z " /><path fill="rgb(206,206,206)" stroke="rgb(206,206,206)" stroke-width="1" opacity="1" d="M 723.5 43 L 722.5 45 L 723.5 43 Z " /><path fill="rgb(206,206,206)" stroke="rgb(206,206,206)" stroke-width="1" opacity="1" d="M 256.5 45 L 257 54.5 L 256 54.5 L 256.5 45 Z " /><path fill="rgb(206,206,206)" stroke="rgb(206,206,206)" stroke-width="1" opacity="1" d="M 363.5 46 L 364 50.5 L 363 50.5 L 363.5 46 Z " /><path fill="rgb(206,206,206)" stroke="rgb(206,206,206)" stroke-width="1" opacity="1" d="M 173.5 47 L 174 48.5 L 172.5 51 L 172 49.5 L 173.5 47 Z " /><path fill="rgb(206,206,206)" stroke="rgb(206,206,206)" stroke-width="1" opacity="1" d="M 696.5 48 L 697 53.5 L 696 53.5 L 696.5 48 Z " /><path fill="rgb(206,206,206)" stroke="rgb(206,206,206)" stroke-width="1" opacity="1" d="M 284.5 50 L 285 52.5 L 284 52.5 L 284.5 50 Z " /><path fill="rgb(206,206,206)" stroke="rgb(206,206,206)" stroke-width="1" opacity="1" d="M 406.5 50 L 404.5 53 L 406.5 50 Z " /><path fill="rgb(206,206,206)" stroke="rgb(206,206,206)" stroke-width="1" opacity="1" d="M 383.5 52 L 384.5 54 L 383.5 52 Z " /><path fill="rgb(206,206,206)" stroke="rgb(206,206,206)" stroke-width="1" opacity="1" d="M 640.5 53 L 641 59.5 L 640 59.5 L 640.5 53 Z " /><path fill="rgb(206,206,206)" stroke="rgb(206,206,206)" stroke-width="1" opacity="1" d="M 670.5 53 L 668 56.5 L 667.5 58 L 667 56.5 L 670.5 53 Z " /><path fill="rgb(206,206,206)" stroke="rgb(206,206,206)" stroke-width="1" opacity="1" d="M 749.5 53 L 747.5 56 L 749.5 53 Z " /><path fill="rgb(206,206,206)" stroke="rgb(206,206,206)" stroke-width="1" opacity="1" d="M 686.5 54 L 687.5 56 L 686.5 54 Z " /><path fill="rgb(206,206,206)" stroke="rgb(206,206,206)" stroke-width="1" opacity="1" d="M 389.5 55 L 392 55.5 L 389.5 56 L 389.5 55 Z " /><path fill="rgb(206,206,206)" stroke="rgb(206,206,206)" stroke-width="1" opacity="1" d="M 396.5 55 L 399 55.5 L 396.5 56 L 396.5 55 Z " /><path fill="rgb(206,206,206)" stroke="rgb(206,206,206)" stroke-width="1" opacity="1" d="M 695.5 56 L 694.5 58 L 695.5 56 Z " /><path fill="rgb(206,206,206)" stroke="rgb(206,206,206)" stroke-width="1" opacity="1" d="M 768.5 56 L 769.5 58 L 768.5 56 Z " /><path fill="rgb(206,206,206)" stroke="rgb(206,206,206)" stroke-width="1" opacity="1" d="M 168.5 57 L 167.5 59 L 168.5 57 Z " /><path fill="rgb(206,206,206)" stroke="rgb(206,206,206)" stroke-width="1" opacity="1" d="M 283.5 57 L 284 61.5 L 283 61.5 L 283.5 57 Z " /><path fill="rgb(206,206,206)" stroke="rgb(206,206,206)" stroke-width="1" opacity="1" d="M 166.5 60 L 165.5 62 L 166.5 60 Z " /><path fill="rgb(206,206,206)" stroke="rgb(206,206,206)" stroke-width="1" opacity="1" d="M 327.5 60 L 326.5 62 L 327.5 60 Z " /><path fill="rgb(206,206,206)" stroke="rgb(206,206,206)" stroke-width="1" opacity="1" d="M 667.5 62 L 668.5 64 L 667.5 62 Z " /><path fill="rgb(206,206,206)" stroke="rgb(206,206,206)" stroke-width="1" opacity="1" d="M 164.5 63 L 162.5 66 L 164.5 63 Z " /><path fill="rgb(206,206,206)" stroke="rgb(206,206,206)" stroke-width="1" opacity="1" d="M 566.5 64 L 573 64.5 L 566.5 65 L 566.5 64 Z " /><path fill="rgb(206,206,206)" stroke="rgb(206,206,206)" stroke-width="1" opacity="1" d="M 574.5 64 L 581 64.5 L 574.5 65 L 574.5 64 Z " /><path fill="rgb(206,206,206)" stroke="rgb(206,206,206)" stroke-width="1" opacity="1" d="M 719.5 64 L 718.5 66 L 708 65.5 L 718.5 65 L 719.5 64 Z " /><path fill="rgb(206,206,206)" stroke="rgb(206,206,206)" stroke-width="1" opacity="1" d="M 385.5 65 L 389 65.5 L 385.5 66 L 385.5 65 Z " /><path fill="rgb(206,206,206)" stroke="rgb(206,206,206)" stroke-width="1" opacity="1" d="M 399.5 65 L 402 65.5 L 399.5 66 L 399.5 65 Z " /><path fill="rgb(206,206,206)" stroke="rgb(206,206,206)" stroke-width="1" opacity="1" d="M 420.5 65 L 424 65.5 L 420.5 66 L 420.5 65 Z " /><path fill="rgb(206,206,206)" stroke="rgb(206,206,206)" stroke-width="1" opacity="1" d="M 438.5 65 L 443 65.5 L 438.5 66 L 438.5 65 Z " /><path fill="rgb(206,206,206)" stroke="rgb(206,206,206)" stroke-width="1" opacity="1" d="M 496.5 65 L 500 65.5 L 496.5 66 L 496.5 65 Z " /><path fill="rgb(206,206,206)" stroke="rgb(206,206,206)" stroke-width="1" opacity="1" d="M 514.5 65 L 518 65.5 L 514.5 66 L 514.5 65 Z " /><path fill="rgb(206,206,206)" stroke="rgb(206,206,206)" stroke-width="1" opacity="1" d="M 584.5 65 L 587 65.5 L 584.5 66 L 584.5 65 Z " /><path fill="rgb(206,206,206)" stroke="rgb(206,206,206)" stroke-width="1" opacity="1" d="M 628.5 65 L 639 65.5 L 628.5 66 L 628.5 65 Z " /><path fill="rgb(206,206,206)" stroke="rgb(206,206,206)" stroke-width="1" opacity="1" d="M 688.5 65 L 694 65.5 L 688.5 66 L 688.5 65 Z " /><path fill="rgb(206,206,206)" stroke="rgb(206,206,206)" stroke-width="1" opacity="1" d="M 767.5 65 Q 774.5 63.5 776 67.5 L 773.5 66 L 767.5 66 L 767.5 65 Z " /><path fill="rgb(206,206,206)" stroke="rgb(206,206,206)" stroke-width="1" opacity="1" d="M 323.5 66 L 322.5 68 L 323.5 66 Z " /><path fill="rgb(206,206,206)" stroke="rgb(206,206,206)" stroke-width="1" opacity="1" d="M 383.5 66 L 382.5 68 L 383.5 66 Z " /><path fill="rgb(206,206,206)" stroke="rgb(206,206,206)" stroke-width="1" opacity="1" d="M 418.5 66 L 417.5 68 L 418.5 66 Z " /><path fill="rgb(206,206,206)" stroke="rgb(206,206,206)" stroke-width="1" opacity="1" d="M 444.5 66 L 445.5 68 L 444.5 66 Z " /><path fill="rgb(206,206,206)" stroke="rgb(206,206,206)" stroke-width="1" opacity="1" d="M 520.5 66 L 522 68.5 L 521 68.5 L 520.5 66 Z " /><path fill="rgb(206,206,206)" stroke="rgb(206,206,206)" stroke-width="1" opacity="1" d="M 695.5 66 L 697 68.5 L 696 68.5 L 695.5 66 Z " /><path fill="rgb(206,206,206)" stroke="rgb(206,206,206)" stroke-width="1" opacity="1" d="M 159.5 69 L 154.5 75 L 159.5 69 Z " /><path fill="rgb(206,206,206)" stroke="rgb(206,206,206)" stroke-width="1" opacity="1" d="M 255.5 69 L 256 81.5 L 255 81.5 L 255.5 69 Z " /><path fill="rgb(206,206,206)" stroke="rgb(206,206,206)" stroke-width="1" opacity="1" d="M 320.5 70 L 318.5 73 L 320.5 70 Z " /><path fill="rgb(206,206,206)" stroke="rgb(206,206,206)" stroke-width="1" opacity="1" d="M 623.5 70 L 624 77.5 L 623 77.5 L 623.5 70 Z " /><path fill="rgb(206,206,206)" stroke="rgb(206,206,206)" stroke-width="1" opacity="1" d="M 776.5 70 L 777 78.5 L 776 78.5 L 776.5 70 Z " /><path fill="rgb(206,206,206)" stroke="rgb(206,206,206)" stroke-width="1" opacity="1" d="M 601.5 71 L 602.5 73 L 601.5 71 Z " /><path fill="rgb(206,206,206)" stroke="rgb(206,206,206)" stroke-width="1" opacity="1" d="M 381.5 72 L 382 78.5 L 381 78.5 L 381.5 72 Z " /><path fill="rgb(206,206,206)" stroke="rgb(206,206,206)" stroke-width="1" opacity="1" d="M 491.5 72 L 492 75.5 L 491 75.5 L 491.5 72 Z " /><path fill="rgb(206,206,206)" stroke="rgb(206,206,206)" stroke-width="1" opacity="1" d="M 354.5 73 L 347.5 81 L 354.5 73 Z " /><path fill="rgb(206,206,206)" stroke="rgb(206,206,206)" stroke-width="1" opacity="1" d="M 604.5 73 L 605.5 75 L 604.5 73 Z " /><path fill="rgb(206,206,206)" stroke="rgb(206,206,206)" stroke-width="1" opacity="1" d="M 540.5 74 L 538.5 77 L 540.5 74 Z " /><path fill="rgb(206,206,206)" stroke="rgb(206,206,206)" stroke-width="1" opacity="1" d="M 314.5 75 L 313.5 77 L 314.5 75 Z " /><path fill="rgb(206,206,206)" stroke="rgb(206,206,206)" stroke-width="1" opacity="1" d="M 447.5 75 L 448 78.5 L 447 78.5 L 447.5 75 Z " /><path fill="rgb(206,206,206)" stroke="rgb(206,206,206)" stroke-width="1" opacity="1" d="M 150.5 77 L 149.5 79 L 150.5 77 Z " /><path fill="rgb(206,206,206)" stroke="rgb(206,206,206)" stroke-width="1" opacity="1" d="M 406.5 77 L 407 85.5 L 406 85.5 L 406.5 77 Z " /><path fill="rgb(206,206,206)" stroke="rgb(206,206,206)" stroke-width="1" opacity="1" d="M 146.5 80 L 145.5 82 L 143.5 83 L 144.5 81 L 146.5 80 Z " /><path fill="rgb(206,206,206)" stroke="rgb(206,206,206)" stroke-width="1" opacity="1" d="M 490.5 80 L 491 82.5 L 490 82.5 L 490.5 80 Z " /><path fill="rgb(206,206,206)" stroke="rgb(206,206,206)" stroke-width="1" opacity="1" d="M 534.5 80 L 532.5 83 L 534.5 80 Z " /><path fill="rgb(206,206,206)" stroke="rgb(206,206,206)" stroke-width="1" opacity="1" d="M 624.5 80 L 625.5 82 L 624.5 80 Z " /><path fill="rgb(206,206,206)" stroke="rgb(206,206,206)" stroke-width="1" opacity="1" d="M 696.5 80 L 697 81.5 L 695 82.5 L 696.5 80 Z " /><path fill="rgb(206,206,206)" stroke="rgb(206,206,206)" stroke-width="1" opacity="1" d="M 775.5 81 L 773.5 84 L 767 83.5 L 773.5 83 L 775.5 81 Z " /><path fill="rgb(206,206,206)" stroke="rgb(206,206,206)" stroke-width="1" opacity="1" d="M 613.5 82 L 614.5 84 L 613.5 82 Z " /><path fill="rgb(206,206,206)" stroke="rgb(206,206,206)" stroke-width="1" opacity="1" d="M 627.5 82 L 637 82.5 L 627.5 83 L 627.5 82 Z " /><path fill="rgb(206,206,206)" stroke="rgb(206,206,206)" stroke-width="1" opacity="1" d="M 673.5 82 L 681 82.5 L 673.5 83 L 673.5 82 Z " /><path fill="rgb(206,206,206)" stroke="rgb(206,206,206)" stroke-width="1" opacity="1" d="M 706.5 82 L 716 82.5 L 706.5 83 L 706.5 82 Z " /><path fill="rgb(206,206,206)" stroke="rgb(206,206,206)" stroke-width="1" opacity="1" d="M 752.5 82 L 761 82.5 L 752.5 83 L 752.5 82 Z " /><path fill="rgb(206,206,206)" stroke="rgb(206,206,206)" stroke-width="1" opacity="1" d="M 141.5 83 L 140.5 85 L 136.5 87 L 137.5 85 L 141.5 83 Z " /><path fill="rgb(206,206,206)" stroke="rgb(206,206,206)" stroke-width="1" opacity="1" d="M 342.5 83 L 341.5 85 L 342.5 83 Z " /><path fill="rgb(206,206,206)" stroke="rgb(206,206,206)" stroke-width="1" opacity="1" d="M 688.5 83 L 694 83.5 L 688.5 84 L 688.5 83 Z " /><path fill="rgb(206,206,206)" stroke="rgb(206,206,206)" stroke-width="1" opacity="1" d="M 717.5 83 L 718.5 85 L 717.5 83 Z " /><path fill="rgb(206,206,206)" stroke="rgb(206,206,206)" stroke-width="1" opacity="1" d="M 570.5 85 L 577 85.5 L 570.5 86 L 570.5 85 Z " /><path fill="rgb(206,206,206)" stroke="rgb(206,206,206)" stroke-width="1" opacity="1" d="M 615.5 85 L 616.5 87 L 615.5 85 Z " /><path fill="rgb(206,206,206)" stroke="rgb(206,206,206)" stroke-width="1" opacity="1" d="M 639.5 85 L 640 101.5 L 639 101.5 L 639.5 85 Z " /><path fill="rgb(206,206,206)" stroke="rgb(206,206,206)" stroke-width="1" opacity="1" d="M 489.5 86 L 490 88.5 L 489 88.5 L 489.5 86 Z " /><path fill="rgb(206,206,206)" stroke="rgb(206,206,206)" stroke-width="1" opacity="1" d="M 666.5 86 L 667 110.5 L 666 110.5 L 666.5 86 Z " /><path fill="rgb(206,206,206)" stroke="rgb(206,206,206)" stroke-width="1" opacity="1" d="M 529.5 87 L 528.5 89 L 529.5 87 Z " /><path fill="rgb(206,206,206)" stroke="rgb(206,206,206)" stroke-width="1" opacity="1" d="M 559.5 89 L 558.5 91 L 559.5 89 Z " /><path fill="rgb(206,206,206)" stroke="rgb(206,206,206)" stroke-width="1" opacity="1" d="M 380.5 90 L 381 103.5 L 380 103.5 L 380.5 90 Z " /><path fill="rgb(206,206,206)" stroke="rgb(206,206,206)" stroke-width="1" opacity="1" d="M 121.5 91 L 124 91.5 L 121.5 92 L 121.5 91 Z " /><path fill="rgb(206,206,206)" stroke="rgb(206,206,206)" stroke-width="1" opacity="1" d="M 589.5 91 L 591.5 94 L 589.5 91 Z " /><path fill="rgb(206,206,206)" stroke="rgb(206,206,206)" stroke-width="1" opacity="1" d="M 117.5 92 L 120 92.5 L 117.5 93 L 117.5 92 Z " /><path fill="rgb(206,206,206)" stroke="rgb(206,206,206)" stroke-width="1" opacity="1" d="M 320.5 92 L 319.5 94 L 320.5 92 Z " /><path fill="rgb(206,206,206)" stroke="rgb(206,206,206)" stroke-width="1" opacity="1" d="M 111.5 93 L 114 93.5 L 111.5 94 L 111.5 93 Z " /><path fill="rgb(206,206,206)" stroke="rgb(206,206,206)" stroke-width="1" opacity="1" d="M 62.5 94 L 69 94.5 L 62.5 95 L 62.5 94 Z " /><path fill="rgb(206,206,206)" stroke="rgb(206,206,206)" stroke-width="1" opacity="1" d="M 72.5 94 L 77 94.5 L 72.5 95 L 72.5 94 Z " /><path fill="rgb(206,206,206)" stroke="rgb(206,206,206)" stroke-width="1" opacity="1" d="M 78.5 94 L 83 94.5 L 78.5 95 L 78.5 94 Z " /><path fill="rgb(206,206,206)" stroke="rgb(206,206,206)" stroke-width="1" opacity="1" d="M 88.5 94 L 92 94.5 L 88.5 95 L 88.5 94 Z " /><path fill="rgb(206,206,206)" stroke="rgb(206,206,206)" stroke-width="1" opacity="1" d="M 554.5 94 L 553.5 96 L 554.5 94 Z " /><path fill="rgb(206,206,206)" stroke="rgb(206,206,206)" stroke-width="1" opacity="1" d="M 592.5 95 L 593.5 97 L 592.5 95 Z " /><path fill="rgb(206,206,206)" stroke="rgb(206,206,206)" stroke-width="1" opacity="1" d="M 718.5 95 L 719 112.5 L 718 112.5 L 718.5 95 Z " /><path fill="rgb(206,206,206)" stroke="rgb(206,206,206)" stroke-width="1" opacity="1" d="M 254.5 99 L 255 117.5 L 254 117.5 L 254.5 99 Z " /><path fill="rgb(206,206,206)" stroke="rgb(206,206,206)" stroke-width="1" opacity="1" d="M 407.5 99 L 408 124.5 L 407 124.5 L 407.5 99 Z " /><path fill="rgb(206,206,206)" stroke="rgb(206,206,206)" stroke-width="1" opacity="1" d="M 622.5 101 L 623 103.5 L 622 103.5 L 622.5 101 Z " /><path fill="rgb(206,206,206)" stroke="rgb(206,206,206)" stroke-width="1" opacity="1" d="M 18.5 102 L 93 102.5 L 18 103 L 17.5 183 L 17 103.5 L 18.5 102 Z " /><path fill="rgb(206,206,206)" stroke="rgb(206,206,206)" stroke-width="1" opacity="1" d="M 101 102 L 110 102.5 L 102 103 L 101.5 183 L 101 102 Z " /><path fill="rgb(206,206,206)" stroke="rgb(206,206,206)" stroke-width="1" opacity="1" d="M 113.5 103 L 118 103.5 L 113.5 104 L 113.5 103 Z " /><path fill="rgb(206,206,206)" stroke="rgb(206,206,206)" stroke-width="1" opacity="1" d="M 120.5 104 L 123 104.5 L 120.5 105 L 120.5 104 Z " /><path fill="rgb(206,206,206)" stroke="rgb(206,206,206)" stroke-width="1" opacity="1" d="M 347.5 106 L 348.5 108 L 347.5 106 Z " /><path fill="rgb(206,206,206)" stroke="rgb(206,206,206)" stroke-width="1" opacity="1" d="M 623.5 107 L 624 111.5 L 623 111.5 L 623.5 107 Z " /><path fill="rgb(206,206,206)" stroke="rgb(206,206,206)" stroke-width="1" opacity="1" d="M 293.5 108 L 297 108.5 L 293.5 109 L 293.5 108 Z " /><path fill="rgb(206,206,206)" stroke="rgb(206,206,206)" stroke-width="1" opacity="1" d="M 522.5 108 L 523 113.5 L 522 113.5 L 522.5 108 Z " /><path fill="rgb(206,206,206)" stroke="rgb(206,206,206)" stroke-width="1" opacity="1" d="M 548.5 108 L 549 113.5 L 548 113.5 L 548.5 108 Z " /><path fill="rgb(206,206,206)" stroke="rgb(206,206,206)" stroke-width="1" opacity="1" d="M 351.5 109 L 358.5 117 L 351.5 109 Z " /><path fill="rgb(206,206,206)" stroke="rgb(206,206,206)" stroke-width="1" opacity="1" d="M 141.5 112 L 145 114.5 L 143.5 114 L 141.5 112 Z " /><path fill="rgb(206,206,206)" stroke="rgb(206,206,206)" stroke-width="1" opacity="1" d="M 146.5 115 L 148.5 118 L 146.5 115 Z " /><path fill="rgb(206,206,206)" stroke="rgb(206,206,206)" stroke-width="1" opacity="1" d="M 313.5 116 L 321.5 125 L 313.5 116 Z " /><path fill="rgb(206,206,206)" stroke="rgb(206,206,206)" stroke-width="1" opacity="1" d="M 548.5 116 L 549 121.5 L 548 121.5 L 548.5 116 Z " /><path fill="rgb(206,206,206)" stroke="rgb(206,206,206)" stroke-width="1" opacity="1" d="M 150.5 118 L 153.5 122 L 150.5 118 Z " /><path fill="rgb(206,206,206)" stroke="rgb(206,206,206)" stroke-width="1" opacity="1" d="M 522.5 118 L 523 123.5 L 522 123.5 L 522.5 118 Z " /><path fill="rgb(206,206,206)" stroke="rgb(206,206,206)" stroke-width="1" opacity="1" d="M 746.5 119 L 747 128.5 L 746 128.5 L 746.5 119 Z " /><path fill="rgb(206,206,206)" stroke="rgb(206,206,206)" stroke-width="1" opacity="1" d="M 623.5 120 L 624 124.5 L 623 124.5 L 623.5 120 Z " /><path fill="rgb(206,206,206)" stroke="rgb(206,206,206)" stroke-width="1" opacity="1" d="M 155.5 123 L 156.5 125 L 155.5 123 Z " /><path fill="rgb(206,206,206)" stroke="rgb(206,206,206)" stroke-width="1" opacity="1" d="M 667.5 124 L 668 132.5 L 667 132.5 L 667.5 124 Z " /><path fill="rgb(206,206,206)" stroke="rgb(206,206,206)" stroke-width="1" opacity="1" d="M 322.5 126 L 323.5 128 L 322.5 126 Z " /><path fill="rgb(206,206,206)" stroke="rgb(206,206,206)" stroke-width="1" opacity="1" d="M 638.5 126 L 639 160.5 L 638 160.5 L 638.5 126 Z " /><path fill="rgb(206,206,206)" stroke="rgb(206,206,206)" stroke-width="1" opacity="1" d="M 159.5 127 L 162.5 131 L 159.5 127 Z " /><path fill="rgb(206,206,206)" stroke="rgb(206,206,206)" stroke-width="1" opacity="1" d="M 283.5 129 L 284 133.5 L 283 133.5 L 283.5 129 Z " /><path fill="rgb(206,206,206)" stroke="rgb(206,206,206)" stroke-width="1" opacity="1" d="M 164.5 133 L 165.5 135 L 164.5 133 Z " /><path fill="rgb(206,206,206)" stroke="rgb(206,206,206)" stroke-width="1" opacity="1" d="M 552.5 133 L 553.5 135 L 552.5 133 Z " /><path fill="rgb(206,206,206)" stroke="rgb(206,206,206)" stroke-width="1" opacity="1" d="M 327.5 134 L 328.5 136 L 327.5 134 Z " /><path fill="rgb(206,206,206)" stroke="rgb(206,206,206)" stroke-width="1" opacity="1" d="M 592.5 135 L 591.5 137 L 592.5 135 Z " /><path fill="rgb(206,206,206)" stroke="rgb(206,206,206)" stroke-width="1" opacity="1" d="M 166.5 136 L 167.5 138 L 166.5 136 Z " /><path fill="rgb(206,206,206)" stroke="rgb(206,206,206)" stroke-width="1" opacity="1" d="M 554.5 136 L 558.5 141 L 554.5 136 Z " /><path fill="rgb(206,206,206)" stroke="rgb(206,206,206)" stroke-width="1" opacity="1" d="M 466.5 137 L 467.5 139 L 466.5 137 Z " /><path fill="rgb(206,206,206)" stroke="rgb(206,206,206)" stroke-width="1" opacity="1" d="M 472.5 137 L 471.5 139 L 472.5 137 Z " /><path fill="rgb(206,206,206)" stroke="rgb(206,206,206)" stroke-width="1" opacity="1" d="M 747.5 137 L 748 143.5 L 747 143.5 L 747.5 137 Z " /><path fill="rgb(206,206,206)" stroke="rgb(206,206,206)" stroke-width="1" opacity="1" d="M 589.5 138 L 587.5 141 L 589.5 138 Z " /><path fill="rgb(206,206,206)" stroke="rgb(206,206,206)" stroke-width="1" opacity="1" d="M 168.5 139 L 172 144.5 L 170 143.5 L 168.5 139 Z " /><path fill="rgb(206,206,206)" stroke="rgb(206,206,206)" stroke-width="1" opacity="1" d="M 284.5 139 L 285 142.5 L 284 142.5 L 284.5 139 Z " /><path fill="rgb(206,206,206)" stroke="rgb(206,206,206)" stroke-width="1" opacity="1" d="M 668.5 141 L 669 146.5 L 668 146.5 L 668.5 141 Z " /><path fill="rgb(206,206,206)" stroke="rgb(206,206,206)" stroke-width="1" opacity="1" d="M 528.5 143 L 529.5 145 L 528.5 143 Z " /><path fill="rgb(206,206,206)" stroke="rgb(206,206,206)" stroke-width="1" opacity="1" d="M 369.5 144 L 370 146.5 L 369 146.5 L 369.5 144 Z " /><path fill="rgb(206,206,206)" stroke="rgb(206,206,206)" stroke-width="1" opacity="1" d="M 567.5 144 L 570 144.5 L 567.5 145 L 567.5 144 Z " /><path fill="rgb(206,206,206)" stroke="rgb(206,206,206)" stroke-width="1" opacity="1" d="M 576.5 144 L 579 144.5 L 576.5 145 L 576.5 144 Z " /><path fill="rgb(206,206,206)" stroke="rgb(206,206,206)" stroke-width="1" opacity="1" d="M 616.5 145 L 615.5 147 L 616.5 145 Z " /><path fill="rgb(206,206,206)" stroke="rgb(206,206,206)" stroke-width="1" opacity="1" d="M 530.5 146 L 531.5 148 L 530.5 146 Z " /><path fill="rgb(206,206,206)" stroke="rgb(206,206,206)" stroke-width="1" opacity="1" d="M 285.5 147 L 286 149.5 L 285 149.5 L 285.5 147 Z " /><path fill="rgb(206,206,206)" stroke="rgb(206,206,206)" stroke-width="1" opacity="1" d="M 717.5 148 L 718 159.5 L 717 159.5 L 717.5 148 Z " /><path fill="rgb(206,206,206)" stroke="rgb(206,206,206)" stroke-width="1" opacity="1" d="M 613.5 149 L 606.5 157 L 613.5 149 Z " /><path fill="rgb(206,206,206)" stroke="rgb(206,206,206)" stroke-width="1" opacity="1" d="M 533.5 150 L 537.5 155 L 533.5 150 Z " /><path fill="rgb(206,206,206)" stroke="rgb(206,206,206)" stroke-width="1" opacity="1" d="M 748.5 151 L 749 155.5 L 748 155.5 L 748.5 151 Z " /><path fill="rgb(206,206,206)" stroke="rgb(206,206,206)" stroke-width="1" opacity="1" d="M 370.5 152 L 371 161.5 L 368 163.5 L 370 161.5 L 370.5 152 Z " /><path fill="rgb(206,206,206)" stroke="rgb(206,206,206)" stroke-width="1" opacity="1" d="M 286.5 154 L 287 157.5 L 286 157.5 L 286.5 154 Z " /><path fill="rgb(206,206,206)" stroke="rgb(206,206,206)" stroke-width="1" opacity="1" d="M 669.5 154 L 670 158.5 L 669 158.5 L 669.5 154 Z " /><path fill="rgb(206,206,206)" stroke="rgb(206,206,206)" stroke-width="1" opacity="1" d="M 176.5 156 L 177 158.5 L 176 158.5 L 176.5 156 Z " /><path fill="rgb(206,206,206)" stroke="rgb(206,206,206)" stroke-width="1" opacity="1" d="M 604.5 157 L 603.5 159 L 604.5 157 Z " /><path fill="rgb(206,206,206)" stroke="rgb(206,206,206)" stroke-width="1" opacity="1" d="M 449.5 158 L 450.5 160 L 449.5 158 Z " /><path fill="rgb(206,206,206)" stroke="rgb(206,206,206)" stroke-width="1" opacity="1" d="M 543.5 158 L 544.5 160 L 543.5 158 Z " /><path fill="rgb(206,206,206)" stroke="rgb(206,206,206)" stroke-width="1" opacity="1" d="M 451.5 161 L 453.5 164 L 451.5 161 Z " /><path fill="rgb(206,206,206)" stroke="rgb(206,206,206)" stroke-width="1" opacity="1" d="M 254.5 162 L 258 164.5 L 256.5 165 L 254.5 162 Z " /><path fill="rgb(206,206,206)" stroke="rgb(206,206,206)" stroke-width="1" opacity="1" d="M 286.5 162 L 284.5 165 L 286.5 162 Z " /><path fill="rgb(206,206,206)" stroke="rgb(206,206,206)" stroke-width="1" opacity="1" d="M 380.5 162 L 382.5 165 L 380.5 162 Z " /><path fill="rgb(206,206,206)" stroke="rgb(206,206,206)" stroke-width="1" opacity="1" d="M 718.5 162 L 720.5 165 L 718.5 162 Z " /><path fill="rgb(206,206,206)" stroke="rgb(206,206,206)" stroke-width="1" opacity="1" d="M 748.5 162 L 746.5 165 L 745 164.5 L 748.5 162 Z " /><path fill="rgb(206,206,206)" stroke="rgb(206,206,206)" stroke-width="1" opacity="1" d="M 262.5 165 L 280 165.5 L 262.5 166 L 262.5 165 Z " /><path fill="rgb(206,206,206)" stroke="rgb(206,206,206)" stroke-width="1" opacity="1" d="M 345.5 165 L 362 165.5 L 345.5 166 L 345.5 165 Z " /><path fill="rgb(206,206,206)" stroke="rgb(206,206,206)" stroke-width="1" opacity="1" d="M 386.5 165 L 401 165.5 L 386.5 166 L 386.5 165 Z " /><path fill="rgb(206,206,206)" stroke="rgb(206,206,206)" stroke-width="1" opacity="1" d="M 460.5 165 L 479 165.5 L 460.5 166 L 460.5 165 Z " /><path fill="rgb(206,206,206)" stroke="rgb(206,206,206)" stroke-width="1" opacity="1" d="M 561.5 165 L 564 165.5 L 561.5 166 L 561.5 165 Z " /><path fill="rgb(206,206,206)" stroke="rgb(206,206,206)" stroke-width="1" opacity="1" d="M 582.5 165 L 585 165.5 L 582.5 166 L 582.5 165 Z " /><path fill="rgb(206,206,206)" stroke="rgb(206,206,206)" stroke-width="1" opacity="1" d="M 646.5 165 L 662 165.5 L 646.5 166 L 646.5 165 Z " /><path fill="rgb(206,206,206)" stroke="rgb(206,206,206)" stroke-width="1" opacity="1" d="M 725.5 165 L 742 165.5 L 725.5 166 L 725.5 165 Z " /><path fill="rgb(206,206,206)" stroke="rgb(206,206,206)" stroke-width="1" opacity="1" d="M 572.5 166 L 575 166.5 L 572.5 167 L 572.5 166 Z " /><path fill="rgb(206,206,206)" stroke="rgb(206,206,206)" stroke-width="1" opacity="1" d="M 179.5 169 L 180 171.5 L 179 171.5 L 179.5 169 Z " /><path fill="rgb(206,206,206)" stroke="rgb(206,206,206)" stroke-width="1" opacity="1" d="M 180.5 175 L 181 183 L 145 182.5 L 180 182 L 180.5 175 Z " /><path fill="rgb(39,39,39)" stroke="rgb(39,39,39)" stroke-width="1" opacity="1" d="M 17.5 15 L 94 15 L 94 95 L 92 94.5 L 93 93.5 L 93 16 L 17.5 16 L 17.5 15 Z " /><path fill="rgb(39,39,39)" stroke="rgb(39,39,39)" stroke-width="1" opacity="1" d="M 181.5 15 L 182 19.5 L 181 19.5 L 181.5 15 Z " /><path fill="rgb(39,39,39)" stroke="rgb(39,39,39)" stroke-width="1" opacity="1" d="M 180.5 23 L 181 26.5 L 180 26.5 L 180.5 23 Z " /><path fill="rgb(39,39,39)" stroke="rgb(39,39,39)" stroke-width="1" opacity="1" d="M 666.5 30 L 672 30.5 L 666.5 31 L 666.5 30 Z " /><path fill="rgb(39,39,39)" stroke="rgb(39,39,39)" stroke-width="1" opacity="1" d="M 676.5 30 L 680 30.5 L 676.5 31 L 676.5 30 Z " /><path fill="rgb(39,39,39)" stroke="rgb(39,39,39)" stroke-width="1" opacity="1" d="M 745.5 30 L 751 30.5 L 745.5 31 L 745.5 30 Z " /><path fill="rgb(39,39,39)" stroke="rgb(39,39,39)" stroke-width="1" opacity="1" d="M 755.5 30 L 759 30.5 L 755.5 31 L 755.5 30 Z " /><path fill="rgb(39,39,39)" stroke="rgb(39,39,39)" stroke-width="1" opacity="1" d="M 402.5 31 L 403.5 33 L 402.5 31 Z " /><path fill="rgb(39,39,39)" stroke="rgb(39,39,39)" stroke-width="1" opacity="1" d="M 383.5 32 L 380.5 36 L 383.5 32 Z " /><path fill="rgb(39,39,39)" stroke="rgb(39,39,39)" stroke-width="1" opacity="1" d="M 651.5 35 L 650.5 37 L 651.5 35 Z " /><path fill="rgb(39,39,39)" stroke="rgb(39,39,39)" stroke-width="1" opacity="1" d="M 261.5 36 L 264 36.5 L 261.5 37 L 261.5 36 Z " /><path fill="rgb(39,39,39)" stroke="rgb(39,39,39)" stroke-width="1" opacity="1" d="M 278.5 36 L 281 36.5 L 278.5 37 L 278.5 36 Z " /><path fill="rgb(39,39,39)" stroke="rgb(39,39,39)" stroke-width="1" opacity="1" d="M 407.5 36 L 409 38.5 L 408 38.5 L 407.5 36 Z " /><path fill="rgb(39,39,39)" stroke="rgb(39,39,39)" stroke-width="1" opacity="1" d="M 258.5 37 L 257.5 39 L 258.5 37 Z " /><path fill="rgb(39,39,39)" stroke="rgb(39,39,39)" stroke-width="1" opacity="1" d="M 284.5 37 L 285.5 39 L 284.5 37 Z " /><path fill="rgb(39,39,39)" stroke="rgb(39,39,39)" stroke-width="1" opacity="1" d="M 335.5 37 L 334.5 39 L 335.5 37 Z " /><path fill="rgb(39,39,39)" stroke="rgb(39,39,39)" stroke-width="1" opacity="1" d="M 647.5 38 L 645.5 41 L 647.5 38 Z " /><path fill="rgb(39,39,39)" stroke="rgb(39,39,39)" stroke-width="1" opacity="1" d="M 696.5 38 L 697 47.5 L 696 47.5 L 696.5 38 Z " /><path fill="rgb(39,39,39)" stroke="rgb(39,39,39)" stroke-width="1" opacity="1" d="M 256.5 40 L 257 44.5 L 256 44.5 L 256.5 40 Z " /><path fill="rgb(39,39,39)" stroke="rgb(39,39,39)" stroke-width="1" opacity="1" d="M 286.5 40 L 287 43.5 L 286 43.5 L 286.5 40 Z " /><path fill="rgb(39,39,39)" stroke="rgb(39,39,39)" stroke-width="1" opacity="1" d="M 409.5 41 L 410 44.5 L 409 44.5 L 409.5 41 Z " /><path fill="rgb(39,39,39)" stroke="rgb(39,39,39)" stroke-width="1" opacity="1" d="M 408.5 47 L 409 48.5 L 407 49.5 L 408.5 47 Z " /><path fill="rgb(39,39,39)" stroke="rgb(39,39,39)" stroke-width="1" opacity="1" d="M 380.5 50 L 383.5 54 L 380.5 50 Z " /><path fill="rgb(39,39,39)" stroke="rgb(39,39,39)" stroke-width="1" opacity="1" d="M 172.5 51 L 172 52.5 L 169.5 57 L 170 55.5 L 172.5 51 Z " /><path fill="rgb(39,39,39)" stroke="rgb(39,39,39)" stroke-width="1" opacity="1" d="M 363.5 51 L 364 53.5 L 363 53.5 L 363.5 51 Z " /><path fill="rgb(39,39,39)" stroke="rgb(39,39,39)" stroke-width="1" opacity="1" d="M 719.5 52 L 720 60.5 L 719 60.5 L 719.5 52 Z " /><path fill="rgb(39,39,39)" stroke="rgb(39,39,39)" stroke-width="1" opacity="1" d="M 403.5 53 L 402.5 55 L 403.5 53 Z " /><path fill="rgb(39,39,39)" stroke="rgb(39,39,39)" stroke-width="1" opacity="1" d="M 766.5 55 L 768.5 58 L 766.5 55 Z " /><path fill="rgb(39,39,39)" stroke="rgb(39,39,39)" stroke-width="1" opacity="1" d="M 775.5 55 L 776 56.5 L 773 58.5 L 775.5 55 Z " /><path fill="rgb(39,39,39)" stroke="rgb(39,39,39)" stroke-width="1" opacity="1" d="M 688.5 56 L 689.5 58 L 688.5 56 Z " /><path fill="rgb(39,39,39)" stroke="rgb(39,39,39)" stroke-width="1" opacity="1" d="M 168.5 58 L 168 59.5 L 165.5 63 L 167 60.5 L 168.5 58 Z " /><path fill="rgb(39,39,39)" stroke="rgb(39,39,39)" stroke-width="1" opacity="1" d="M 746.5 58 L 747 60.5 L 746 60.5 L 746.5 58 Z " /><path fill="rgb(39,39,39)" stroke="rgb(39,39,39)" stroke-width="1" opacity="1" d="M 255.5 59 L 256 68.5 L 255 68.5 L 255.5 59 Z " /><path fill="rgb(39,39,39)" stroke="rgb(39,39,39)" stroke-width="1" opacity="1" d="M 640.5 60 L 641 63.5 L 640 63.5 L 640.5 60 Z " /><path fill="rgb(39,39,39)" stroke="rgb(39,39,39)" stroke-width="1" opacity="1" d="M 283.5 62 L 284 72.5 L 283 72.5 L 283.5 62 Z " /><path fill="rgb(39,39,39)" stroke="rgb(39,39,39)" stroke-width="1" opacity="1" d="M 747.5 62 L 748.5 64 L 747.5 62 Z " /><path fill="rgb(39,39,39)" stroke="rgb(39,39,39)" stroke-width="1" opacity="1" d="M 164.5 64 L 160.5 69 L 164.5 64 Z " /><path fill="rgb(39,39,39)" stroke="rgb(39,39,39)" stroke-width="1" opacity="1" d="M 324.5 64 L 323.5 66 L 324.5 64 Z " /><path fill="rgb(39,39,39)" stroke="rgb(39,39,39)" stroke-width="1" opacity="1" d="M 391.5 64 L 397 64.5 L 391.5 65 L 391.5 64 Z " /><path fill="rgb(39,39,39)" stroke="rgb(39,39,39)" stroke-width="1" opacity="1" d="M 426.5 64 L 436 64.5 L 426.5 65 L 426.5 64 Z " /><path fill="rgb(39,39,39)" stroke="rgb(39,39,39)" stroke-width="1" opacity="1" d="M 503.5 64 L 511 64.5 L 503.5 65 L 503.5 64 Z " /><path fill="rgb(39,39,39)" stroke="rgb(39,39,39)" stroke-width="1" opacity="1" d="M 563.5 64 L 566 64.5 L 563.5 65 L 563.5 64 Z " /><path fill="rgb(39,39,39)" stroke="rgb(39,39,39)" stroke-width="1" opacity="1" d="M 581.5 64 L 584 64.5 L 581.5 65 L 581.5 64 Z " /><path fill="rgb(39,39,39)" stroke="rgb(39,39,39)" stroke-width="1" opacity="1" d="M 674.5 65 L 677 65.5 L 674.5 66 L 674.5 65 Z " /><path fill="rgb(39,39,39)" stroke="rgb(39,39,39)" stroke-width="1" opacity="1" d="M 682.5 65 L 688 65.5 L 682.5 66 L 682.5 65 Z " /><path fill="rgb(39,39,39)" stroke="rgb(39,39,39)" stroke-width="1" opacity="1" d="M 753.5 65 L 756 65.5 L 753.5 66 L 753.5 65 Z " /><path fill="rgb(39,39,39)" stroke="rgb(39,39,39)" stroke-width="1" opacity="1" d="M 762.5 65 L 767 65.5 L 762.5 66 L 762.5 65 Z " /><path fill="rgb(39,39,39)" stroke="rgb(39,39,39)" stroke-width="1" opacity="1" d="M 404.5 66 L 405.5 68 L 404.5 66 Z " /><path fill="rgb(39,39,39)" stroke="rgb(39,39,39)" stroke-width="1" opacity="1" d="M 493.5 66 L 492.5 68 L 493.5 66 Z " /><path fill="rgb(39,39,39)" stroke="rgb(39,39,39)" stroke-width="1" opacity="1" d="M 625.5 66 L 624 68.5 L 623.5 70 L 623 68.5 L 625.5 66 Z " /><path fill="rgb(39,39,39)" stroke="rgb(39,39,39)" stroke-width="1" opacity="1" d="M 704.5 66 L 703.5 68 L 704.5 66 Z " /><path fill="rgb(39,39,39)" stroke="rgb(39,39,39)" stroke-width="1" opacity="1" d="M 321.5 68 L 315.5 75 L 321.5 68 Z " /><path fill="rgb(39,39,39)" stroke="rgb(39,39,39)" stroke-width="1" opacity="1" d="M 381.5 69 L 382 71.5 L 381 71.5 L 381.5 69 Z " /><path fill="rgb(39,39,39)" stroke="rgb(39,39,39)" stroke-width="1" opacity="1" d="M 491.5 69 L 492 71.5 L 491 71.5 L 491.5 69 Z " /><path fill="rgb(39,39,39)" stroke="rgb(39,39,39)" stroke-width="1" opacity="1" d="M 697.5 69 L 698 79.5 L 697 79.5 L 697.5 69 Z " /><path fill="rgb(39,39,39)" stroke="rgb(39,39,39)" stroke-width="1" opacity="1" d="M 702.5 69 L 703 78.5 L 702 78.5 L 702.5 69 Z " /><path fill="rgb(39,39,39)" stroke="rgb(39,39,39)" stroke-width="1" opacity="1" d="M 159.5 70 L 156.5 74 L 159.5 70 Z " /><path fill="rgb(39,39,39)" stroke="rgb(39,39,39)" stroke-width="1" opacity="1" d="M 356.5 71 L 355.5 73 L 356.5 71 Z " /><path fill="rgb(39,39,39)" stroke="rgb(39,39,39)" stroke-width="1" opacity="1" d="M 406.5 71 L 407 76.5 L 406 76.5 L 406.5 71 Z " /><path fill="rgb(39,39,39)" stroke="rgb(39,39,39)" stroke-width="1" opacity="1" d="M 447.5 72 L 448 74.5 L 447 74.5 L 447.5 72 Z " /><path fill="rgb(39,39,39)" stroke="rgb(39,39,39)" stroke-width="1" opacity="1" d="M 542.5 72 L 541.5 74 L 542.5 72 Z " /><path fill="rgb(39,39,39)" stroke="rgb(39,39,39)" stroke-width="1" opacity="1" d="M 606.5 74 L 613.5 82 L 606.5 74 Z " /><path fill="rgb(39,39,39)" stroke="rgb(39,39,39)" stroke-width="1" opacity="1" d="M 153.5 75 L 150.5 79 L 153.5 75 Z " /><path fill="rgb(39,39,39)" stroke="rgb(39,39,39)" stroke-width="1" opacity="1" d="M 313.5 75 L 312.5 77 L 313.5 75 Z " /><path fill="rgb(39,39,39)" stroke="rgb(39,39,39)" stroke-width="1" opacity="1" d="M 353.5 75 L 349.5 80 L 353.5 75 Z " /><path fill="rgb(39,39,39)" stroke="rgb(39,39,39)" stroke-width="1" opacity="1" d="M 538.5 75 L 533.5 81 L 538.5 75 Z " /><path fill="rgb(39,39,39)" stroke="rgb(39,39,39)" stroke-width="1" opacity="1" d="M 285.5 77 L 287.5 80 L 285.5 77 Z " /><path fill="rgb(39,39,39)" stroke="rgb(39,39,39)" stroke-width="1" opacity="1" d="M 490.5 77 L 491 79.5 L 490 79.5 L 490.5 77 Z " /><path fill="rgb(39,39,39)" stroke="rgb(39,39,39)" stroke-width="1" opacity="1" d="M 148.5 79 L 146.5 82 L 148.5 79 Z " /><path fill="rgb(39,39,39)" stroke="rgb(39,39,39)" stroke-width="1" opacity="1" d="M 448.5 80 L 449 82.5 L 448 82.5 L 448.5 80 Z " /><path fill="rgb(39,39,39)" stroke="rgb(39,39,39)" stroke-width="1" opacity="1" d="M 291.5 81 L 294 81.5 L 291.5 82 L 291.5 81 Z " /><path fill="rgb(39,39,39)" stroke="rgb(39,39,39)" stroke-width="1" opacity="1" d="M 295.5 81 L 300 81.5 L 295.5 82 L 295.5 81 Z " /><path fill="rgb(39,39,39)" stroke="rgb(39,39,39)" stroke-width="1" opacity="1" d="M 346.5 81 L 345.5 83 L 346.5 81 Z " /><path fill="rgb(39,39,39)" stroke="rgb(39,39,39)" stroke-width="1" opacity="1" d="M 380.5 82 L 381 89.5 L 380 89.5 L 380.5 82 Z " /><path fill="rgb(39,39,39)" stroke="rgb(39,39,39)" stroke-width="1" opacity="1" d="M 670.5 82 L 673 82.5 L 670.5 83 L 670.5 82 Z " /><path fill="rgb(39,39,39)" stroke="rgb(39,39,39)" stroke-width="1" opacity="1" d="M 142.5 83 L 141.5 85 L 142.5 83 Z " /><path fill="rgb(39,39,39)" stroke="rgb(39,39,39)" stroke-width="1" opacity="1" d="M 531.5 83 L 530.5 85 L 531.5 83 Z " /><path fill="rgb(39,39,39)" stroke="rgb(39,39,39)" stroke-width="1" opacity="1" d="M 637.5 83 L 638.5 85 L 637.5 83 Z " /><path fill="rgb(39,39,39)" stroke="rgb(39,39,39)" stroke-width="1" opacity="1" d="M 668.5 83 L 667.5 85 L 668.5 83 Z " /><path fill="rgb(39,39,39)" stroke="rgb(39,39,39)" stroke-width="1" opacity="1" d="M 683.5 83 L 688 83.5 L 683.5 84 L 683.5 83 Z " /><path fill="rgb(39,39,39)" stroke="rgb(39,39,39)" stroke-width="1" opacity="1" d="M 763.5 83 L 767 83.5 L 763.5 84 L 763.5 83 Z " /><path fill="rgb(39,39,39)" stroke="rgb(39,39,39)" stroke-width="1" opacity="1" d="M 718.5 85 L 719 94.5 L 718 94.5 L 718.5 85 Z " /><path fill="rgb(39,39,39)" stroke="rgb(39,39,39)" stroke-width="1" opacity="1" d="M 254.5 87 L 255 98.5 L 254 98.5 L 254.5 87 Z " /><path fill="rgb(39,39,39)" stroke="rgb(39,39,39)" stroke-width="1" opacity="1" d="M 132.5 88 L 134 88.5 L 130.5 90 L 130.5 89 L 132.5 88 Z " /><path fill="rgb(39,39,39)" stroke="rgb(39,39,39)" stroke-width="1" opacity="1" d="M 584.5 88 L 585.5 90 L 584.5 88 Z " /><path fill="rgb(39,39,39)" stroke="rgb(39,39,39)" stroke-width="1" opacity="1" d="M 407.5 89 L 408 98.5 L 407 98.5 L 407.5 89 Z " /><path fill="rgb(39,39,39)" stroke="rgb(39,39,39)" stroke-width="1" opacity="1" d="M 587.5 90 L 591.5 95 L 587.5 90 Z " /><path fill="rgb(39,39,39)" stroke="rgb(39,39,39)" stroke-width="1" opacity="1" d="M 557.5 91 L 555.5 94 L 557.5 91 Z " /><path fill="rgb(39,39,39)" stroke="rgb(39,39,39)" stroke-width="1" opacity="1" d="M 114.5 93 L 119 93.5 L 114.5 94 L 114.5 93 Z " /><path fill="rgb(39,39,39)" stroke="rgb(39,39,39)" stroke-width="1" opacity="1" d="M 69.5 94 L 72 94.5 L 69.5 95 L 69.5 94 Z " /><path fill="rgb(39,39,39)" stroke="rgb(39,39,39)" stroke-width="1" opacity="1" d="M 83.5 94 L 88 94.5 L 83.5 95 L 83.5 94 Z " /><path fill="rgb(39,39,39)" stroke="rgb(39,39,39)" stroke-width="1" opacity="1" d="M 103.5 94 L 109 94.5 L 103.5 95 L 103.5 94 Z " /><path fill="rgb(39,39,39)" stroke="rgb(39,39,39)" stroke-width="1" opacity="1" d="M 93.5 102 L 94 182.5 L 93 182.5 L 93.5 102 Z " /><path fill="rgb(39,39,39)" stroke="rgb(39,39,39)" stroke-width="1" opacity="1" d="M 110.5 102 L 117 102.5 L 110.5 103 L 110.5 102 Z " /><path fill="rgb(39,39,39)" stroke="rgb(39,39,39)" stroke-width="1" opacity="1" d="M 118.5 103 L 121 103.5 L 118.5 104 L 118.5 103 Z " /><path fill="rgb(39,39,39)" stroke="rgb(39,39,39)" stroke-width="1" opacity="1" d="M 623.5 104 L 624 106.5 L 623 106.5 L 623.5 104 Z " /><path fill="rgb(39,39,39)" stroke="rgb(39,39,39)" stroke-width="1" opacity="1" d="M 522.5 105 L 523 107.5 L 522 107.5 L 522.5 105 Z " /><path fill="rgb(39,39,39)" stroke="rgb(39,39,39)" stroke-width="1" opacity="1" d="M 349.5 107 L 350.5 109 L 349.5 107 Z " /><path fill="rgb(39,39,39)" stroke="rgb(39,39,39)" stroke-width="1" opacity="1" d="M 597.5 108 L 598 112.5 L 597 112.5 L 597.5 108 Z " /><path fill="rgb(39,39,39)" stroke="rgb(39,39,39)" stroke-width="1" opacity="1" d="M 746.5 108 L 747 118.5 L 746 118.5 L 746.5 108 Z " /><path fill="rgb(39,39,39)" stroke="rgb(39,39,39)" stroke-width="1" opacity="1" d="M 136.5 109 L 141 111.5 L 139.5 111 Q 135.7 110.7 136.5 109 Z " /><path fill="rgb(39,39,39)" stroke="rgb(39,39,39)" stroke-width="1" opacity="1" d="M 288.5 109 L 285.5 113 L 288.5 109 Z " /><path fill="rgb(39,39,39)" stroke="rgb(39,39,39)" stroke-width="1" opacity="1" d="M 638.5 109 L 639 125.5 L 638 125.5 L 638.5 109 Z " /><path fill="rgb(39,39,39)" stroke="rgb(39,39,39)" stroke-width="1" opacity="1" d="M 353.5 110 L 357.5 115 L 353.5 110 Z " /><path fill="rgb(39,39,39)" stroke="rgb(39,39,39)" stroke-width="1" opacity="1" d="M 379.5 112 L 380 160.5 L 379 160.5 L 379.5 112 Z " /><path fill="rgb(39,39,39)" stroke="rgb(39,39,39)" stroke-width="1" opacity="1" d="M 144.5 113 L 145.5 115 L 144.5 113 Z " /><path fill="rgb(39,39,39)" stroke="rgb(39,39,39)" stroke-width="1" opacity="1" d="M 308.5 113 L 309.5 115 L 308.5 113 Z " /><path fill="rgb(39,39,39)" stroke="rgb(39,39,39)" stroke-width="1" opacity="1" d="M 311.5 115 L 312.5 117 L 311.5 115 Z " /><path fill="rgb(39,39,39)" stroke="rgb(39,39,39)" stroke-width="1" opacity="1" d="M 148.5 116 L 149.5 118 L 148.5 116 Z " /><path fill="rgb(39,39,39)" stroke="rgb(39,39,39)" stroke-width="1" opacity="1" d="M 667.5 116 L 668 123.5 L 667 123.5 L 667.5 116 Z " /><path fill="rgb(39,39,39)" stroke="rgb(39,39,39)" stroke-width="1" opacity="1" d="M 283.5 117 L 284 128.5 L 283 128.5 L 283.5 117 Z " /><path fill="rgb(39,39,39)" stroke="rgb(39,39,39)" stroke-width="1" opacity="1" d="M 359.5 117 L 360.5 119 L 359.5 117 Z " /><path fill="rgb(39,39,39)" stroke="rgb(39,39,39)" stroke-width="1" opacity="1" d="M 597.5 117 L 598 121.5 L 597 121.5 L 597.5 117 Z " /><path fill="rgb(39,39,39)" stroke="rgb(39,39,39)" stroke-width="1" opacity="1" d="M 152.5 119 L 161.5 129 L 152.5 119 Z " /><path fill="rgb(39,39,39)" stroke="rgb(39,39,39)" stroke-width="1" opacity="1" d="M 717.5 120 L 718 147.5 L 717 147.5 L 717.5 120 Z " /><path fill="rgb(39,39,39)" stroke="rgb(39,39,39)" stroke-width="1" opacity="1" d="M 320.5 124 L 321.5 126 L 320.5 124 Z " /><path fill="rgb(39,39,39)" stroke="rgb(39,39,39)" stroke-width="1" opacity="1" d="M 522.5 124 L 523 126.5 L 522 126.5 L 522.5 124 Z " /><path fill="rgb(39,39,39)" stroke="rgb(39,39,39)" stroke-width="1" opacity="1" d="M 623.5 125 L 624 127.5 L 623 127.5 L 623.5 125 Z " /><path fill="rgb(39,39,39)" stroke="rgb(39,39,39)" stroke-width="1" opacity="1" d="M 253.5 126 L 254 161.5 L 253 161.5 L 253.5 126 Z " /><path fill="rgb(39,39,39)" stroke="rgb(39,39,39)" stroke-width="1" opacity="1" d="M 323.5 128 L 324.5 130 L 323.5 128 Z " /><path fill="rgb(39,39,39)" stroke="rgb(39,39,39)" stroke-width="1" opacity="1" d="M 163.5 131 L 164.5 133 L 163.5 131 Z " /><path fill="rgb(39,39,39)" stroke="rgb(39,39,39)" stroke-width="1" opacity="1" d="M 747.5 131 L 748 136.5 L 747 136.5 L 747.5 131 Z " /><path fill="rgb(39,39,39)" stroke="rgb(39,39,39)" stroke-width="1" opacity="1" d="M 593.5 133 L 592.5 135 L 593.5 133 Z " /><path fill="rgb(39,39,39)" stroke="rgb(39,39,39)" stroke-width="1" opacity="1" d="M 166.5 135 L 167.5 137 L 166.5 135 Z " /><path fill="rgb(39,39,39)" stroke="rgb(39,39,39)" stroke-width="1" opacity="1" d="M 668.5 135 L 669 140.5 L 668 140.5 L 668.5 135 Z " /><path fill="rgb(39,39,39)" stroke="rgb(39,39,39)" stroke-width="1" opacity="1" d="M 284.5 136 L 285 138.5 L 284 138.5 L 284.5 136 Z " /><path fill="rgb(39,39,39)" stroke="rgb(39,39,39)" stroke-width="1" opacity="1" d="M 472.5 136 L 470.5 139 L 472.5 136 Z " /><path fill="rgb(39,39,39)" stroke="rgb(39,39,39)" stroke-width="1" opacity="1" d="M 168.5 138 L 169.5 140 L 168.5 138 Z " /><path fill="rgb(39,39,39)" stroke="rgb(39,39,39)" stroke-width="1" opacity="1" d="M 557.5 138 L 559.5 141 L 557.5 138 Z " /><path fill="rgb(39,39,39)" stroke="rgb(39,39,39)" stroke-width="1" opacity="1" d="M 586.5 140 L 585.5 142 L 586.5 140 Z " /><path fill="rgb(39,39,39)" stroke="rgb(39,39,39)" stroke-width="1" opacity="1" d="M 285.5 144 L 286 146.5 L 285 146.5 L 285.5 144 Z " /><path fill="rgb(39,39,39)" stroke="rgb(39,39,39)" stroke-width="1" opacity="1" d="M 570.5 144 L 576 144.5 L 570.5 145 L 570.5 144 Z " /><path fill="rgb(39,39,39)" stroke="rgb(39,39,39)" stroke-width="1" opacity="1" d="M 748.5 146 L 749 150.5 L 748 150.5 L 748.5 146 Z " /><path fill="rgb(39,39,39)" stroke="rgb(39,39,39)" stroke-width="1" opacity="1" d="M 530.5 147 L 532.5 150 L 530.5 147 Z " /><path fill="rgb(39,39,39)" stroke="rgb(39,39,39)" stroke-width="1" opacity="1" d="M 615.5 147 L 614.5 149 L 615.5 147 Z " /><path fill="rgb(39,39,39)" stroke="rgb(39,39,39)" stroke-width="1" opacity="1" d="M 370.5 149 L 371 151.5 L 370 151.5 L 370.5 149 Z " /><path fill="rgb(39,39,39)" stroke="rgb(39,39,39)" stroke-width="1" opacity="1" d="M 669.5 149 L 670 153.5 L 669 153.5 L 669.5 149 Z " /><path fill="rgb(39,39,39)" stroke="rgb(39,39,39)" stroke-width="1" opacity="1" d="M 286.5 151 L 287 153.5 L 286 153.5 L 286.5 151 Z " /><path fill="rgb(39,39,39)" stroke="rgb(39,39,39)" stroke-width="1" opacity="1" d="M 612.5 151 L 609.5 155 L 612.5 151 Z " /><path fill="rgb(39,39,39)" stroke="rgb(39,39,39)" stroke-width="1" opacity="1" d="M 334.5 155 L 335 157.5 L 334 157.5 L 334.5 155 Z " /><path fill="rgb(39,39,39)" stroke="rgb(39,39,39)" stroke-width="1" opacity="1" d="M 538.5 155 L 540.5 158 L 538.5 155 Z " /><path fill="rgb(39,39,39)" stroke="rgb(39,39,39)" stroke-width="1" opacity="1" d="M 177.5 157 L 178 159.5 L 177 159.5 L 177.5 157 Z " /><path fill="rgb(39,39,39)" stroke="rgb(39,39,39)" stroke-width="1" opacity="1" d="M 749.5 158 L 750 160.5 L 749 160.5 L 749.5 158 Z " /><path fill="rgb(39,39,39)" stroke="rgb(39,39,39)" stroke-width="1" opacity="1" d="M 178.5 161 L 179 163.5 L 178 163.5 L 178.5 161 Z " /><path fill="rgb(39,39,39)" stroke="rgb(39,39,39)" stroke-width="1" opacity="1" d="M 335.5 162 L 337.5 165 L 335.5 162 Z " /><path fill="rgb(39,39,39)" stroke="rgb(39,39,39)" stroke-width="1" opacity="1" d="M 451.5 162 L 452.5 164 L 451.5 162 Z " /><path fill="rgb(39,39,39)" stroke="rgb(39,39,39)" stroke-width="1" opacity="1" d="M 485.5 163 L 484.5 165 L 485.5 163 Z " /><path fill="rgb(39,39,39)" stroke="rgb(39,39,39)" stroke-width="1" opacity="1" d="M 639.5 163 L 640.5 165 L 639.5 163 Z " /><path fill="rgb(39,39,39)" stroke="rgb(39,39,39)" stroke-width="1" opacity="1" d="M 258.5 165 L 262 165.5 L 258.5 166 L 258.5 165 Z " /><path fill="rgb(39,39,39)" stroke="rgb(39,39,39)" stroke-width="1" opacity="1" d="M 280.5 165 L 283 165.5 L 280.5 166 L 280.5 165 Z " /><path fill="rgb(39,39,39)" stroke="rgb(39,39,39)" stroke-width="1" opacity="1" d="M 341.5 165 L 345 165.5 L 341.5 166 L 341.5 165 Z " /><path fill="rgb(39,39,39)" stroke="rgb(39,39,39)" stroke-width="1" opacity="1" d="M 362.5 165 L 365 165.5 L 362.5 166 L 362.5 165 Z " /><path fill="rgb(39,39,39)" stroke="rgb(39,39,39)" stroke-width="1" opacity="1" d="M 401.5 165 L 404 165.5 L 401.5 166 L 401.5 165 Z " /><path fill="rgb(39,39,39)" stroke="rgb(39,39,39)" stroke-width="1" opacity="1" d="M 457.5 165 L 460 165.5 L 457.5 166 L 457.5 165 Z " /><path fill="rgb(39,39,39)" stroke="rgb(39,39,39)" stroke-width="1" opacity="1" d="M 479.5 165 L 482 165.5 L 479.5 166 L 479.5 165 Z " /><path fill="rgb(39,39,39)" stroke="rgb(39,39,39)" stroke-width="1" opacity="1" d="M 643.5 165 L 646 165.5 L 643.5 166 L 643.5 165 Z " /><path fill="rgb(39,39,39)" stroke="rgb(39,39,39)" stroke-width="1" opacity="1" d="M 662.5 165 L 666 165.5 L 662.5 166 L 662.5 165 Z " /><path fill="rgb(39,39,39)" stroke="rgb(39,39,39)" stroke-width="1" opacity="1" d="M 722.5 165 L 725 165.5 L 722.5 166 L 722.5 165 Z " /><path fill="rgb(39,39,39)" stroke="rgb(39,39,39)" stroke-width="1" opacity="1" d="M 742.5 165 L 745 165.5 L 742.5 166 L 742.5 165 Z " /><path fill="rgb(39,39,39)" stroke="rgb(39,39,39)" stroke-width="1" opacity="1" d="M 179.5 166 L 180 168.5 L 179 168.5 L 179.5 166 Z " /><path fill="rgb(39,39,39)" stroke="rgb(39,39,39)" stroke-width="1" opacity="1" d="M 566.5 166 L 572 166.5 L 566.5 167 L 566.5 166 Z " /><path fill="rgb(39,39,39)" stroke="rgb(39,39,39)" stroke-width="1" opacity="1" d="M 575.5 166 L 581 166.5 L 575.5 167 L 575.5 166 Z " /><path fill="rgb(39,39,39)" stroke="rgb(39,39,39)" stroke-width="1" opacity="1" d="M 180.5 171 L 181 174.5 L 180 174.5 L 180.5 171 Z " /><path fill="rgb(39,39,39)" stroke="rgb(39,39,39)" stroke-width="1" opacity="1" d="M 181.5 179 L 182 182.5 L 181 182.5 L 181.5 179 Z " /><path fill="rgb(0,0,0)" stroke="rgb(0,0,0)" stroke-width="1" opacity="0.9921568627450981" d="M 0 0 L 799.5 0 L 800 0.5 L 800 200 L 0.5 200 L 0 199.5 L 0 0 Z M 1 1 L 1 199 L 2 199 L 799 199 L 799 2 L 799 1 L 1 1 Z " /><path fill="rgb(0,0,0)" stroke="rgb(0,0,0)" stroke-width="1" opacity="1" d="M 1 1 L 798.5 1 L 799 1.5 L 799 199 L 1.5 199 L 1 198.5 L 1 1 Z M 17 15 L 17 95 L 94 95 L 94 15 L 17 15 Z M 101 15 L 101 95 L 119 94 L 132 90 Q 146 84 157 74 Q 168 63 175 48 L 179 36 L 182 20 Q 182 15 182 15 L 101 15 Z M 394 29 L 384 32 L 378 40 Q 377 47 380 51 L 388 56 Q 397 58 403 55 Q 409 52 410 45 L 409 38 L 406 33 L 403 31 L 394 29 Z M 667 30 L 656 33 L 648 38 Q 638 46 640 65 L 628 65 L 623 69 Q 622 78 624 82 Q 628 84 637 83 L 639 86 L 639 109 L 638 110 L 638 162 L 639 164 L 644 166 L 666 166 L 670 163 L 669 136 L 668 135 L 668 117 L 667 116 L 667 86 L 670 83 L 695 84 L 698 80 Q 700 68 695 65 L 683 65 L 682 66 L 670 64 L 667 61 L 668 57 L 676 52 Q 687 52 692 59 L 696 58 L 697 56 L 697 39 L 696 37 Q 686 28 667 30 Z M 746 30 L 735 33 L 730 36 Q 721 41 719 53 L 720 64 L 719 65 L 707 65 L 705 66 L 702 70 Q 701 77 703 81 L 706 83 L 717 83 L 718 85 L 718 120 L 717 121 L 717 162 L 718 164 L 723 166 L 745 166 L 749 164 L 750 161 Q 748 155 749 147 L 748 146 L 748 132 L 747 131 L 747 109 L 746 108 L 746 88 L 749 83 L 763 83 L 764 84 Q 772 85 776 83 L 777 81 L 777 69 L 776 66 L 774 65 L 763 65 L 762 66 L 752 65 L 747 62 L 748 56 L 755 52 L 762 53 L 771 59 L 774 59 L 776 57 L 776 38 Q 766 28 746 30 Z M 262 36 L 259 37 L 256 41 L 255 87 L 254 88 L 254 126 L 253 127 L 253 162 L 254 164 L 259 166 L 283 166 L 287 163 L 287 152 L 284 136 L 284 116 L 290 109 Q 299 108 304 111 L 314 117 Q 332 132 335 163 L 338 165 L 342 166 L 365 166 L 370 164 L 371 162 Q 372 131 358 115 L 347 105 L 330 98 L 323 97 L 319 95 L 323 92 L 337 88 L 350 80 Q 358 73 362 62 L 364 54 L 364 40 L 360 36 L 338 36 L 336 37 L 333 41 Q 333 50 329 57 L 323 67 L 312 77 L 303 81 Q 296 79 295 82 L 289 80 L 284 75 L 284 56 L 287 44 L 286 39 L 281 36 L 262 36 Z M 392 64 L 382 66 Q 380 71 381 82 L 380 83 L 380 112 L 379 113 L 379 161 L 380 164 L 385 166 L 404 166 L 408 163 L 408 90 L 407 89 Q 409 76 406 68 L 403 65 L 392 64 Z M 427 64 L 417 66 L 416 69 Q 427 122 451 163 L 458 166 L 482 166 L 485 165 L 492 155 L 501 136 L 517 92 L 523 70 L 522 68 L 519 65 Q 512 67 511 64 L 504 64 L 494 66 L 491 70 L 490 84 L 485 105 L 473 136 L 469 139 L 462 128 L 453 103 L 448 80 L 448 73 L 446 66 L 436 64 L 427 64 Z M 564 64 Q 548 67 539 75 Q 525 85 522 106 L 522 127 Q 524 139 530 148 Q 536 156 546 161 L 556 165 L 567 167 Q 595 168 610 155 Q 621 145 624 128 L 624 105 Q 621 91 614 82 Q 606 72 595 67 L 584 64 L 564 64 Z M 17 102 L 17 183 L 94 183 L 94 102 L 17 102 Z M 101 102 L 101 183 L 182 183 L 178 158 L 170 140 L 162 129 Q 152 117 138 109 L 117 102 L 101 102 Z " /><path fill="rgb(0,0,0)" stroke="rgb(0,0,0)" stroke-width="1" opacity="1" d="M 569.5 86 Q 587.2 85.3 593 96.5 L 596 102.5 L 598 116.5 L 595 130.5 L 587.5 140 Q 581.5 146 567.5 144 L 563.5 143 L 555 136.5 L 549 122.5 L 549 108.5 Q 551 96 559.5 90 L 569.5 86 Z " /><path fill="rgb(254,254,254)" stroke="rgb(254,254,254)" stroke-width="1" opacity="1" d="M 18 16 L 93 16 L 93 94 L 18 94 L 18 16 Z M 20 18 L 20 92 L 91 92 L 91 18 L 20 18 Z " /><path fill="rgb(254,254,254)" stroke="rgb(254,254,254)" stroke-width="1" opacity="1" d="M 102 16 L 179.5 16 L 180 18.5 L 179 18.5 L 178.5 17 L 104 17 L 104 91.5 L 106.5 92 L 110.5 93 L 113.5 91 L 115.5 92 L 121.5 90 L 120.5 92 L 110.5 94 L 102 94 L 102 16 Z " /><path fill="rgb(254,254,254)" stroke="rgb(254,254,254)" stroke-width="1" opacity="1" d="M 178 20 L 180 20.5 L 180 27 Q 177.3 25.9 178 28.5 L 178 32.5 Q 178 39.5 174 42.5 L 175 44.5 L 171 50.5 Q 173.5 52 170 53.5 Q 164 66.5 153.5 75 L 150.5 77 L 135.5 87 L 134 86.5 Q 134.8 89.1 131.5 88 L 124.5 91 L 123.5 89 L 125.5 90 L 126.5 88 L 128.5 88 Q 143.1 83.1 153 73.5 Q 152.3 71.3 154.5 72 Q 171.5 57.7 176 32 L 178 31.5 L 177 27.5 L 178 26.5 L 178 20 Z " /><path fill="rgb(254,254,254)" stroke="rgb(254,254,254)" stroke-width="1" opacity="1" d="M 382.5 34 L 381.5 36 L 382.5 34 Z " /><path fill="rgb(254,254,254)" stroke="rgb(254,254,254)" stroke-width="1" opacity="1" d="M 363.5 43 L 364 45.5 L 363 45.5 L 363.5 43 Z " /><path fill="rgb(254,254,254)" stroke="rgb(254,254,254)" stroke-width="1" opacity="1" d="M 381.5 50 L 382.5 52 L 381.5 50 Z " /><path fill="rgb(254,254,254)" stroke="rgb(254,254,254)" stroke-width="1" opacity="1" d="M 675.5 51 L 679 51.5 L 675.5 52 L 675.5 51 Z " /><path fill="rgb(254,254,254)" stroke="rgb(254,254,254)" stroke-width="1" opacity="1" d="M 766.5 54 L 767.5 56 L 766.5 54 Z " /><path fill="rgb(254,254,254)" stroke="rgb(254,254,254)" stroke-width="1" opacity="1" d="M 256.5 55 L 257 57.5 L 256 57.5 L 256.5 55 Z " /><path fill="rgb(254,254,254)" stroke="rgb(254,254,254)" stroke-width="1" opacity="1" d="M 688.5 55 L 689.5 57 L 688.5 55 Z " /><path fill="rgb(254,254,254)" stroke="rgb(254,254,254)" stroke-width="1" opacity="1" d="M 774.5 56 L 773.5 58 L 774.5 56 Z " /><path fill="rgb(254,254,254)" stroke="rgb(254,254,254)" stroke-width="1" opacity="1" d="M 720.5 61 L 721 63.5 L 720 63.5 L 720.5 61 Z " /><path fill="rgb(254,254,254)" stroke="rgb(254,254,254)" stroke-width="1" opacity="1" d="M 325.5 64 L 324.5 66 L 325.5 64 Z " /><path fill="rgb(254,254,254)" stroke="rgb(254,254,254)" stroke-width="1" opacity="1" d="M 677.5 66 L 681 66.5 L 677.5 67 L 677.5 66 Z " /><path fill="rgb(254,254,254)" stroke="rgb(254,254,254)" stroke-width="1" opacity="1" d="M 756.5 66 L 760 66.5 L 756.5 67 L 756.5 66 Z " /><path fill="rgb(254,254,254)" stroke="rgb(254,254,254)" stroke-width="1" opacity="1" d="M 322.5 68 L 321.5 70 L 322.5 68 Z " /><path fill="rgb(254,254,254)" stroke="rgb(254,254,254)" stroke-width="1" opacity="1" d="M 317.5 73 L 316.5 75 L 317.5 73 Z " /><path fill="rgb(254,254,254)" stroke="rgb(254,254,254)" stroke-width="1" opacity="1" d="M 606.5 75 L 612.5 82 L 606.5 75 Z " /><path fill="rgb(254,254,254)" stroke="rgb(254,254,254)" stroke-width="1" opacity="1" d="M 537.5 77 L 535.5 80 L 537.5 77 Z " /><path fill="rgb(254,254,254)" stroke="rgb(254,254,254)" stroke-width="1" opacity="1" d="M 285.5 78 L 287.5 81 L 285.5 78 Z " /><path fill="rgb(254,254,254)" stroke="rgb(254,254,254)" stroke-width="1" opacity="1" d="M 346.5 80 L 345.5 82 L 346.5 80 Z " /><path fill="rgb(254,254,254)" stroke="rgb(254,254,254)" stroke-width="1" opacity="1" d="M 255.5 82 L 256 84.5 L 255 84.5 L 255.5 82 Z " /><path fill="rgb(254,254,254)" stroke="rgb(254,254,254)" stroke-width="1" opacity="1" d="M 747.5 82 L 746.5 84 L 747.5 82 Z " /><path fill="rgb(254,254,254)" stroke="rgb(254,254,254)" stroke-width="1" opacity="1" d="M 587.5 89 L 588.5 91 L 587.5 89 Z " /><path fill="rgb(254,254,254)" stroke="rgb(254,254,254)" stroke-width="1" opacity="1" d="M 556.5 91 L 554.5 94 L 556.5 91 Z " /><path fill="rgb(254,254,254)" stroke="rgb(254,254,254)" stroke-width="1" opacity="1" d="M 745.5 92 L 746 102.5 L 745 102.5 L 745.5 92 Z " /><path fill="rgb(254,254,254)" stroke="rgb(254,254,254)" stroke-width="1" opacity="1" d="M 639.5 102 L 640 105.5 L 639 105.5 L 639.5 102 Z " /><path fill="rgb(254,254,254)" stroke="rgb(254,254,254)" stroke-width="1" opacity="1" d="M 18 103 L 93 103 L 93 183 L 18 183 L 18 103 Z M 20 105 L 20 182 L 91 182 L 91 105 L 20 105 Z " /><path fill="rgb(254,254,254)" stroke="rgb(254,254,254)" stroke-width="1" opacity="1" d="M 102 103 L 112.5 103 Q 114 105.5 119.5 104 L 121 105.5 L 118.5 106 L 108.5 104 L 104 105 L 104 182 L 144.5 182 L 144.5 183 L 102 183 L 102 103 Z " /><path fill="rgb(254,254,254)" stroke="rgb(254,254,254)" stroke-width="1" opacity="1" d="M 380.5 104 L 381 108.5 L 380 108.5 L 380.5 104 Z " /><path fill="rgb(254,254,254)" stroke="rgb(254,254,254)" stroke-width="1" opacity="1" d="M 122 105 Q 125 104 124 107 Q 121 108 122 105 Z " /><path fill="rgb(254,254,254)" stroke="rgb(254,254,254)" stroke-width="1" opacity="1" d="M 125 106 Q 130.4 106.3 133.5 110 L 135.5 110 L 145.5 115 L 155 122 L 156.5 125 L 159 126.5 L 168 138.5 L 167 139.5 L 170 142.5 L 172 145.5 L 171.5 147 Q 174.1 146.2 173 149.5 L 176 154.5 L 174.5 157 L 174 155.5 L 174.5 154 Q 172.3 154.8 173 152.5 L 166 137.5 L 159 128 Q 156.3 129.1 157 126.5 Q 154.7 122.4 150 122 L 148.5 119 Q 145.2 120.1 146 117.5 L 143.5 115 L 126.5 107 L 125 107.5 L 125 106 Z " /><path fill="rgb(254,254,254)" stroke="rgb(254,254,254)" stroke-width="1" opacity="1" d="M 287.5 109 L 285.5 112 L 287.5 109 Z " /><path fill="rgb(254,254,254)" stroke="rgb(254,254,254)" stroke-width="1" opacity="1" d="M 666.5 111 L 667 113.5 L 666 113.5 L 666.5 111 Z " /><path fill="rgb(254,254,254)" stroke="rgb(254,254,254)" stroke-width="1" opacity="1" d="M 623.5 112 L 624 114.5 L 623 114.5 L 623.5 112 Z " /><path fill="rgb(254,254,254)" stroke="rgb(254,254,254)" stroke-width="1" opacity="1" d="M 718.5 113 L 719 116.5 L 718 116.5 L 718.5 113 Z " /><path fill="rgb(254,254,254)" stroke="rgb(254,254,254)" stroke-width="1" opacity="1" d="M 311.5 114 L 312.5 116 L 311.5 114 Z " /><path fill="rgb(254,254,254)" stroke="rgb(254,254,254)" stroke-width="1" opacity="1" d="M 522.5 114 L 523 117.5 L 522 117.5 L 522.5 114 Z " /><path fill="rgb(254,254,254)" stroke="rgb(254,254,254)" stroke-width="1" opacity="1" d="M 598.5 114 L 599 116.5 L 598 116.5 L 598.5 114 Z " /><path fill="rgb(254,254,254)" stroke="rgb(254,254,254)" stroke-width="1" opacity="1" d="M 623.5 117 L 624 119.5 L 623 119.5 L 623.5 117 Z " /><path fill="rgb(254,254,254)" stroke="rgb(254,254,254)" stroke-width="1" opacity="1" d="M 254.5 118 L 255 123.5 L 254 123.5 L 254.5 118 Z " /><path fill="rgb(254,254,254)" stroke="rgb(254,254,254)" stroke-width="1" opacity="1" d="M 407.5 125 L 408 158.5 L 407 158.5 L 407.5 125 Z " /><path fill="rgb(254,254,254)" stroke="rgb(254,254,254)" stroke-width="1" opacity="1" d="M 591.5 137 L 590.5 139 L 591.5 137 Z " /><path fill="rgb(254,254,254)" stroke="rgb(254,254,254)" stroke-width="1" opacity="1" d="M 539.5 155 L 540.5 157 L 539.5 155 Z " /><path fill="rgb(254,254,254)" stroke="rgb(254,254,254)" stroke-width="1" opacity="1" d="M 175.5 158 L 177 159.5 L 179 168.5 L 177.5 171 L 177 167.5 L 177.5 166 Q 174.8 166.6 176 160.5 L 175.5 158 Z " /><path fill="rgb(254,254,254)" stroke="rgb(254,254,254)" stroke-width="1" opacity="1" d="M 336.5 162 L 337.5 164 L 336.5 162 Z " /><path fill="rgb(254,254,254)" stroke="rgb(254,254,254)" stroke-width="1" opacity="1" d="M 178 172 Q 181.5 170.9 180 178.5 L 180 180.5 L 179.5 182 L 166 182 L 166.5 180 L 178 180 L 178 172 Z " /><path fill="rgb(255,255,255)" stroke="rgb(255,255,255)" stroke-width="1" opacity="1" d="M 104 17 L 178.5 17 L 179 18.5 L 179.5 20 Q 176.5 19.5 178 26.5 L 179 28.5 L 178 28.5 L 177.5 27 L 177 30.5 L 179 30.5 L 176 32 L 175 39.5 L 176 41.5 L 173 42.5 L 171 49.5 L 171.5 51 L 170 50.5 Q 164.5 63.5 154.5 72 Q 152.3 71.3 153 73.5 L 140 82.5 L 140.5 84 L 138.5 83 L 134 85.5 L 134.5 87 L 132.5 86 L 127.5 89 L 126 88.5 L 125.5 90 L 123.5 89 L 123.5 91 L 120.5 90 L 114.5 92 L 112.5 91 Q 111.8 93.8 107.5 93 L 104 92 L 104 17 Z " /><path fill="rgb(255,255,255)" stroke="rgb(255,255,255)" stroke-width="1" opacity="1" d="M 20 18 L 91 18 L 91 92 L 20 92 L 20 18 Z " /><path fill="rgb(255,255,255)" stroke="rgb(255,255,255)" stroke-width="1" opacity="1" d="M 393.5 30 L 399.5 31 L 407 36.5 L 409 44.5 Q 407.8 50.3 403.5 53 L 393.5 56 L 385.5 54 L 380 48.5 L 379 40.5 Q 380.4 34.4 385.5 32 L 393.5 30 Z " /><path fill="rgb(255,255,255)" stroke="rgb(255,255,255)" stroke-width="1" opacity="1" d="M 666.5 31 L 679.5 31 L 688.5 33 L 695 36 L 696 38.5 L 696 55.5 Q 695.5 58.5 691.5 58 Q 686.7 51.3 675.5 51 L 671.5 52 L 667 56.5 Q 665.5 63.5 669.5 65 L 680.5 67 L 681.5 66 L 694.5 66 Q 699.1 69.4 697 79.5 L 694.5 83 L 668.5 82 L 666 85.5 L 666 113.5 L 667 114.5 L 667 134.5 L 668 135.5 L 669 162.5 L 665.5 165 L 643.5 165 L 639 161.5 L 640 84.5 L 637.5 82 L 626.5 82 L 624 79.5 Q 622.7 70.6 625 67 L 627.5 66 L 639.5 66 L 641 64.5 Q 638.8 43.8 650.5 37 L 658.5 33 L 666.5 31 Z " /><path fill="rgb(255,255,255)" stroke="rgb(255,255,255)" stroke-width="1" opacity="1" d="M 746.5 31 L 758.5 31 L 770.5 34 L 774 36.5 L 775 38.5 L 775 55.5 Q 774.5 58.5 770.5 58 Q 765.8 51.2 754.5 51 Q 748.8 52.3 746 56.5 Q 744.5 63.5 748.5 65 L 759.5 67 L 760.5 66 L 773.5 66 L 776 68.5 L 776 80.5 L 773.5 83 L 762.5 83 L 761.5 82 L 747.5 82 L 746 83.5 L 745 102.5 L 746 103.5 L 746 130.5 L 747 131.5 L 747 144.5 L 748 145.5 Q 746.5 155 749 160.5 L 746.5 164 L 744.5 165 L 722.5 165 L 718 161.5 L 719 84.5 L 716.5 82 Q 707.6 83.2 704 81 Q 702 78 703 70.5 L 706.5 66 L 718.5 66 L 721 63.5 L 720 52.5 Q 722.1 43.1 728.5 38 L 737.5 33 L 746.5 31 Z " /><path fill="rgb(255,255,255)" stroke="rgb(255,255,255)" stroke-width="1" opacity="1" d="M 261.5 37 L 281.5 37 L 286 40.5 L 283 56.5 L 283 75.5 L 287.5 81 L 289.5 82 L 302.5 82 Q 315.9 78.4 323 68.5 Q 332.1 58.1 334 40.5 L 337.5 37 L 359.5 37 L 363 39.5 L 364 42.5 L 363 43.5 L 363 53.5 L 360 63.5 Q 355.8 73.8 347.5 80 L 333.5 88 L 322.5 91 L 319 93.5 Q 317.5 97.9 320.5 97 Q 334.2 99.3 344.5 105 L 359 117.5 Q 365 126 368 137.5 L 370 148.5 L 370 161.5 L 365.5 165 L 340.5 165 L 336 161.5 Q 332.4 129.1 311.5 114 L 301.5 109 L 289.5 108 L 285 111.5 L 283 115.5 L 283 134.5 L 284 135.5 L 284 143.5 L 287 160.5 L 284.5 164 L 282.5 165 L 258.5 165 L 254 161.5 L 256 58.5 L 257 57.5 L 257 41.5 L 259.5 38 L 261.5 37 Z " /><path fill="rgb(255,255,255)" stroke="rgb(255,255,255)" stroke-width="1" opacity="1" d="M 390.5 65 L 397.5 65 L 405 67 Q 407.3 74.5 406 87.5 L 407 88.5 L 407 158.5 L 408 159.5 L 405.5 164 L 403.5 165 L 384.5 165 L 381 162.5 L 380 160.5 L 380 109.5 L 381 108.5 L 382 69.5 L 384.5 66 Q 389.3 67.3 390.5 65 Z " /><path fill="rgb(255,255,255)" stroke="rgb(255,255,255)" stroke-width="1" opacity="1" d="M 426.5 65 L 443.5 66 L 446 68.5 L 448 85.5 L 453 106.5 L 463 132.5 L 468.5 140 Q 472.5 140.5 473 137.5 L 484 111.5 L 490 89.5 L 492 70.5 L 495.5 66 L 511.5 65 L 521 67 L 522 70.5 L 504 125.5 L 486 163 L 481.5 165 L 457.5 165 L 451 160.5 Q 428 120.5 417 68.5 L 419.5 66 Q 425 67.5 426.5 65 Z " /><path fill="rgb(255,255,255)" stroke="rgb(255,255,255)" stroke-width="1" opacity="1" d="M 563.5 65 Q 600.5 62.5 614 83.5 L 622 100.5 L 624 116.5 L 623 117.5 L 623 127.5 L 620 137.5 Q 615.6 149.1 606.5 156 Q 592.9 167.4 566.5 166 L 552.5 163 Q 540.5 158.5 533 149.5 Q 520 135.5 523 105.5 Q 527 84.5 541.5 74 Q 550.4 67.4 563.5 65 Z M 570 85 Q 561 86 557 91 Q 550 97 548 108 L 548 123 L 553 136 Q 557 143 567 145 Q 584 147 591 139 L 597 129 L 598 118 L 599 117 L 597 103 L 593 95 Q 586 85 570 85 Z " /><path fill="rgb(255,255,255)" stroke="rgb(255,255,255)" stroke-width="1" opacity="1" d="M 108.5 104 L 120.5 106 L 122 105.5 Q 121.3 107.8 123.5 107 L 125 106.5 L 125.5 108 L 127.5 108 L 130.5 109 L 132.5 108 L 133.5 111 L 143.5 115 L 146 117.5 Q 145.2 120.1 148.5 119 L 150 122 Q 154.7 122.5 157 126.5 L 159 129.5 L 166 137.5 L 166.5 140 Q 167.8 137.8 169 140.5 L 168 142.5 L 170.5 147 L 172 146.5 L 171 148.5 L 173 154 L 176 155.5 L 175 159.5 L 176 166 L 178 166.5 L 177 170.5 L 178 170.5 L 178.5 169 L 179 171.5 L 178 172.5 L 178 180 L 166.5 180 L 165.5 182 L 104 182 L 104 105.5 L 107.5 105 L 108.5 104 Z " /><path fill="rgb(255,255,255)" stroke="rgb(255,255,255)" stroke-width="1" opacity="1" d="M 20 105 L 91 105 L 91 182 L 20 182 L 20 105 Z " /></svg>