<?xml version="1.0" encoding="UTF-8"?>
<!DOCTYPE svg PUBLIC "-//W3C//DTD SVG 1.1//EN" "http://www.w3.org/Graphics/SVG/1.1/DTD/svg11.dtd">
<svg xmlns="http://www.w3.org/2000/svg" version="1.1" width="1024px" height="1024px" style="shape-rendering:geometricPrecision; text-rendering:geometricPrecision; image-rendering:optimizeQuality; fill-rule:evenodd; clip-rule:evenodd" xmlns:xlink="http://www.w3.org/1999/xlink">
<g><path style="opacity:1" fill="#000000" d="M -0.5,-0.5 C 340.833,-0.5 682.167,-0.5 1023.5,-0.5C 1023.5,340.833 1023.5,682.167 1023.5,1023.5C 682.167,1023.5 340.833,1023.5 -0.5,1023.5C -0.5,682.167 -0.5,340.833 -0.5,-0.5 Z"/></g>
<g><path style="opacity:1" fill="#fefefe" d="M 403.5,619.5 C 403.44,618.957 403.107,618.624 402.5,618.5C 401.169,678.665 401.169,738.665 402.5,798.5C 402.667,816.836 402.5,835.17 402,853.5C 324.225,776.058 246.891,698.392 170,620.5C 169.5,560.168 169.333,499.834 169.5,439.5C 169.167,359.332 169.501,279.332 170.5,199.5C 247.465,276.965 324.632,354.299 402,431.5C 479.14,354.693 555.973,277.527 632.5,200C 669.25,198.839 706.083,198.339 743,198.5C 779.167,198.833 815.333,199.167 851.5,199.5C 775.095,276.74 698.761,354.24 622.5,432C 549.5,432.333 476.5,432.667 403.5,433C 543.5,573 683.5,713 823.5,853C 759.833,853.667 696.167,853.667 632.5,853C 555.937,775.272 479.604,697.438 403.5,619.5 Z"/></g>
<g><path style="opacity:1" fill="#5b5b5b" d="M 170.5,199.5 C 169.501,279.332 169.167,359.332 169.5,439.5C 168.168,359.332 168.168,278.999 169.5,198.5C 170.107,198.624 170.44,198.957 170.5,199.5 Z"/></g>
<g><path style="opacity:1" fill="#a1a1a1" d="M 403.5,619.5 C 402.501,678.998 402.168,738.664 402.5,798.5C 401.169,738.665 401.169,678.665 402.5,618.5C 403.107,618.624 403.44,618.957 403.5,619.5 Z"/></g>
</svg>
