<?xml version="1.0" encoding="UTF-8"?>
<!DOCTYPE svg PUBLIC "-//W3C//DTD SVG 1.1//EN" "http://www.w3.org/Graphics/SVG/1.1/DTD/svg11.dtd">
<svg xmlns="http://www.w3.org/2000/svg" version="1.1" width="1024px" height="1024px" style="shape-rendering:geometricPrecision; text-rendering:geometricPrecision; image-rendering:optimizeQuality; fill-rule:evenodd; clip-rule:evenodd" xmlns:xlink="http://www.w3.org/1999/xlink">
<g><path style="opacity:0.989" fill="#000000" d="M 942.5,60.5 C 946.514,60.3345 950.514,60.5012 954.5,61C 955.308,61.3076 955.975,61.8076 956.5,62.5C 955.454,110.233 946.621,156.566 930,201.5C 873.369,347.802 769.535,441.968 618.5,484C 585.65,492.273 552.317,495.607 518.5,494C 517.334,350.236 517.168,206.403 518,62.5C 659.598,61.8341 801.098,61.1675 942.5,60.5 Z"/></g>
<g><path style="opacity:0.995" fill="#000000" d="M 67.5,62.5 C 69.6547,62.372 71.6547,62.872 73.5,64C 210.9,64.4881 348.233,64.6547 485.5,64.5C 486.833,207.167 486.833,349.833 485.5,492.5C 345.207,493.665 204.873,493.832 64.5,493C 64,492.5 63.5,492 63,491.5C 65.1063,352.058 64.9397,212.392 62.5,72.5C 62.8333,70.1667 63.1667,67.8333 63.5,65.5C 65.261,64.9649 66.5943,63.9649 67.5,62.5 Z"/></g>
<g><path style="opacity:0.993" fill="#000000" d="M 67.5,520.5 C 207.145,521.494 346.812,521.827 486.5,521.5C 486.667,668.167 486.5,814.834 486,961.5C 346.863,962.167 207.696,962.834 68.5,963.5C 66.3855,962.966 64.5522,961.966 63,960.5C 62.9613,871.49 63.4613,782.49 64.5,693.5C 63.7467,649.705 63.0801,605.871 62.5,562C 62.6667,549.5 62.8333,537 63,524.5C 63.9066,522.391 65.4066,521.058 67.5,520.5 Z"/></g>
<g><path style="opacity:0.99" fill="#000000" d="M 518.5,521.5 C 638.168,520.513 740.501,561.68 825.5,645C 876.341,697.22 912.174,758.387 933,828.5C 946.008,871.557 952.675,915.557 953,960.5C 952,961.5 951,962.5 950,963.5C 805.898,962.196 661.731,962.196 517.5,963.5C 517.168,816.097 517.502,668.763 518.5,521.5 Z"/></g>
</svg>
