<?xml version="1.0" encoding="UTF-8"?>
<!DOCTYPE svg PUBLIC "-//W3C//DTD SVG 1.1//EN" "http://www.w3.org/Graphics/SVG/1.1/DTD/svg11.dtd">
<svg xmlns="http://www.w3.org/2000/svg" version="1.1" width="1024px" height="1024px" style="shape-rendering:geometricPrecision; text-rendering:geometricPrecision; image-rendering:optimizeQuality; fill-rule:evenodd; clip-rule:evenodd" xmlns:xlink="http://www.w3.org/1999/xlink">
<g><path style="opacity:1" fill="#0b0808" d="M -0.5,-0.5 C 340.833,-0.5 682.167,-0.5 1023.5,-0.5C 1023.5,340.833 1023.5,682.167 1023.5,1023.5C 682.167,1023.5 340.833,1023.5 -0.5,1023.5C -0.5,682.167 -0.5,340.833 -0.5,-0.5 Z"/></g>
<g><path style="opacity:1" fill="#fefefe" d="M 237.5,218.5 C 271.168,218.333 304.835,218.5 338.5,219C 344.272,221.106 348.438,224.939 351,230.5C 351.333,263.167 351.667,295.833 352,328.5C 353.697,342.202 361.197,351.035 374.5,355C 400.5,355.333 426.5,355.667 452.5,356C 458.113,357.282 462.28,360.449 465,365.5C 466.632,392.784 466.965,420.118 466,447.5C 463.762,454.07 459.262,458.237 452.5,460C 426.167,460.667 399.833,460.667 373.5,460C 365.427,457.928 360.927,452.761 360,444.5C 359.667,419.167 359.333,393.833 359,368.5C 354.22,355.056 344.72,347.556 330.5,346C 299.833,345.667 269.167,345.333 238.5,345C 232.307,342.807 228.141,338.641 226,332.5C 225.333,298.833 225.333,265.167 226,231.5C 227.589,225.083 231.423,220.749 237.5,218.5 Z"/></g>
<g><path style="opacity:1" fill="#fefefe" d="M 507.5,246.5 C 534.274,245.133 550.774,257.466 557,283.5C 558.515,309.971 546.349,326.138 520.5,332C 496.225,333.377 480.391,322.543 473,299.5C 470.005,272.11 481.505,254.444 507.5,246.5 Z"/></g>
<g><path style="opacity:1" fill="#fefefe" d="M 518.5,354.5 C 595.35,356.184 659.183,385.518 710,442.5C 751.393,495.051 767.726,554.717 759,621.5C 747.06,695.926 708.893,752.426 644.5,791C 583.17,824.851 519.17,830.851 452.5,809C 390.1,785.602 344.6,743.769 316,683.5C 293.239,627.862 290.405,571.195 307.5,513.5C 343.168,513.333 378.835,513.5 414.5,514C 393.853,548.45 388.353,585.284 398,624.5C 418.202,684.955 460.202,717.288 524,721.5C 584.756,718.316 626.423,688.649 649,632.5C 663.322,585.785 655.655,543.118 626,504.5C 597.511,472.349 561.677,457.349 518.5,459.5C 518.5,424.5 518.5,389.5 518.5,354.5 Z"/></g>
</svg>
