<?xml version="1.0" encoding="UTF-8"?>
<!DOCTYPE svg PUBLIC "-//W3C//DTD SVG 1.1//EN" "http://www.w3.org/Graphics/SVG/1.1/DTD/svg11.dtd">
<svg xmlns="http://www.w3.org/2000/svg" version="1.1" width="786px" height="305px" style="shape-rendering:geometricPrecision; text-rendering:geometricPrecision; image-rendering:optimizeQuality; fill-rule:evenodd; clip-rule:evenodd" xmlns:xlink="http://www.w3.org/1999/xlink">
<g><path style="opacity:0.997" fill="#040404" d="M -0.5,-0.5 C 261.5,-0.5 523.5,-0.5 785.5,-0.5C 785.5,101.167 785.5,202.833 785.5,304.5C 523.5,304.5 261.5,304.5 -0.5,304.5C -0.5,202.833 -0.5,101.167 -0.5,-0.5 Z"/></g>
<g><path style="opacity:1" fill="#fdfdfd" d="M 21.5,16.5 C 38.17,16.3334 54.8367,16.5001 71.5,17C 74.196,17.6898 76.3626,19.1898 78,21.5C 79,39.8333 80,58.1667 81,76.5C 83.5366,79.372 86.3699,81.872 89.5,84C 103.5,84.3333 117.5,84.6667 131.5,85C 133.726,86.2273 135.226,88.0607 136,90.5C 136.667,104.167 136.667,117.833 136,131.5C 135.215,133.286 134.049,134.786 132.5,136C 117.593,137.633 102.593,137.967 87.5,137C 85,135.833 83.1667,134 82,131.5C 81.6667,117.833 81.3333,104.167 81,90.5C 79.8783,88.3762 78.3783,86.5429 76.5,85C 58.2569,83.6924 39.9236,83.0257 21.5,83C 19.04,81.5422 16.8734,79.7089 15,77.5C 13.3747,59.8995 13.0414,42.2328 14,24.5C 15.5196,20.8424 18.0196,18.1757 21.5,16.5 Z"/></g>
<g><path style="opacity:1" fill="#fcfcfc" d="M 145.5,31.5 C 159.059,29.5228 168.225,34.8561 173,47.5C 175.087,60.1621 170.253,68.9954 158.5,74C 141.262,76.919 131.596,69.7523 129.5,52.5C 130.358,41.988 135.691,34.988 145.5,31.5 Z"/></g>
<g><path style="opacity:1" fill="#fcfcfc" d="M 357.5,73.5 C 398.381,70.841 422.881,89.5077 431,129.5C 433.124,161.1 419.958,183.6 391.5,197C 358.239,207.654 332.072,198.487 313,169.5C 300.872,145.566 301.872,122.233 316,99.5C 326.645,85.6019 340.478,76.9352 357.5,73.5 Z"/></g>
<g><path style="opacity:1" fill="#fdfdfd" d="M 153.5,85.5 C 207.307,89.1459 240.474,117.146 253,169.5C 258.195,221.292 237.695,258.792 191.5,282C 146.228,298.283 107.061,289.116 74,254.5C 50.6408,224.87 44.1408,191.87 54.5,155.5C 70.156,154.334 85.8227,154.167 101.5,155C 86.8863,180.936 89.053,205.436 108,228.5C 130.265,249.616 155.098,253.116 182.5,239C 206.94,222.355 216.107,199.522 210,170.5C 200.824,143.492 181.99,129.158 153.5,127.5C 153.5,113.5 153.5,99.5 153.5,85.5 Z"/></g>
<g><path style="opacity:1" fill="#060606" d="M 359.5,96.5 C 391.552,95.7191 407.052,111.386 406,143.5C 400.275,168.224 384.775,179.391 359.5,177C 337.143,169.147 327.31,153.314 330,129.5C 333.386,112.62 343.219,101.62 359.5,96.5 Z"/></g>
<g><path style="opacity:1" fill="#fbfbfb" d="M 714.5,107.5 C 727.319,105.96 738.986,108.794 749.5,116C 755.526,121.886 759.026,129.053 760,137.5C 760.333,150.833 760.667,164.167 761,177.5C 761.465,178.931 762.299,180.097 763.5,181C 766.095,181.226 768.595,181.726 771,182.5C 771.667,187.5 771.667,192.5 771,197.5C 764.164,198.903 757.331,198.736 750.5,197C 745.572,195.073 742.406,191.573 741,186.5C 727.116,201.077 710.95,204.243 692.5,196C 680.916,186.145 678.416,174.312 685,160.5C 691.841,152.163 700.674,147.663 711.5,147C 720.494,146.5 729.494,146.334 738.5,146.5C 740.608,136.534 736.942,130.034 727.5,127C 720.156,125.307 713.656,126.807 708,131.5C 707.069,133.459 706.236,135.459 705.5,137.5C 699.528,138.664 693.528,138.83 687.5,138C 685.556,135.847 685.056,133.347 686,130.5C 688.624,122.209 693.791,116.042 701.5,112C 705.893,110.329 710.226,108.829 714.5,107.5 Z"/></g>
<g><path style="opacity:1" fill="#fcfcfc" d="M 481.5,108.5 C 487.212,108.313 492.879,108.646 498.5,109.5C 498.5,116.167 498.5,122.833 498.5,129.5C 491.411,129.116 484.411,129.616 477.5,131C 470.602,134.277 466.768,139.777 466,147.5C 465.5,164.497 465.333,181.497 465.5,198.5C 457.833,198.5 450.167,198.5 442.5,198.5C 442.5,169.167 442.5,139.833 442.5,110.5C 449.833,110.5 457.167,110.5 464.5,110.5C 464.334,115.179 464.501,119.845 465,124.5C 468.438,116.893 473.938,111.56 481.5,108.5 Z"/></g>
<g><path style="opacity:1" fill="#fbfbfb" d="M 570.5,109.5 C 577.841,109.334 585.174,109.5 592.5,110C 593.022,110.561 593.355,111.228 593.5,112C 576.029,153.776 558.695,195.609 541.5,237.5C 533.862,238.497 526.196,238.831 518.5,238.5C 518.343,237.127 518.51,235.793 519,234.5C 524.92,221.829 530.42,208.995 535.5,196C 525.395,169.687 514.895,143.521 504,117.5C 503.009,115.553 502.675,113.553 503,111.5C 510.442,110.187 517.942,110.187 525.5,111.5C 532.836,130.51 540.169,149.51 547.5,168.5C 555.367,148.898 563.033,129.231 570.5,109.5 Z"/></g>
<g><path style="opacity:1" fill="#fafafa" d="M 599.5,109.5 C 623.167,109.5 646.833,109.5 670.5,109.5C 670.665,113.182 670.499,116.848 670,120.5C 656.695,139.971 643.195,159.305 629.5,178.5C 643.484,179.499 657.484,179.833 671.5,179.5C 671.81,185.758 671.476,191.924 670.5,198C 646.169,198.5 621.836,198.667 597.5,198.5C 596.959,193.551 597.792,188.884 600,184.5C 613.028,166.305 625.861,147.972 638.5,129.5C 625.517,128.501 612.517,128.168 599.5,128.5C 599.5,122.167 599.5,115.833 599.5,109.5 Z"/></g>
<g><path style="opacity:1" fill="#0a0a0a" d="M 719.5,159.5 C 725.833,159.5 732.167,159.5 738.5,159.5C 739.906,174.594 733.073,182.927 718,184.5C 706.165,183.689 701.832,177.689 705,166.5C 709.044,162.33 713.878,159.996 719.5,159.5 Z"/></g>
</svg>
