<?xml version="1.0" encoding="UTF-8"?>
<!DOCTYPE svg PUBLIC "-//W3C//DTD SVG 1.1//EN" "http://www.w3.org/Graphics/SVG/1.1/DTD/svg11.dtd">
<svg xmlns="http://www.w3.org/2000/svg" version="1.1" width="1245px" height="489px" style="shape-rendering:geometricPrecision; text-rendering:geometricPrecision; image-rendering:optimizeQuality; fill-rule:evenodd; clip-rule:evenodd" xmlns:xlink="http://www.w3.org/1999/xlink">
<g><path style="opacity:0.998" fill="#000000" d="M -0.5,-0.5 C 414.5,-0.5 829.5,-0.5 1244.5,-0.5C 1244.5,162.5 1244.5,325.5 1244.5,488.5C 829.5,488.5 414.5,488.5 -0.5,488.5C -0.5,325.5 -0.5,162.5 -0.5,-0.5 Z"/></g>
<g><path style="opacity:1" fill="#fefefe" d="M 23.5,24.5 C 62.5014,24.3333 101.501,24.5 140.5,25C 145.876,27.04 149.043,30.8733 150,36.5C 150.333,69.8333 150.667,103.167 151,136.5C 153.14,144.64 158.307,149.807 166.5,152C 185.5,152.333 204.5,152.667 223.5,153C 229.964,154.13 233.797,157.964 235,164.5C 235.667,188.5 235.667,212.5 235,236.5C 233.702,241.274 230.868,244.774 226.5,247C 201.77,247.971 177.104,247.638 152.5,246C 149.865,244.039 148.031,241.539 147,238.5C 146.667,216.167 146.333,193.833 146,171.5C 144.447,163.548 139.947,158.048 132.5,155C 96.5469,153.692 60.5469,153.026 24.5,153C 19.3333,151.833 16.1667,148.667 15,143.5C 14.3333,106.833 14.3333,70.1667 15,33.5C 16.6878,29.3148 19.5212,26.3148 23.5,24.5 Z"/></g>
<g><path style="opacity:1" fill="#fdfdfd" d="M 257.5,43.5 C 282.616,41.9669 298.45,53.3002 305,77.5C 306.505,102.337 295.338,118.171 271.5,125C 245.052,126.689 229.219,114.522 224,88.5C 223.58,64.7669 234.747,49.7669 257.5,43.5 Z"/></g>
<g><path style="opacity:1" fill="#fdfdfd" d="M 586.5,119.5 C 637.657,116.548 673.824,138.215 695,184.5C 708.188,223.028 702.855,258.695 679,291.5C 647.045,325.029 608.878,334.863 564.5,321C 525.092,304.229 503.258,274.395 499,231.5C 496.774,182.1 517.941,146.933 562.5,126C 570.459,123.179 578.459,121.013 586.5,119.5 Z"/></g>
<g><path style="opacity:1" fill="#fdfdfd" d="M 260.5,153.5 C 323.853,156.409 369.686,186.075 398,242.5C 422.086,301.993 415.42,357.66 378,409.5C 339.392,455.937 289.892,475.77 229.5,469C 168.967,457.13 127.134,422.63 104,365.5C 93.2386,333.248 91.7386,300.581 99.5,267.5C 124.836,267.333 150.169,267.5 175.5,268C 159.98,302.654 163.147,335.488 185,366.5C 214.389,398.971 249.556,407.137 290.5,391C 333.835,366.482 349.335,329.982 337,281.5C 323.159,246.83 297.659,227.497 260.5,223.5C 260.5,200.167 260.5,176.833 260.5,153.5 Z"/></g>
<g><path style="opacity:1" fill="#010101" d="M 589.5,159.5 C 622.786,157.049 645.953,171.049 659,201.5C 667.548,230.149 661.048,254.649 639.5,275C 612.938,293.318 586.605,292.985 560.5,274C 538.428,251.423 532.928,225.257 544,195.5C 553.459,176.2 568.625,164.2 589.5,159.5 Z"/></g>
<g><path style="opacity:1" fill="#fafafa" d="M 781.5,178.5 C 788.167,178.5 794.833,178.5 801.5,178.5C 801.5,190.833 801.5,203.167 801.5,215.5C 785.111,213.683 771.278,218.683 760,230.5C 756.11,236.941 754.11,243.941 754,251.5C 753.5,274.498 753.333,297.498 753.5,320.5C 741.5,320.5 729.5,320.5 717.5,320.5C 717.5,274.167 717.5,227.833 717.5,181.5C 729.167,181.5 740.833,181.5 752.5,181.5C 753.175,188.476 753.675,195.476 754,202.5C 759.902,190.651 769.069,182.651 781.5,178.5 Z"/></g>
<g><path style="opacity:1" fill="#fcfcfc" d="M 1150.5,177.5 C 1173.19,175.936 1192.02,183.602 1207,200.5C 1218.39,219.257 1222.55,239.59 1219.5,261.5C 1188.49,261.167 1157.49,261.5 1126.5,262.5C 1132.94,288.228 1148.94,297.061 1174.5,289C 1180.1,286.568 1183.76,282.401 1185.5,276.5C 1196.81,275.501 1208.15,275.168 1219.5,275.5C 1214.23,301.933 1198.23,317.433 1171.5,322C 1143.91,326.696 1121.08,318.529 1103,297.5C 1087.83,271.706 1085.5,244.706 1096,216.5C 1107.29,193.781 1125.46,180.781 1150.5,177.5 Z"/></g>
<g><path style="opacity:1" fill="#bbbbbb" d="M 964.5,182.5 C 1000.66,181.502 1037,181.168 1073.5,181.5C 1073.83,191.015 1073.49,200.348 1072.5,209.5C 1072.5,200.5 1072.5,191.5 1072.5,182.5C 1036.5,182.5 1000.5,182.5 964.5,182.5 Z"/></g>
<g><path style="opacity:1" fill="#fcfcfc" d="M 879.5,379.5 C 867.322,379.828 855.322,379.495 843.5,378.5C 850.691,358.927 857.691,339.26 864.5,319.5C 846.961,273.548 829.628,227.548 812.5,181.5C 825.167,181.5 837.833,181.5 850.5,181.5C 861.026,212.578 871.86,243.578 883,274.5C 894.744,243.684 905.911,212.684 916.5,181.5C 929.184,181.168 941.851,181.501 954.5,182.5C 929.762,248.303 904.762,313.969 879.5,379.5 Z"/></g>
<g><path style="opacity:1" fill="#fdfdfd" d="M 964.5,182.5 C 1000.5,182.5 1036.5,182.5 1072.5,182.5C 1072.5,191.5 1072.5,200.5 1072.5,209.5C 1051.12,234.876 1030.12,260.543 1009.5,286.5C 1008.71,286.783 1008.04,287.283 1007.5,288C 1029.5,288.5 1051.5,288.667 1073.5,288.5C 1073.5,299.167 1073.5,309.833 1073.5,320.5C 1036.5,320.5 999.5,320.5 962.5,320.5C 962.334,311.494 962.5,302.494 963,293.5C 984.645,267.021 1006.48,240.687 1028.5,214.5C 1007.18,213.5 985.844,213.167 964.5,213.5C 964.5,203.167 964.5,192.833 964.5,182.5 Z"/></g>
<g><path style="opacity:1" fill="#020202" d="M 1147.5,209.5 C 1156.99,208.415 1165.99,209.915 1174.5,214C 1180.61,219.063 1183.95,225.563 1184.5,233.5C 1165.17,233.5 1145.83,233.5 1126.5,233.5C 1128.57,221.101 1135.57,213.101 1147.5,209.5 Z"/></g>
<g><path style="opacity:1" fill="#323232" d="M 1009.5,286.5 C 1030.83,287.167 1052.17,287.833 1073.5,288.5C 1051.5,288.667 1029.5,288.5 1007.5,288C 1008.04,287.283 1008.71,286.783 1009.5,286.5 Z"/></g>
<g><path style="opacity:1" fill="#3d3d3d" d="M 843.5,378.5 C 855.322,379.495 867.322,379.828 879.5,379.5C 867.327,380.825 854.994,380.825 842.5,379.5C 842.624,378.893 842.957,378.56 843.5,378.5 Z"/></g>
</svg>
