<?xml version="1.0" encoding="UTF-8"?>
<!DOCTYPE svg PUBLIC "-//W3C//DTD SVG 1.1//EN" "http://www.w3.org/Graphics/SVG/1.1/DTD/svg11.dtd">
<svg xmlns="http://www.w3.org/2000/svg" version="1.1" width="1024px" height="1024px" style="shape-rendering:geometricPrecision; text-rendering:geometricPrecision; image-rendering:optimizeQuality; fill-rule:evenodd; clip-rule:evenodd" xmlns:xlink="http://www.w3.org/1999/xlink">
<g><path style="opacity:1" fill="#000000" d="M -0.5,-0.5 C 340.833,-0.5 682.167,-0.5 1023.5,-0.5C 1023.5,340.833 1023.5,682.167 1023.5,1023.5C 682.167,1023.5 340.833,1023.5 -0.5,1023.5C -0.5,682.167 -0.5,340.833 -0.5,-0.5 Z"/></g>
<g><path style="opacity:1" fill="#fefefe" d="M 314.5,276.5 C 370.958,271.483 414.458,292.483 445,339.5C 478.268,397.093 511.935,454.427 546,511.5C 589,438.167 632,364.833 675,291.5C 686.58,277.312 701.08,273.146 718.5,279C 737.771,289.052 744.271,304.552 738,325.5C 688.211,410.914 638.045,496.08 587.5,581C 595.874,595.582 604.374,610.082 613,624.5C 625.303,641.463 637.97,641.796 651,625.5C 702.081,537.669 753.414,450.002 805,362.5C 819.797,346.727 836.63,344.227 855.5,355C 872.036,371.22 873.869,389.053 861,408.5C 811.601,491.573 762.601,574.907 714,658.5C 701.288,680.545 683.455,697.045 660.5,708C 630.001,717.541 602.667,711.875 578.5,691C 565.647,679.742 554.814,666.909 546,652.5C 503.712,711.595 448.212,729.095 379.5,705C 358.088,694.924 340.255,680.424 326,661.5C 288.667,598.167 251.333,534.833 214,471.5C 189.144,421.768 192.477,374.102 224,328.5C 247.39,299.388 277.557,282.055 314.5,276.5 Z"/></g>
<g><path style="opacity:1" fill="#010101" d="M 318.5,343.5 C 341.477,341.101 360.977,348.101 377,364.5C 420.085,436.335 462.918,508.335 505.5,580.5C 496.918,595.333 488.085,609.999 479,624.5C 455.39,649.518 428.557,653.685 398.5,637C 393.699,633.201 389.199,629.034 385,624.5C 366.269,594.095 347.935,563.428 330,532.5C 310.08,498.33 290.414,463.996 271,429.5C 260.701,393.055 272.201,365.888 305.5,348C 309.98,346.564 314.313,345.064 318.5,343.5 Z"/></g>
</svg>
