<?xml version="1.0" encoding="UTF-8"?>
<!DOCTYPE svg PUBLIC "-//W3C//DTD SVG 1.1//EN" "http://www.w3.org/Graphics/SVG/1.1/DTD/svg11.dtd">
<svg xmlns="http://www.w3.org/2000/svg" version="1.1" width="866px" height="205px" style="shape-rendering:geometricPrecision; text-rendering:geometricPrecision; image-rendering:optimizeQuality; fill-rule:evenodd; clip-rule:evenodd" xmlns:xlink="http://www.w3.org/1999/xlink">
<g><path style="opacity:0.995" fill="#080808" d="M -0.5,-0.5 C 288.167,-0.5 576.833,-0.5 865.5,-0.5C 865.5,67.8333 865.5,136.167 865.5,204.5C 576.833,204.5 288.167,204.5 -0.5,204.5C -0.5,136.167 -0.5,67.8333 -0.5,-0.5 Z"/></g>
<g><path style="opacity:1" fill="#fafafa" d="M 65.5,12.5 C 90.6558,9.83393 110.822,18.5006 126,38.5C 140.333,61.8333 154.667,85.1667 169,108.5C 187,79.1667 205,49.8333 223,20.5C 231.977,10.9518 240.644,11.2852 249,21.5C 251.448,28.0245 250.448,34.0245 246,39.5C 225.915,72.0002 206.082,104.667 186.5,137.5C 190.554,144.441 195.22,150.941 200.5,157C 210.915,163.038 219.748,161.205 227,151.5C 246.667,118.833 266.333,86.1667 286,53.5C 291.528,43.7849 299.028,41.9515 308.5,48C 313.02,52.6616 314.52,58.1616 313,64.5C 292.27,101.632 270.27,137.965 247,173.5C 233.434,188.019 216.934,192.852 197.5,188C 185.055,184.39 175.722,176.89 169.5,165.5C 148.61,192.56 121.944,200.393 89.5,189C 80.0513,183.693 71.8846,176.86 65,168.5C 49.2478,144.669 34.2478,120.335 20,95.5C 8.05528,52.7093 23.2219,25.0426 65.5,12.5 Z"/></g>
<g><path style="opacity:1" fill="#fafafa" d="M 614.5,40.5 C 621.191,40.4542 627.857,40.7875 634.5,41.5C 634.5,47.5 634.5,53.5 634.5,59.5C 618.931,55.7504 611.597,61.7504 612.5,77.5C 619.167,77.5 625.833,77.5 632.5,77.5C 632.5,83.1667 632.5,88.8333 632.5,94.5C 625.833,94.5 619.167,94.5 612.5,94.5C 612.5,120.5 612.5,146.5 612.5,172.5C 605.167,172.5 597.833,172.5 590.5,172.5C 590.5,146.5 590.5,120.5 590.5,94.5C 585.833,94.5 581.167,94.5 576.5,94.5C 576.5,88.8333 576.5,83.1667 576.5,77.5C 581.167,77.5 585.833,77.5 590.5,77.5C 587.314,57.4719 595.314,45.1385 614.5,40.5 Z"/></g>
<g><path style="opacity:1" fill="#080808" d="M 70.5,42.5 C 82.0056,41.1655 91.5056,44.8321 99,53.5C 116.333,80.8333 133.667,108.167 151,135.5C 144.614,157.121 130.114,166.954 107.5,165C 100.45,163.056 94.6167,159.222 90,153.5C 77.2506,132.332 64.2506,111.332 51,90.5C 39.6231,66.9481 46.1231,50.9481 70.5,42.5 Z"/></g>
<g><path style="opacity:1" fill="#f9f9f9" d="M 368.5,46.5 C 377.192,46.1686 385.859,46.502 394.5,47.5C 405.306,79.9172 416.306,112.251 427.5,144.5C 429.121,142.847 430.288,140.847 431,138.5C 441.072,108.119 451.238,77.7854 461.5,47.5C 469.807,46.5021 478.14,46.1688 486.5,46.5C 472.701,88.0619 458.201,129.395 443,170.5C 438.25,171.804 433.25,172.47 428,172.5C 422.75,172.47 417.75,171.804 413,170.5C 398.061,129.181 383.228,87.8479 368.5,46.5 Z"/></g>
<g><path style="opacity:1" fill="#f7f7f7" d="M 653.5,53.5 C 661.167,53.5 668.833,53.5 676.5,53.5C 676.5,61.5 676.5,69.5 676.5,77.5C 682.5,77.5 688.5,77.5 694.5,77.5C 694.5,83.1667 694.5,88.8333 694.5,94.5C 688.5,94.5 682.5,94.5 676.5,94.5C 676.051,113.555 676.551,132.555 678,151.5C 678.5,153.333 679.667,154.5 681.5,155C 684.894,155.752 688.227,155.585 691.5,154.5C 693.547,159.184 695.214,164.017 696.5,169C 695.318,170.735 693.651,171.735 691.5,172C 681.737,174.685 672.404,173.685 663.5,169C 657.849,164.533 654.683,158.699 654,151.5C 653.5,132.503 653.333,113.503 653.5,94.5C 649.5,94.5 645.5,94.5 641.5,94.5C 641.5,88.8333 641.5,83.1667 641.5,77.5C 645.5,77.5 649.5,77.5 653.5,77.5C 653.5,69.5 653.5,61.5 653.5,53.5 Z"/></g>
<g><path style="opacity:1" fill="#f8f8f8" d="M 519.5,75.5 C 535.32,73.8202 548.82,78.4868 560,89.5C 567.977,102.339 571.144,116.339 569.5,131.5C 547.833,131.5 526.167,131.5 504.5,131.5C 507.166,151.685 518.499,159.185 538.5,154C 542.026,151.974 544.693,149.141 546.5,145.5C 554.167,144.167 561.833,144.167 569.5,145.5C 560.819,167.017 544.819,176.517 521.5,174C 496.995,170.491 483.828,156.325 482,131.5C 480.164,116.513 483.497,102.847 492,90.5C 499.734,82.7193 508.9,77.7193 519.5,75.5 Z"/></g>
<g><path style="opacity:1" fill="#f8f8f8" d="M 802.5,75.5 C 831.996,73.8171 849.162,87.4838 854,116.5C 856.163,132.176 852.83,146.509 844,159.5C 830.974,172.3 815.474,176.8 797.5,173C 776.7,166.624 765.533,152.457 764,130.5C 762.145,113.398 766.978,98.5651 778.5,86C 785.688,80.4446 793.688,76.9446 802.5,75.5 Z"/></g>
<g><path style="opacity:1" fill="#fafafa" d="M 762.5,76.5 C 762.823,83.0221 762.49,89.3554 761.5,95.5C 747.869,92.6654 738.035,97.3321 732,109.5C 730.546,130.446 730.046,151.446 730.5,172.5C 723.167,172.5 715.833,172.5 708.5,172.5C 708.5,140.833 708.5,109.167 708.5,77.5C 715.833,77.5 723.167,77.5 730.5,77.5C 730.334,81.5138 730.501,85.5138 731,89.5C 738.537,78.0421 749.037,73.7087 762.5,76.5 Z"/></g>
<g><path style="opacity:1" fill="#545454" d="M 762.5,76.5 C 763.818,83.0112 763.818,89.6778 762.5,96.5C 761.893,96.3764 761.56,96.0431 761.5,95.5C 762.49,89.3554 762.823,83.0221 762.5,76.5 Z"/></g>
<g><path style="opacity:1" fill="#090909" d="M 519.5,94.5 C 537.256,91.5171 546.923,98.8505 548.5,116.5C 533.485,116.833 518.485,116.499 503.5,115.5C 505.244,105.642 510.577,98.6424 519.5,94.5 Z"/></g>
<g><path style="opacity:1" fill="#090909" d="M 804.5,93.5 C 819.823,92.9223 828.656,100.256 831,115.5C 832.183,125.401 831.183,135.067 828,144.5C 821.044,156.262 811.211,159.429 798.5,154C 791.43,147.813 787.597,139.979 787,130.5C 785.917,122.245 786.917,114.245 790,106.5C 793.162,100.164 797.996,95.8308 804.5,93.5 Z"/></g>
</svg>
